<svg width="24" height="24" viewBox="0 0 24 24" fill="none" xmlns="http://www.w3.org/2000/svg">
<path d="M4.14255 19.4041H4.26193L7.44178 19.1111C7.88674 19.0676 8.29914 18.8723 8.61387 18.5576L20.617 6.55447C21.1813 5.99013 21.496 5.24129 21.496 4.44904C21.496 3.6568 21.1813 2.90796 20.617 2.34362L19.8464 1.57307C18.7177 0.444392 16.7534 0.444392 15.6247 1.57307L14.0945 3.10331L3.63248 13.5653C3.31775 13.8801 3.1224 14.2925 3.08984 14.7374L2.79682 17.9173C2.76426 18.3188 2.90535 18.7095 3.18752 19.0025C3.44798 19.263 3.78442 19.4041 4.14255 19.4041ZM17.741 2.32191C18.0883 2.32191 18.4356 2.45214 18.696 2.72346L19.4666 3.494C19.5934 3.61865 19.6941 3.76729 19.7628 3.93126C19.8316 4.09523 19.867 4.27125 19.867 4.44904C19.867 4.62684 19.8316 4.80286 19.7628 4.96683C19.6941 5.1308 19.5934 5.27944 19.4666 5.40408L18.5115 6.35912L15.8309 3.6785L16.786 2.72346C17.0464 2.463 17.3937 2.32191 17.741 2.32191ZM4.7069 14.8894C4.7069 14.8242 4.73945 14.77 4.78286 14.7266L14.6697 4.82889L17.3503 7.50951L7.46348 17.3963C7.46348 17.3963 7.35496 17.4723 7.30069 17.4723L4.44643 17.7328L4.7069 14.8785V14.8894ZM23.6666 22.8661C23.6666 23.3111 23.2976 23.6801 22.8526 23.6801H1.14721C0.702244 23.6801 0.333252 23.3111 0.333252 22.8661C0.333252 22.4211 0.702244 22.0521 1.14721 22.0521H22.8526C23.2976 22.0521 23.6666 22.4211 23.6666 22.8661Z" fill="#00702B"/>
</svg>
