<svg width="32" height="32" viewBox="0 0 32 32" fill="none" xmlns="http://www.w3.org/2000/svg">
<path d="M23.2002 7.99969L28.0727 7.99968C28.1387 7.9998 28.2033 7.98032 28.2582 7.9437C28.3131 7.90708 28.3559 7.85497 28.3812 7.79399C28.4065 7.73301 28.4131 7.66589 28.4002 7.60116C28.3873 7.53642 28.3554 7.47697 28.3087 7.43035L21.7695 0.890931C21.7232 0.844504 21.6643 0.812761 21.6 0.799675C21.5358 0.786589 21.4691 0.792741 21.4083 0.817362C21.3476 0.841982 21.2954 0.883977 21.2584 0.938092C21.2214 0.992207 21.2011 1.05604 21.2002 1.1216V5.99969C21.2002 6.53012 21.4109 7.03883 21.786 7.4139C22.1611 7.78897 22.6698 7.99969 23.2002 7.99969Z" fill="#3AB67B" fill-opacity="0.7"/>
<path d="M29.1024 9.69763C29.1649 9.76014 29.2 9.84493 29.2 9.93333V29.3333C29.2 30.0406 28.919 30.7189 28.4189 31.219C27.9189 31.719 27.2406 32 26.5333 32H4.66667C3.95942 32 3.28115 31.719 2.78105 31.219C2.28095 30.7189 2 30.0406 2 29.3333V2.66667C2 1.95942 2.28095 1.28115 2.78105 0.781049C3.28115 0.280952 3.95942 0 4.66667 0L19.2666 0C19.355 0 19.4398 0.0351189 19.5023 0.0976311C19.5648 0.160143 19.5999 0.244928 19.5999 0.333333V6.26667C19.5999 7.15072 19.9511 7.99857 20.5762 8.62369C21.2014 9.24881 22.0492 9.6 22.9333 9.6H28.8667C28.9551 9.6 29.0399 9.63512 29.1024 9.69763Z" fill="#3AB67B"/>
<g clip-path="url(#clip0_2167_18780)">
<path d="M23.502 14H7.49805C7.22296 14 7 14.2202 7 14.4918V27.5228C7 27.7944 7.22296 28.0146 7.49805 28.0146H23.502C23.777 28.0146 24 27.7944 24 27.5228V14.4918C24 14.2202 23.777 14 23.502 14ZM12.3644 26.1747V27.031H10.6932V26.1747H12.3644ZM13.3605 26.1747H15.0317V27.031H13.3605V26.1747ZM16.0278 26.1747H17.699V27.031H16.0278V26.1747ZM18.6951 26.1747H20.3664V27.031H18.6951V26.1747ZM7.99609 25.1911V16.8235H23.0039V25.1911H7.99609ZM18.6951 15.8399V14.9836H20.3664V15.8399L18.6951 15.8399ZM17.699 15.8399H16.0278V14.9836H17.699V15.8399ZM15.0317 15.8399H13.3605V14.9836H15.0317V15.8399ZM12.3644 15.8399H10.6932V14.9836H12.3644V15.8399ZM23.0039 15.8399H21.3624V14.9836H23.0039V15.8399ZM9.69709 14.9836V15.8399H7.99609V14.9836H9.69709ZM7.99609 26.1747H9.69709V27.031H7.99609V26.1747ZM21.3624 27.031V26.1747H23.0039V27.031H21.3624Z" fill="white"/>
<path d="M17.8893 20.3547C17.8722 20.3422 17.8544 20.3306 17.8361 20.32L14.2408 18.2258C13.9803 18.0558 13.638 18.0365 13.3565 18.1795C13.0793 18.3202 12.9072 18.5946 12.9072 18.8957V23.1056C12.9072 23.4067 13.0794 23.6811 13.3566 23.8218C13.4811 23.8848 13.6188 23.9175 13.7584 23.9173C13.9281 23.9173 14.097 23.8695 14.2408 23.7754L17.8361 21.6813C17.8544 21.6707 17.8722 21.6591 17.8893 21.6467C18.1018 21.4921 18.2239 21.2568 18.2239 21.0008C18.2239 20.7448 18.1018 20.5091 17.8893 20.3547ZM14.1641 22.3681V19.6331L16.5118 21.0006L14.1641 22.3681Z" fill="white"/>
</g>
<defs>
<clipPath id="clip0_2167_18780">
<rect width="17" height="14" fill="white" transform="translate(7 14)"/>
</clipPath>
</defs>
</svg>
