<svg width="16" height="16" viewBox="0 0 16 16" fill="none" xmlns="http://www.w3.org/2000/svg">
<path d="M9.64342 7.8577C9.64342 8.84049 8.84049 9.64342 7.8577 9.64342C6.87491 9.64342 6.07199 8.84049 6.07199 7.8577C6.07199 6.87492 6.87491 6.07199 7.8577 6.07199C8.84049 6.07199 9.64342 6.87492 9.64342 7.8577ZM11.8756 7.8577C11.8756 6.94962 11.5759 6.11286 11.0698 5.44074C11.2098 5.49103 11.3608 5.51842 11.5184 5.51842C12.2082 5.51842 12.7721 4.99382 12.8342 4.32061C12.9153 4.6987 12.9598 5.22642 12.9785 5.81441C12.9958 6.36018 12.9905 6.9048 12.9861 7.36044C12.9843 7.54222 12.9827 7.70983 12.9827 7.8577C12.9827 8.00557 12.9843 8.17319 12.9861 8.35496C12.9905 8.8106 12.9958 9.35522 12.9785 9.90099C12.9537 10.6834 12.883 11.3591 12.7413 11.7175C12.6413 11.9674 12.527 12.142 12.3345 12.3345C12.142 12.527 11.9673 12.6413 11.7175 12.7414C11.359 12.883 10.6833 12.9537 9.90099 12.9785C9.35522 12.9958 8.8106 12.9905 8.35496 12.9861C8.17319 12.9843 8.00557 12.9827 7.8577 12.9827C7.70983 12.9827 7.54222 12.9843 7.36044 12.9861C6.9048 12.9905 6.36018 12.9958 5.81441 12.9785C5.03202 12.9537 4.35633 12.883 3.99788 12.7413C3.74805 12.6413 3.57336 12.527 3.3809 12.3345C3.18841 12.142 3.07408 11.9673 2.97404 11.7174C2.83237 11.359 2.76175 10.6833 2.73691 9.90099C2.71959 9.35522 2.72488 8.8106 2.72931 8.35496C2.73107 8.17318 2.7327 8.00557 2.7327 7.8577C2.7327 7.70983 2.73107 7.54222 2.72931 7.36044C2.72488 6.9048 2.71959 6.36018 2.73691 5.81441C2.76175 5.03205 2.83237 4.35639 2.97405 3.99793C3.07409 3.74808 3.18842 3.57337 3.3809 3.3809C3.57337 3.18842 3.74807 3.0741 3.99791 2.97406C4.35637 2.83237 5.03204 2.76175 5.81441 2.73691C6.36018 2.71959 6.9048 2.72488 7.36044 2.72931C7.54222 2.73107 7.70983 2.7327 7.8577 2.7327C8.00557 2.7327 8.17319 2.73107 8.35496 2.72931C8.8106 2.72488 9.35522 2.71959 9.90099 2.73691C10.489 2.75558 11.0167 2.80011 11.3948 2.88122C10.7216 2.94327 10.197 3.50718 10.197 4.19699C10.197 4.3546 10.2244 4.50563 10.2747 4.64561C9.60254 4.13954 8.76578 3.83984 7.8577 3.83984C5.63513 3.83984 3.83984 5.63513 3.83984 7.8577C3.83984 10.0803 5.63513 11.8756 7.8577 11.8756C10.0803 11.8756 11.8756 10.0803 11.8756 7.8577ZM15.2148 7.8577C15.2148 7.74018 15.215 7.6224 15.2151 7.50438C15.2161 6.67994 15.2171 5.84388 15.1695 5.00099C15.1127 3.84071 14.8429 2.72504 13.9166 1.79879C12.9904 0.87253 11.8747 0.602732 10.7144 0.545891C9.87151 0.498255 9.03546 0.49927 8.21103 0.500272C8.09301 0.500415 7.97523 0.500558 7.8577 0.500558C7.74017 0.500558 7.62239 0.500415 7.50437 0.500272C6.67995 0.49927 5.8439 0.498255 5.00102 0.545891C3.84073 0.602732 2.72505 0.87253 1.79879 1.79879C0.872531 2.72505 0.602733 3.84073 0.545891 5.00102C0.498255 5.84389 0.49927 6.67994 0.500272 7.50436C0.500415 7.62238 0.500558 7.74017 0.500558 7.8577C0.500558 7.97523 0.500415 8.09302 0.500272 8.21104C0.49927 9.03546 0.498255 9.87151 0.545891 10.7144C0.602732 11.8747 0.872529 12.9904 1.79879 13.9166C2.72504 14.8429 3.84071 15.1127 5.00099 15.1695C5.84388 15.2171 6.67994 15.2161 7.50438 15.2151C7.6224 15.215 7.74018 15.2148 7.8577 15.2148C7.97523 15.2148 8.093 15.215 8.21102 15.2151C9.03546 15.2161 9.87152 15.2171 10.7144 15.1695C11.8747 15.1127 12.9904 14.8429 13.9166 13.9166C14.8429 12.9904 15.1127 11.8747 15.1695 10.7144C15.2171 9.87152 15.2161 9.03546 15.2151 8.21102C15.215 8.093 15.2148 7.97523 15.2148 7.8577Z" fill="#6A6A6A" stroke="#F5F5F5"/>
</svg>
