<svg xmlns="http://www.w3.org/2000/svg" width="24" height="24" viewBox="0 0 24 24" fill="none">
    <g clip-path="url(#clip0_10446_14814)">
        <path d="M3 16L7.58579 11.4142C7.96086 11.0391 8.46957 10.8284 9 10.8284C9.53043 10.8284 10.0391 11.0391 10.4142 11.4142L12.5858 13.5858C12.9609 13.9609 13.4696 14.1716 14 14.1716C14.5304 14.1716 15.0391 13.9609 15.4142 13.5858L21 8" stroke="#000000" stroke-width="1.5" stroke-linecap="round" stroke-linejoin="round"/>
        <path d="M14.0501 8.00026C14.0501 8.01352 14.0448 8.02622 14.0354 8.03558C14.026 8.04495 14.0133 8.0502 14 8.0502C13.9868 8.05019 13.9741 8.04492 13.9647 8.03554C13.9553 8.02616 13.9501 8.01345 13.9501 8.0002C13.9501 7.98694 13.9553 7.97423 13.9647 7.96485C13.9741 7.95548 13.9868 7.9502 14 7.9502C14.0133 7.95019 14.026 7.95544 14.0354 7.96481C14.0448 7.97417 14.0501 7.987 14.0501 8.00026Z" stroke="#000000" stroke-width="1.5" stroke-linecap="round" stroke-linejoin="round"/>
        <path d="M16 3H8C5.23858 3 3 5.23858 3 8V16C3 18.7614 5.23858 21 8 21H16C18.7614 21 21 18.7614 21 16V8C21 5.23858 18.7614 3 16 3Z" stroke="#000000" stroke-width="1.5" stroke-linecap="round" stroke-linejoin="round"/>
    </g>
    <defs>
        <clipPath id="clip0_10446_14814">
            <rect width="24" height="24" fill="white"/>
        </clipPath>
    </defs>
</svg>
