<svg width="24" height="24" viewBox="0 0 24 24" fill="none" xmlns="http://www.w3.org/2000/svg">
<path d="M11.9997 19.8726C12.436 19.6124 14.4967 18.3512 16.5869 16.542C17.9542 15.3585 19.0288 14.2014 19.7942 13.1062L20.409 13.5358L19.7943 13.1062C20.7849 11.6888 21.2427 10.394 21.2499 9.24861C21.259 7.80689 20.7016 6.42499 19.7395 5.45686L20.2698 4.92992L19.7395 5.45685C18.8638 4.5756 17.737 4.10156 16.5661 4.10156C14.9842 4.10156 13.5074 4.98828 12.6451 6.44238L12 7.53027L11.3549 6.44238C10.4927 4.98824 9.01585 4.10156 7.434 4.10156C6.19549 4.10156 5.02484 4.62538 4.13423 5.60383C3.25619 6.56851 2.7589 7.86057 2.75009 9.25065L11.9997 19.8726ZM11.9997 19.8726C11.5616 19.6131 9.48602 18.3517 7.38751 16.5418L7.3875 16.5418C6.01508 15.3581 4.9397 14.2011 4.17735 13.1064L4.17734 13.1064C3.18995 11.6887 2.74289 10.3949 2.75009 9.25068L11.9997 19.8726Z" stroke="#A9B3C6" stroke-width="1.5"/>
</svg>
