<svg width="24" height="24" viewBox="0 0 24 24" fill="none" xmlns="http://www.w3.org/2000/svg">
<path d="M18.6158 13.5449C18.5938 13.9768 18.8801 14.3475 19.2552 14.3729C19.6303 14.3982 19.9523 14.0687 19.9743 13.6368L18.6158 13.5449ZM6.94385 8.04543L15.2809 8.04543V6.39844H6.94385V8.04543ZM15.2809 8.04543C15.2666 8.04543 16.6945 8.08835 17.4418 8.7705C18.1487 9.41582 18.7611 10.6981 18.6158 13.5449L19.9743 13.6368C20.1379 10.4306 19.5155 8.21945 18.1669 7.32035C17.03 6.56244 16.3302 6.39844 15.2809 6.39844V8.04543Z" fill="white"/>
<mask id="mask0_4024_4717" style="mask-type:alpha" maskUnits="userSpaceOnUse" x="4" y="4" width="5" height="7">
<path d="M4.02804 4.05859H8.39404V10.6076H4.02804V4.05859Z" fill="#D9D9D9"/>
</mask>
<g mask="url(#mask0_4024_4717)">
<path d="M15.9767 14.6425L10.0901 8.75588C9.86379 8.52813 9.5945 8.34756 9.29789 8.22461C9.00127 8.10165 8.68321 8.03876 8.36213 8.03957H6.81356L7.75976 8.98577C7.83582 9.06179 7.89616 9.15205 7.93732 9.2514C7.97849 9.35075 7.99968 9.45724 7.99968 9.56478C7.99968 9.67232 7.97849 9.7788 7.93732 9.87815C7.89616 9.9775 7.83582 10.0678 7.75976 10.1438C7.68374 10.2198 7.59347 10.2802 7.49412 10.3214C7.39477 10.3625 7.28829 10.3837 7.18075 10.3837C7.07321 10.3837 6.96672 10.3625 6.86737 10.3214C6.76803 10.2802 6.67777 10.2198 6.60174 10.1438L4.27275 7.81752C4.19456 7.7394 4.13254 7.64665 4.09022 7.54455C4.0479 7.44244 4.02612 7.33301 4.02612 7.22248C4.02612 7.11196 4.0479 7.00253 4.09022 6.90042C4.13254 6.79832 4.19456 6.70556 4.27275 6.62745L6.60208 4.29845C6.75365 4.14685 6.95863 4.06074 7.17299 4.05863C7.38736 4.05653 7.59399 4.13859 7.7485 4.2872C8.07902 4.60578 8.07118 5.14471 7.7485 5.46909L6.81424 6.40301H8.36213C8.89816 6.40133 9.42921 6.50599 9.92455 6.71091C10.4199 6.91582 10.8696 7.21695 11.2478 7.59683L17.1344 13.4848C17.3607 13.7125 17.63 13.8931 17.9266 14.016C18.2232 14.1389 18.5413 14.2019 18.8623 14.2011H20.6732C20.8904 14.2011 21.0985 14.2874 21.2521 14.4408C21.4056 14.5944 21.4918 14.8026 21.4918 15.0197C21.4918 15.2368 21.4056 15.445 21.2521 15.5986C21.0985 15.7521 20.8904 15.8383 20.6732 15.8383H18.8637C18.3274 15.8399 17.7959 15.735 17.3004 15.5297C16.8048 15.3244 16.3549 15.0229 15.9767 14.6425Z" fill="white"/>
</g>
<path d="M5.41225 10.6836C5.43427 10.2517 5.148 9.88102 4.77292 9.85566C4.39777 9.83031 4.07581 10.1598 4.05379 10.5917L5.41225 10.6836ZM17.0842 16.1831L8.74716 16.1831V17.8301H17.0842V16.1831ZM8.74716 16.1831C8.76149 16.1831 7.33354 16.1402 6.58627 15.458C5.87939 14.8127 5.26701 13.5305 5.41225 10.6836L4.05379 10.5917C3.89018 13.7979 4.51256 16.0091 5.8612 16.9082C6.99808 17.6661 7.69791 17.8301 8.74716 17.8301V16.1831Z" fill="white"/>
<mask id="mask1_4024_4717" style="mask-type:alpha" maskUnits="userSpaceOnUse" x="15" y="13" width="5" height="8">
<path d="M20 20.1699H15.634V13.6209H20V20.1699Z" fill="#D9D9D9"/>
</mask>
<g mask="url(#mask1_4024_4717)">
<path d="M8.05137 9.58604L13.938 15.4726C14.1643 15.7004 14.4336 15.881 14.7302 16.0039C15.0268 16.1269 15.3449 16.1898 15.6659 16.1889H17.2145L16.2683 15.2427C16.1923 15.1667 16.1319 15.0765 16.0908 14.9771C16.0496 14.8778 16.0284 14.7713 16.0284 14.6637C16.0284 14.5562 16.0496 14.4497 16.0908 14.3504C16.1319 14.251 16.1923 14.1607 16.2683 14.0847C16.3443 14.0087 16.4346 13.9483 16.534 13.9072C16.6333 13.866 16.7398 13.8448 16.8473 13.8448C16.9549 13.8448 17.0614 13.866 17.1607 13.9072C17.2601 13.9483 17.3503 14.0087 17.4263 14.0847L19.7553 16.411C19.8335 16.4891 19.8955 16.5819 19.9379 16.684C19.9802 16.7861 20.002 16.8955 20.002 17.006C20.002 17.1166 19.9802 17.226 19.9379 17.3281C19.8955 17.4302 19.8335 17.523 19.7553 17.6011L17.426 19.9301C17.2744 20.0817 17.0694 20.1678 16.8551 20.1699C16.6407 20.172 16.4341 20.0899 16.2796 19.9413C15.9491 19.6227 15.9569 19.0838 16.2796 18.7594L17.2138 17.8255H15.6659C15.1299 17.8272 14.5989 17.7225 14.1035 17.5176C13.6082 17.3127 13.1585 17.0116 12.7803 16.6317L6.89372 10.7437C6.66734 10.516 6.39803 10.3355 6.10144 10.2125C5.80484 10.0896 5.48678 10.0266 5.16573 10.0274H3.35485C3.13772 10.0274 2.92953 9.94114 2.776 9.78767C2.62246 9.63413 2.53623 9.42588 2.53623 9.20881C2.53623 8.99168 2.62246 8.78349 2.776 8.62995C2.92953 8.47642 3.13772 8.39019 3.35485 8.39019H5.16435C5.70071 8.38859 6.23213 8.49352 6.72767 8.69879C7.22328 8.90407 7.6732 9.20561 8.05137 9.58604Z" fill="white"/>
</g>
</svg>
