<svg width="25" height="24" viewBox="0 0 25 24" fill="none" xmlns="http://www.w3.org/2000/svg">
<path d="M21.6192 14.0848C21.5888 14.6805 21.9836 15.1917 22.5009 15.2266C23.0183 15.2616 23.4624 14.8072 23.4927 14.2115L21.6192 14.0848ZM5.52148 6.5L17.0198 6.5V4.22852H5.52148V6.5ZM17.0198 6.5C17 6.5 18.9694 6.5592 20 7.5C20.9749 8.39002 21.8195 10.1584 21.6192 14.0848L23.4927 14.2115C23.7184 9.78963 22.86 6.74001 21 5.5C19.4321 4.4547 18.4669 4.22852 17.0198 4.22852V6.5Z" fill="#9CA3B1"/>
<mask id="mask0_3834_5541" style="mask-type:alpha" maskUnits="userSpaceOnUse" x="1" y="1" width="7" height="10">
<path d="M1.5 1H7.52148V10.0322H1.5V1Z" fill="#D9D9D9"/>
</mask>
<g mask="url(#mask0_3834_5541)">
<path d="M17.9793 15.597L9.8606 7.47837C9.54848 7.16427 9.17708 6.91523 8.768 6.74566C8.35892 6.57608 7.92025 6.48934 7.47742 6.49047H5.34168L6.64665 7.79543C6.75155 7.90029 6.83477 8.02477 6.89154 8.16179C6.94831 8.29881 6.97754 8.44568 6.97754 8.59399C6.97754 8.7423 6.94831 8.88917 6.89154 9.02619C6.83477 9.16321 6.75155 9.2877 6.64665 9.39254C6.5418 9.49745 6.41731 9.58066 6.28029 9.63744C6.14327 9.69421 5.99641 9.72343 5.8481 9.72343C5.69978 9.72343 5.55292 9.69421 5.4159 9.63744C5.27888 9.58066 5.15439 9.49745 5.04954 9.39254L1.83746 6.18422C1.72962 6.07648 1.64408 5.94856 1.58572 5.80774C1.52735 5.66692 1.49731 5.51599 1.49731 5.36356C1.49731 5.21112 1.52735 5.0602 1.58572 4.91937C1.64408 4.77856 1.72962 4.65063 1.83746 4.5429L5.05001 1.33081C5.25905 1.12171 5.54175 1.00296 5.8374 1.00005C6.13304 0.997152 6.41803 1.11033 6.63112 1.31528C7.08697 1.75466 7.07615 2.49794 6.63112 2.94532L5.34261 4.23336H7.47742C8.21671 4.23105 8.94911 4.37538 9.63228 4.658C10.3154 4.94062 10.9356 5.35592 11.4573 5.87985L19.5759 14.0004C19.8881 14.3145 20.2595 14.5634 20.6686 14.733C21.0776 14.9026 21.5163 14.9894 21.9591 14.9883H24.4566C24.756 14.9883 25.0432 15.1073 25.2549 15.3189C25.4667 15.5307 25.5856 15.8179 25.5856 16.1173C25.5856 16.4168 25.4667 16.7039 25.2549 16.9156C25.0432 17.1274 24.756 17.2463 24.4566 17.2463H21.961C21.2212 17.2485 20.4883 17.1038 19.8049 16.8207C19.1213 16.5376 18.5008 16.1217 17.9793 15.597Z" fill="#9CA3B1"/>
</g>
<path d="M3.40889 10.1437C3.43926 9.54806 3.04445 9.03685 2.52714 9.00189C2.00974 8.96692 1.56571 9.42136 1.53534 10.017L3.40889 10.1437ZM19.5066 17.7285L8.00832 17.7285V20H19.5066V17.7285ZM8.00832 17.7285C8.02808 17.7285 6.05869 17.6693 5.02808 16.7285C4.05317 15.8385 3.20858 14.0701 3.40889 10.1437L1.53534 10.017C1.3097 14.4389 2.16806 17.4885 4.02808 18.7285C5.59603 19.7738 6.56122 20 8.00832 20V17.7285Z" fill="#9CA3B1"/>
<mask id="mask1_3834_5541" style="mask-type:alpha" maskUnits="userSpaceOnUse" x="17" y="14" width="7" height="10">
<path d="M23.5281 23.2285H17.5066V14.1963H23.5281V23.2285Z" fill="#D9D9D9"/>
</mask>
<g mask="url(#mask1_3834_5541)">
<path d="M7.04881 8.63149L15.1675 16.7501C15.4796 17.0642 15.851 17.3133 16.2601 17.4829C16.6692 17.6524 17.1078 17.7392 17.5507 17.738H19.6864L18.3814 16.4331C18.2765 16.3282 18.1933 16.2037 18.1365 16.0667C18.0798 15.9297 18.0505 15.7828 18.0505 15.6345C18.0505 15.4862 18.0798 15.3393 18.1365 15.2023C18.1933 15.0653 18.2765 14.9408 18.3814 14.836C18.4863 14.7311 18.6108 14.6479 18.7478 14.5911C18.8848 14.5343 19.0317 14.5051 19.18 14.5051C19.3283 14.5051 19.4752 14.5343 19.6122 14.5911C19.7492 14.6479 19.8737 14.7311 19.9785 14.836L23.1906 18.0443C23.2985 18.152 23.384 18.28 23.4424 18.4208C23.5007 18.5616 23.5308 18.7125 23.5308 18.865C23.5308 19.0174 23.5007 19.1683 23.4424 19.3091C23.384 19.45 23.2985 19.5779 23.1906 19.6856L19.9781 22.8977C19.769 23.1068 19.4863 23.2256 19.1907 23.2285C18.895 23.2314 18.61 23.1182 18.397 22.9132C17.9411 22.4739 17.9519 21.7306 18.397 21.2832L19.6855 19.9952H17.5507C16.8114 19.9975 16.079 19.8531 15.3958 19.5705C14.7127 19.2879 14.0924 18.8726 13.5708 18.3487L5.45222 10.2281C5.14 9.91406 4.76858 9.66507 4.35952 9.49547C3.95046 9.32596 3.5118 9.23915 3.06902 9.24026H0.571503C0.272034 9.24026 -0.0150909 9.12123 -0.226847 8.90958C-0.438602 8.69782 -0.557526 8.4106 -0.557526 8.11123C-0.557526 7.81176 -0.438602 7.52464 -0.226847 7.31288C-0.0150909 7.10113 0.272034 6.9822 0.571503 6.9822H3.06711C3.80685 6.97999 4.53976 7.12471 5.2232 7.40782C5.90674 7.69093 6.52725 8.10681 7.04881 8.63149Z" fill="#9CA3B1"/>
</g>
</svg>
