<svg width="25" height="24" viewBox="0 0 25 24" fill="none" xmlns="http://www.w3.org/2000/svg">
<g id="Frame">
<g id="Group">
<path id="Vector" d="M17.1357 10.0476L5.46426 2.01953C4.98469 1.68893 4.4859 1.51445 4.05888 1.51445C3.12133 1.51445 2.49976 2.30081 2.49976 3.56624V20.4463C2.49976 21.0645 2.67951 21.581 2.946 21.9405C3.21656 22.3049 3.63985 22.4978 4.09714 22.4978C4.52399 22.4978 5.00306 22.323 5.48246 21.9929L17.1434 13.9648C17.893 13.4481 18.304 12.7528 18.3039 12.0059C18.3039 11.2593 17.8864 10.5639 17.1357 10.0476ZM21.4089 22.4925L21.3964 22.4923C21.3944 22.4923 21.3924 22.4925 21.3903 22.4925H21.4089ZM21.3745 1.50391L20.892 1.50527C20.2603 1.50527 19.7133 2.02021 19.7133 2.65284V21.3327C19.7133 21.966 20.2512 22.4859 20.8839 22.4859L21.3964 22.4923C22.0258 22.489 22.5 21.9646 22.5 21.3337V2.65165C22.5 2.01902 22.0068 1.50391 21.3745 1.50391Z" fill="#707A8F"/>
</g>
</g>
</svg>
