<svg xmlns="http://www.w3.org/2000/svg" width="24" height="24" viewBox="0 0 24 24" fill="none">
    <g clip-path="url(#clip0_10446_14757)">
        <path d="M17.5 17.359C18.0029 17.359 18.4853 17.1597 18.8414 16.8046C19.1976 16.4496 19.3984 15.9679 19.4 15.465C19.3997 15.2012 19.3473 14.9401 19.2459 14.6966C19.1445 14.4531 18.996 14.232 18.809 14.046L17.55 12.786V9.043C17.5499 8.31453 17.4062 7.59323 17.1272 6.92033C16.8481 6.24742 16.4392 5.63611 15.9238 5.12133C15.4083 4.60655 14.7965 4.19839 14.1232 3.9202C13.45 3.642 12.7285 3.49921 12 3.5C10.5304 3.5008 9.12115 4.08511 8.08212 5.12451C7.0431 6.16391 6.4593 7.57334 6.45903 9.043V12.783L5.20003 14.043C5.01289 14.229 4.86427 14.45 4.76268 14.6935C4.6611 14.937 4.60855 15.1982 4.60803 15.462C4.60962 15.9649 4.8105 16.4466 5.16665 16.8016C5.52279 17.1567 6.00516 17.356 6.50803 17.356L17.5 17.359Z" stroke="#000000" stroke-width="1.5" stroke-linecap="round" stroke-linejoin="round"/>
        <path d="M10.521 20.5H13.478" stroke="#000000" stroke-width="1.5" stroke-linecap="round" stroke-linejoin="round"/>
    </g>
    <defs>
        <clipPath id="clip0_10446_14757">
            <rect width="24" height="24" fill="white"/>
        </clipPath>
    </defs>
</svg>
