<svg width="25" height="24" viewBox="0 0 25 24" fill="none" xmlns="http://www.w3.org/2000/svg">
<path d="M7.86427 10.0476L19.5357 2.01953C20.0153 1.68893 20.5141 1.51445 20.9411 1.51445C21.8787 1.51445 22.5002 2.30081 22.5002 3.56624V20.4463C22.5002 21.0645 22.3205 21.581 22.054 21.9405C21.7834 22.3049 21.3602 22.4978 20.9029 22.4978C20.476 22.4978 19.9969 22.323 19.5175 21.9929L7.85662 13.9648C7.10699 13.4481 6.69595 12.7528 6.69612 12.0059C6.69612 11.2593 7.11362 10.5639 7.86427 10.0476ZM3.59115 22.4925L3.6036 22.4923C3.60564 22.4923 3.60764 22.4925 3.60968 22.4925H3.59115ZM3.6255 1.50391L4.10796 1.50527C4.73974 1.50527 5.28666 2.02021 5.28666 2.65284V21.3327C5.28666 21.966 4.74875 22.4859 4.11613 22.4859L3.6036 22.4923C2.97416 22.489 2.50004 21.9646 2.50004 21.3337V2.65165C2.50004 2.01902 2.99321 1.50391 3.6255 1.50391Z" fill="#707A8F"/>
</svg>
