<svg xmlns="http://www.w3.org/2000/svg" width="24" height="24" viewBox="0 0 24 24" fill="none">
    <g clip-path="url(#clip0_10446_14794)">
        <path d="M10 8H7" stroke="#000000" stroke-width="1.5" stroke-linecap="round" stroke-linejoin="round"/>
        <path d="M3 18.5V5.5C3 4.83696 3.26339 4.20107 3.73223 3.73223C4.20107 3.26339 4.83696 3 5.5 3H6C6.26522 3 6.51957 3.10536 6.70711 3.29289C6.89464 3.48043 7 3.73478 7 4V15C7 15.2652 6.89464 15.5196 6.70711 15.7071C6.51957 15.8946 6.26522 16 6 16H5.5C4.83696 16 4.20107 16.2634 3.73223 16.7322C3.26339 17.2011 3 17.837 3 18.5ZM3 18.5C3 19.163 3.26339 19.7989 3.73223 20.2678C4.20107 20.7366 4.83696 21 5.5 21H19C19.5304 21 20.0391 20.7893 20.4142 20.4142C20.7893 20.0391 21 19.5304 21 19V11" stroke="#000000" stroke-width="1.5" stroke-linecap="round" stroke-linejoin="round"/>
        <path d="M14.7495 12.6835L12.5708 12.9948C12.4942 13.0063 12.416 12.9997 12.3424 12.9756C12.2688 12.9515 12.2018 12.9106 12.1468 12.856C12.0918 12.8015 12.0503 12.7349 12.0256 12.6615C12.0009 12.5881 11.9937 12.5099 12.0045 12.4333C12.0937 11.8093 12.2271 10.8753 12.3165 10.2498C12.3777 9.82154 12.5762 9.42465 12.8821 9.11872L18.3795 3.62111C18.5764 3.4242 18.8102 3.26799 19.0674 3.16142C19.3247 3.05485 19.6004 3 19.8789 3C20.1574 3 20.4331 3.05485 20.6904 3.16142C20.9477 3.26799 21.1814 3.4242 21.3783 3.62111C21.776 4.0188 21.9994 4.55817 21.9994 5.12057C21.9994 5.68298 21.776 6.22235 21.3783 6.62004L15.8808 12.1178C15.5748 12.4238 15.1779 12.6223 14.7495 12.6835Z" stroke="#000000" stroke-width="1.5" stroke-linecap="round" stroke-linejoin="round"/>
    </g>
    <defs>
        <clipPath id="clip0_10446_14794">
            <rect width="24" height="24" fill="white"/>
        </clipPath>
    </defs>
</svg>
