<svg width="25" height="24" viewBox="0 0 25 24" fill="none" xmlns="http://www.w3.org/2000/svg">
<g clip-path="url(#clip0_3834_5528)">
<path d="M9.40302 8.47831L8.0849 7.16018C7.56519 6.63812 6.9471 6.2243 6.2664 5.94269C5.58571 5.66108 4.85592 5.51726 4.11927 5.51956L1.63068 5.51956C1.33231 5.51956 1.04616 5.63808 0.835185 5.84906C0.624207 6.06004 0.50568 6.34619 0.50568 6.64456C0.50568 6.94293 0.624206 7.22907 0.835185 7.44005C1.04616 7.65103 1.33231 7.76956 1.63068 7.76956L4.11927 7.76956C4.56053 7.76844 4.99762 7.85487 5.40524 8.02384C5.81286 8.19281 6.18291 8.44096 6.49396 8.75393L7.81255 10.0692C7.91671 10.1751 8.04079 10.2593 8.17764 10.317C8.3145 10.3746 8.46141 10.4046 8.60992 10.4052C8.75843 10.4059 8.90558 10.377 9.0429 10.3205C9.18022 10.2639 9.30499 10.1808 9.41 10.0758C9.51501 9.97074 9.59819 9.84598 9.65474 9.70866C9.71129 9.57134 9.7401 9.42418 9.73949 9.27567C9.73889 9.12717 9.70889 8.98025 9.65122 8.8434C9.59355 8.70654 9.50936 8.58246 9.40349 8.47831L9.40302 8.47831Z" fill="#9CA3B1"/>
<path d="M8.07685 16.8399L16.1665 8.75018C16.4776 8.4372 16.8476 8.18905 17.2553 8.02008C17.6629 7.85111 18.1 7.76468 18.5412 7.7658L20.6694 7.7658L19.369 9.06611C19.2645 9.17059 19.1816 9.29463 19.125 9.43116C19.0684 9.56769 19.0393 9.71403 19.0393 9.86182C19.0393 10.0096 19.0684 10.1559 19.125 10.2925C19.1816 10.429 19.2645 10.553 19.369 10.6575C19.4735 10.762 19.5976 10.845 19.7341 10.9015C19.8706 10.9581 20.017 10.9872 20.1647 10.9872C20.3125 10.9872 20.4589 10.9581 20.5954 10.9015C20.7319 10.845 20.856 10.762 20.9604 10.6575L24.1611 7.46065C24.2685 7.35329 24.3538 7.22582 24.4119 7.08551C24.4701 6.94519 24.5 6.7948 24.5 6.64291C24.5 6.49102 24.4701 6.34063 24.4119 6.20032C24.3538 6.06 24.2685 5.93253 24.1611 5.82518L20.96 2.62455C20.7517 2.4162 20.47 2.29787 20.1754 2.29498C19.8808 2.29208 19.5968 2.40486 19.3845 2.60908C18.9303 3.04689 18.9411 3.78752 19.3845 4.2333L20.6684 5.51674L18.5412 5.51674C17.8046 5.51444 17.0748 5.65826 16.3941 5.93987C15.7134 6.22148 15.0953 6.6353 14.5756 7.15736L6.48592 15.2489C6.17483 15.5619 5.80477 15.81 5.39716 15.979C4.98955 16.1479 4.55247 16.2344 4.11123 16.2333L1.62263 16.2333C1.32426 16.2333 1.03812 16.3518 0.827136 16.5628C0.616159 16.7738 0.497634 17.0599 0.497634 17.3583C0.497634 17.6567 0.616159 17.9428 0.827136 18.1538C1.03812 18.3648 1.32426 18.4833 1.62263 18.4833L4.10935 18.4833C4.84651 18.4855 5.57676 18.3413 6.2578 18.0592C6.93884 17.7771 7.55714 17.3626 8.07685 16.8399Z" fill="#9CA3B1"/>
<path d="M20.9604 21.3748L24.161 18.1756C24.2685 18.0682 24.3537 17.9407 24.4119 17.8003C24.4701 17.66 24.5 17.5095 24.5 17.3576C24.5 17.2057 24.4701 17.0552 24.4119 16.9149C24.3537 16.7745 24.2685 16.647 24.161 16.5396L20.9599 13.3413C20.7517 13.133 20.47 13.0147 20.1754 13.0118C19.8808 13.0089 19.5968 13.1217 19.3845 13.3259C18.9302 13.7632 18.941 14.5043 19.3845 14.9501L20.666 16.2312L18.5468 16.2312C18.1056 16.2323 17.6685 16.1459 17.2608 15.9769C16.8532 15.8079 16.4832 15.5598 16.1721 15.2468L14.7157 13.7904C14.5047 13.5791 14.2185 13.4602 13.9198 13.4599C13.6212 13.4597 13.3347 13.578 13.1234 13.789C12.912 14 12.7931 14.2863 12.7929 14.5849C12.7926 14.8835 12.911 15.17 13.122 15.3813L14.5812 16.8401C15.1009 17.3622 15.719 17.776 16.3997 18.0576C17.0804 18.3392 17.8102 18.483 18.5468 18.4807L20.6693 18.4807L19.369 19.781C19.2645 19.8855 19.1816 20.0096 19.125 20.1461C19.0684 20.2826 19.0393 20.429 19.0393 20.5767C19.0393 20.7245 19.0684 20.8709 19.125 21.0074C19.1816 21.1439 19.2645 21.268 19.369 21.3724C19.4733 21.4771 19.5972 21.5602 19.7337 21.617C19.8701 21.6738 20.0164 21.7031 20.1642 21.7033C20.312 21.7035 20.4584 21.6746 20.595 21.6183C20.7316 21.5619 20.8558 21.4792 20.9604 21.3748Z" fill="#9CA3B1"/>
</g>
<defs>
<clipPath id="clip0_3834_5528">
<rect width="24" height="24" fill="white" transform="translate(24.5) rotate(90)"/>
</clipPath>
</defs>
</svg>
