<svg width="24" height="24" viewBox="0 0 24 24" fill="none" xmlns="http://www.w3.org/2000/svg">
<path d="M9.70848 9.42239L8.56648 8.34322C8.11622 7.9158 7.58072 7.57701 6.99098 7.34645C6.40124 7.11589 5.76896 6.99814 5.13075 7.00002L2.97468 7.00002C2.71618 7.00002 2.46826 7.09706 2.28548 7.26979C2.10269 7.44252 2 7.6768 2 7.92107C2 8.16535 2.10269 8.39962 2.28548 8.57235C2.46826 8.74508 2.71618 8.84212 2.97468 8.84212L5.13075 8.84212C5.51304 8.84121 5.89172 8.91197 6.24488 9.0503C6.59803 9.18864 6.91864 9.39181 7.18813 9.64804L8.33053 10.7249C8.42077 10.8116 8.52827 10.8805 8.64684 10.9277C8.7654 10.9749 8.89269 10.9995 9.02135 11C9.15002 11.0005 9.27751 10.9769 9.39648 10.9306C9.51545 10.8843 9.62354 10.8162 9.71452 10.7302C9.8055 10.6443 9.87757 10.5421 9.92656 10.4297C9.97556 10.3173 10.0005 10.1968 9.99999 10.0752C9.99947 9.95362 9.97347 9.83333 9.92351 9.72129C9.87355 9.60924 9.80061 9.50766 9.70889 9.42239L9.70848 9.42239Z" fill="white"/>
<path d="M8.31539 15.6802L15.0561 9.18385C15.3153 8.93252 15.6237 8.73324 15.9633 8.59755C16.303 8.46186 16.6672 8.39246 17.0348 8.39336L18.8081 8.39336L17.7246 9.43757C17.6375 9.52146 17.5684 9.62108 17.5213 9.73072C17.4741 9.84035 17.4499 9.95787 17.4499 10.0766C17.4499 10.1952 17.4741 10.3127 17.5213 10.4224C17.5684 10.532 17.6375 10.6316 17.7246 10.7155C17.8117 10.7995 17.915 10.8661 18.0288 10.9115C18.1426 10.9569 18.2645 10.9803 18.3876 10.9803C18.5108 10.9803 18.6327 10.9569 18.7465 10.9115C18.8602 10.8661 18.9636 10.7995 19.0507 10.7155L21.7176 8.1483C21.8071 8.0621 21.8781 7.95973 21.9266 7.84705C21.9751 7.73437 22 7.6136 22 7.49163C22 7.36966 21.9751 7.24888 21.9266 7.1362C21.8781 7.02353 21.8071 6.92116 21.7176 6.83495L19.0503 4.26471C18.8767 4.09739 18.642 4.00237 18.3965 4.00004C18.1511 3.99772 17.9144 4.08829 17.7375 4.25228C17.359 4.60387 17.368 5.19862 17.7375 5.5566L18.8073 6.58726L17.0348 6.58726C16.421 6.58542 15.8129 6.70091 15.2457 6.92706C14.6786 7.1532 14.1635 7.48551 13.7305 7.90475L6.98974 14.4026C6.73053 14.6539 6.42218 14.8532 6.08254 14.9889C5.74289 15.1246 5.3787 15.194 5.01103 15.1931L2.93741 15.1931C2.68879 15.1931 2.45036 15.2883 2.27456 15.4577C2.09876 15.6272 2 15.857 2 16.0966C2 16.3362 2.09876 16.5659 2.27456 16.7354C2.45036 16.9048 2.68879 17 2.93741 17L5.00947 17C5.6237 17.0017 6.23219 16.8859 6.79967 16.6594C7.36715 16.4329 7.88234 16.1 8.31539 15.6802Z" fill="white"/>
<path d="M18.9765 19.7354L21.7105 17.1588C21.8023 17.0723 21.8751 16.9696 21.9247 16.8566C21.9744 16.7436 22 16.6224 22 16.5001C22 16.3777 21.9744 16.2565 21.9247 16.1435C21.8751 16.0305 21.8023 15.9278 21.7105 15.8413L18.9761 13.2655C18.7982 13.0977 18.5576 13.0024 18.306 13C18.0543 12.9977 17.8118 13.0885 17.6304 13.253C17.2424 13.6052 17.2516 14.2021 17.6304 14.5611L18.7251 15.5929L16.9149 15.5929C16.538 15.5938 16.1646 15.5242 15.8165 15.3881C15.4683 15.252 15.1522 15.0522 14.8865 14.8001L13.6424 13.6271C13.4622 13.4569 13.2177 13.3612 12.9626 13.361C12.7075 13.3608 12.4628 13.4561 12.2823 13.626C12.1018 13.7959 12.0002 14.0265 12 14.267C11.9998 14.5075 12.1009 14.7382 12.2811 14.9084L13.5275 16.0833C13.9715 16.5037 14.4994 16.837 15.0809 17.0638C15.6623 17.2906 16.2857 17.4064 16.9149 17.4046L18.7279 17.4046L17.6172 18.4518C17.5279 18.536 17.4571 18.6359 17.4088 18.7458C17.3604 18.8558 17.3356 18.9737 17.3356 19.0927C17.3356 19.2117 17.3604 19.3296 17.4088 19.4395C17.4571 19.5495 17.5279 19.6494 17.6172 19.7335C17.7063 19.8178 17.8122 19.8847 17.9287 19.9305C18.0453 19.9762 18.1702 19.9998 18.2965 20C18.4227 20.0002 18.5477 19.9769 18.6644 19.9315C18.7811 19.8861 18.8872 19.8195 18.9765 19.7354Z" fill="white"/>
</svg>
