<svg width="14" height="14" viewBox="0 0 14 14" fill="none" xmlns="http://www.w3.org/2000/svg">
<path d="M6.45207 1.30934C6.6257 0.919804 6.71254 0.725037 6.83345 0.665059C6.93845 0.612949 7.06175 0.612949 7.16675 0.665059C7.28764 0.725037 7.3745 0.919804 7.54812 1.30934L8.93112 4.41204C8.9825 4.52719 9.00814 4.58477 9.04789 4.62886C9.08299 4.66788 9.12597 4.69908 9.17389 4.72044C9.22812 4.74459 9.29082 4.75121 9.41622 4.76444L12.7944 5.121C13.2186 5.16576 13.4306 5.18814 13.525 5.28458C13.607 5.36835 13.6451 5.48565 13.628 5.60163C13.6083 5.73513 13.4499 5.87785 13.1331 6.16338L10.6096 8.43753C10.516 8.5219 10.4691 8.56413 10.4395 8.6155C10.4133 8.66103 10.3968 8.7115 10.3914 8.7637C10.3851 8.82273 10.3982 8.88438 10.4244 9.00775L11.1292 12.3308C11.2177 12.748 11.262 12.9566 11.1994 13.0761C11.145 13.1801 11.0453 13.2525 10.9297 13.2721C10.7967 13.2946 10.6119 13.1881 10.2425 12.975L7.29987 11.2778C7.19067 11.2148 7.13607 11.1834 7.07802 11.171C7.02664 11.1601 6.97354 11.1601 6.92217 11.171C6.86412 11.1834 6.80952 11.2148 6.70032 11.2778L3.75771 12.975C3.38827 13.1881 3.20356 13.2946 3.0705 13.2721C2.95492 13.2525 2.85514 13.1801 2.80081 13.0761C2.73826 12.9566 2.78251 12.748 2.871 12.3308L3.57582 9.00775C3.60198 8.88438 3.61506 8.82273 3.60885 8.7637C3.60335 8.7115 3.58695 8.66103 3.5607 8.6155C3.53104 8.56413 3.48421 8.5219 3.39055 8.43753L0.867089 6.16338C0.550282 5.87785 0.391875 5.73513 0.37218 5.60163C0.35508 5.48565 0.393187 5.36835 0.475192 5.28458C0.569602 5.18814 0.781664 5.16576 1.20579 5.121L4.58401 4.76444C4.70939 4.75121 4.77208 4.74459 4.82629 4.72044C4.87425 4.69908 4.91719 4.66788 4.95234 4.62886C4.99205 4.58477 5.01772 4.52719 5.06905 4.41204L6.45207 1.30934Z" fill="#FBB448"/>
</svg>
