<svg width="24" height="24" viewBox="0 0 24 24" fill="none" xmlns="http://www.w3.org/2000/svg">
<path d="M6.33822 14.8444C6.45542 13.874 6.85342 13.3307 7.60344 12.7737C8.67659 12.0194 10.0171 12.4461 10.0171 12.4461V9.91469C10.343 9.90636 10.669 9.92568 10.9914 9.97241V13.23C10.9914 13.23 9.65125 12.8033 8.57811 13.5581C7.82849 14.1147 7.42967 14.6584 7.31288 15.6288C7.30922 16.1558 7.40811 16.8446 7.86349 17.4402C7.7509 17.3824 7.63614 17.3167 7.51921 17.2428C6.51606 16.5692 6.33333 15.5586 6.33822 14.8444ZM16.5264 5.23418C15.7882 4.42523 15.509 3.60848 15.4081 3.03473H16.3367C16.3367 3.03473 16.1516 4.53912 17.501 6.01855L17.5198 6.03845C17.1561 5.80967 16.8225 5.53962 16.5264 5.23418ZM21.0001 7.52763V10.7197C21.0001 10.7197 19.815 10.6733 18.938 10.4502C17.7135 10.1382 16.9264 9.6596 16.9264 9.6596C16.9264 9.6596 16.3827 9.31831 16.3388 9.29452V15.8862C16.3388 16.2533 16.2383 17.1699 15.9318 17.9344C15.5318 18.9344 14.9144 19.5909 14.8009 19.725C14.8009 19.725 14.05 20.6124 12.7254 21.2099C11.5314 21.749 10.4831 21.7353 10.1697 21.749C10.1697 21.749 8.35754 21.8207 6.72686 20.761C6.37424 20.5274 6.04508 20.2629 5.74365 19.9708L5.75179 19.9766C7.38287 21.0364 9.19465 20.9646 9.19465 20.9646C9.50841 20.9509 10.5567 20.9646 11.7503 20.4256C13.0738 19.828 13.8258 18.9407 13.8258 18.9407C13.9381 18.8065 14.5583 18.15 14.9567 17.1496C15.2624 16.3855 15.3637 15.4685 15.3637 15.1015V8.51053C15.4077 8.53472 15.9509 8.876 15.9509 8.876C15.9509 8.876 16.7384 9.35498 17.9629 9.66662C18.8403 9.88973 20.025 9.93614 20.025 9.93614V7.4348C20.4303 7.52568 20.7758 7.55025 21.0001 7.52763Z" fill="#EE1D52"/>
<path d="M20.0252 7.4348V9.93536C20.0252 9.93536 18.8405 9.88894 17.9631 9.66584C16.7386 9.35381 15.9511 8.87522 15.9511 8.87522C15.9511 8.87522 15.4078 8.53394 15.3639 8.50975V15.1023C15.3639 15.4693 15.2634 16.3863 14.9569 17.1504C14.5569 18.1508 13.9395 18.8073 13.826 18.9414C13.826 18.9414 13.0748 19.8288 11.7505 20.4263C10.5569 20.9654 9.5086 20.9517 9.19483 20.9654C9.19483 20.9654 7.38306 21.0371 5.75198 19.9774L5.74384 19.9715C5.57163 19.8048 5.40953 19.6287 5.25834 19.4442C4.73784 18.8096 4.41879 18.0592 4.33862 17.845C4.33848 17.8441 4.33848 17.8432 4.33862 17.8423C4.20961 17.4702 3.93858 16.5766 3.97561 15.7111C4.04113 14.1841 4.57831 13.2468 4.72034 13.012C5.09649 12.3717 5.58572 11.7988 6.16626 11.3188C6.67855 10.9047 7.25921 10.5751 7.88443 10.3437C8.56032 10.0721 9.28407 9.92644 10.0169 9.91469V12.4461C10.0169 12.4461 8.67637 12.0209 7.60363 12.7737C6.85361 13.3307 6.45561 13.874 6.3384 14.8444C6.33352 15.5586 6.51624 16.5692 7.51858 17.2432C7.63551 17.3173 7.75027 17.3831 7.86286 17.4406C8.03797 17.6682 8.2511 17.8665 8.49365 18.0276C9.47278 18.6473 10.2932 18.6906 11.3423 18.2881C12.0419 18.019 12.5685 17.4125 12.8127 16.7404C12.9661 16.3207 12.9641 15.8983 12.9641 15.4615V3.03473H15.4058C15.5067 3.60848 15.7859 4.42523 16.5241 5.23418C16.8203 5.53962 17.1538 5.80967 17.5175 6.03845C17.6249 6.14961 18.1743 6.69918 18.8796 7.03656C19.2443 7.21096 19.6286 7.34458 20.0252 7.4348Z" fill="#10151A"/>
<path d="M3.36719 17.0677V17.0697L3.42778 17.2339C3.42082 17.2148 3.3983 17.1567 3.36719 17.0677Z" fill="#69C9D0"/>
<path d="M7.88462 10.3438C7.2594 10.5752 6.67874 10.9047 6.16645 11.3189C5.58572 11.7999 5.09662 12.374 4.72094 13.0156C4.57891 13.2496 4.04173 14.1876 3.97621 15.7147C3.93917 16.5802 4.21021 17.4738 4.33921 17.8459C4.33907 17.8468 4.33907 17.8477 4.33921 17.8486C4.4206 18.0608 4.73844 18.8112 5.25893 19.4478C5.41013 19.6323 5.57223 19.8083 5.74443 19.9751C5.19268 19.6094 4.7006 19.1672 4.28427 18.663C3.76825 18.0339 3.45001 17.2912 3.36699 17.072C3.36689 17.0704 3.36689 17.0689 3.36699 17.0673V17.0646C3.23758 16.6929 2.96573 15.7989 3.00358 14.9322C3.0691 13.4052 3.60628 12.4679 3.74831 12.2331C4.12388 11.5915 4.613 11.0174 5.19382 10.5365C5.706 10.1221 6.28669 9.79258 6.91199 9.56135C7.30202 9.40625 7.70833 9.29183 8.12391 9.22006C8.7502 9.11528 9.38985 9.1062 10.0191 9.19315V9.91473C9.2856 9.92623 8.56114 10.0719 7.88462 10.3438Z" fill="#69C9D0"/>
<path d="M15.4079 3.03475H12.9661V15.4619C12.9661 15.8987 12.9661 16.32 12.8147 16.7408C12.5681 17.4125 12.0435 18.019 11.3444 18.2881C10.2948 18.6922 9.47442 18.6474 8.49569 18.0276C8.25273 17.8673 8.03905 17.6696 7.86328 17.4425C8.69714 17.8688 9.44349 17.8614 10.3681 17.5057C11.0668 17.2366 11.5922 16.6301 11.838 15.958C11.9919 15.5383 11.9898 15.1159 11.9898 14.6795V2.24998H15.3615C15.3615 2.24998 15.3236 2.5589 15.4079 3.03475ZM20.0252 6.74327V7.43482C19.6294 7.34446 19.2457 7.21084 18.8816 7.03659C18.1764 6.6992 17.627 6.14963 17.5196 6.03847C17.6442 6.11692 17.7736 6.18829 17.907 6.25221C18.7644 6.66254 19.6089 6.78501 20.0252 6.74327Z" fill="#69C9D0"/>
</svg>
