<svg width="24" height="24" viewBox="0 0 24 24" fill="none" xmlns="http://www.w3.org/2000/svg">
<g clip-path="url(#clip0_3834_5573)">
<path d="M12.0072 19.4811C12.0073 19.688 11.9484 19.8907 11.8374 20.0654C11.7264 20.24 11.568 20.3794 11.3806 20.4673C11.1934 20.5554 10.985 20.5883 10.7797 20.5622C10.5745 20.5361 10.3809 20.4521 10.2216 20.32L4.26329 15.3826H1.08988C0.946755 15.3827 0.805022 15.3546 0.672779 15.2998C0.540535 15.2451 0.420372 15.1649 0.319158 15.0637C0.217943 14.9625 0.137661 14.8423 0.082898 14.7101C0.0281354 14.5779 -3.38766e-05 14.4362 3.05739e-08 14.293V9.9508C2.24806e-08 9.66173 0.114818 9.38448 0.319202 9.18005C0.523586 8.97562 0.8008 8.86074 1.08988 8.86067H4.26355L10.2219 3.92333C10.3811 3.7911 10.5747 3.70705 10.78 3.68105C10.9853 3.65505 11.1938 3.68818 11.3809 3.77655C11.5682 3.86448 11.7266 4.00392 11.8375 4.17856C11.9485 4.3532 12.0075 4.55582 12.0075 4.76273L12.0072 19.4811ZM16.1957 17.7781C16.0398 17.7894 15.8833 17.767 15.7368 17.7124C15.5903 17.6579 15.4573 17.5724 15.3468 17.4618L15.201 17.3155C15.016 17.1309 14.9036 16.8859 14.8843 16.6252C14.865 16.3646 14.94 16.1056 15.0958 15.8957C15.9083 14.8058 16.3459 13.4818 16.3427 12.1223C16.3427 10.6504 15.8537 9.26979 14.9281 8.12961C14.758 7.92046 14.6715 7.65567 14.6854 7.38644C14.6993 7.11722 14.8125 6.86271 15.0032 6.67214L15.1486 6.5264C15.3664 6.30868 15.6581 6.19002 15.9739 6.20885C16.126 6.21648 16.2749 6.25589 16.4109 6.32453C16.5469 6.39317 16.667 6.48953 16.7635 6.60739C18.0473 8.17837 18.7255 10.0857 18.7255 12.1226C18.7255 14.0196 18.1258 15.8253 16.9907 17.3437C16.8971 17.4688 16.7776 17.5724 16.6405 17.6473C16.5033 17.7223 16.3516 17.7668 16.1957 17.7781ZM20.7017 21.1462C20.6043 21.2614 20.4841 21.3551 20.3486 21.4214C20.2131 21.4877 20.0654 21.5253 19.9147 21.5316C19.764 21.538 19.6136 21.513 19.473 21.4583C19.3325 21.4036 19.2048 21.3204 19.098 21.2138L18.9548 21.0706C18.762 20.8777 18.6485 20.6195 18.6367 20.3469C18.625 20.0744 18.7158 19.8073 18.8914 19.5985C20.6506 17.5043 21.6158 14.8573 21.6175 12.1223C21.6187 9.28536 20.5804 6.54629 18.6989 4.423C18.5152 4.21539 18.4174 3.94556 18.4256 3.66843C18.4337 3.39129 18.5472 3.12767 18.7428 2.93122L18.8857 2.78805C18.9896 2.6812 19.1149 2.59745 19.2533 2.54225C19.3918 2.48704 19.5403 2.46163 19.6892 2.46767C19.8378 2.47197 19.9839 2.50662 20.1186 2.56948C20.2533 2.63234 20.3737 2.72209 20.4724 2.83319C22.7466 5.39284 24.0018 8.69833 24 12.1223C23.9991 15.4251 22.8309 18.6213 20.7017 21.1462Z" fill="#707A8F"/>
</g>
<defs>
<clipPath id="clip0_3834_5573">
<rect width="24" height="24" fill="white"/>
</clipPath>
</defs>
</svg>
