<svg width="17" height="18" viewBox="0 0 17 18" fill="none" xmlns="http://www.w3.org/2000/svg">
<path d="M11.1602 9.76786C11.3388 9.66667 11.4281 9.50595 11.4281 9.28571C11.4281 9.06548 11.3388 8.90476 11.1602 8.80357L6.5888 5.94643C6.40427 5.82738 6.21082 5.82143 6.00844 5.92857C5.81201 6.03571 5.7138 6.20238 5.7138 6.42857V12.1429C5.7138 12.369 5.81201 12.5357 6.00844 12.6429C6.10368 12.6905 6.19594 12.7143 6.28523 12.7143C6.40427 12.7143 6.50546 12.6845 6.5888 12.625L11.1602 9.76786ZM15.9906 7.94643C15.9965 8.26786 15.9995 8.71429 15.9995 9.28571C15.9995 9.85714 15.9965 10.3036 15.9906 10.625C15.9846 10.9464 15.9578 11.3542 15.9102 11.8482C15.8686 12.3363 15.8031 12.7738 15.7138 13.1607C15.6186 13.5952 15.4132 13.9613 15.0977 14.2589C14.7823 14.5565 14.4132 14.7292 13.9906 14.7768C12.6692 14.9256 10.6721 15 7.99951 15C5.32689 15 3.32987 14.9256 2.00844 14.7768C1.58582 14.7292 1.2138 14.5565 0.892369 14.2589C0.576893 13.9613 0.371536 13.5952 0.276297 13.1607C0.192964 12.7738 0.127488 12.3363 0.0798689 11.8482C0.0382022 11.3542 0.0143927 10.9464 0.00844029 10.625C0.00248791 10.3036 -0.000488281 9.85714 -0.000488281 9.28571C-0.000488281 8.71429 0.00248791 8.26786 0.00844029 7.94643C0.0143927 7.625 0.0382022 7.22024 0.0798689 6.73214C0.127488 6.23809 0.19594 5.79762 0.285226 5.41071C0.380464 4.97619 0.585821 4.61012 0.901297 4.3125C1.21677 4.01488 1.58582 3.84226 2.00844 3.79464C3.32987 3.64583 5.32689 3.57143 7.99951 3.57143C10.6721 3.57143 12.6692 3.64583 13.9906 3.79464C14.4132 3.84226 14.7823 4.01488 15.0977 4.3125C15.4192 4.61012 15.6275 4.97619 15.7227 5.41071C15.8061 5.79762 15.8686 6.23809 15.9102 6.73214C15.9578 7.22024 15.9846 7.625 15.9906 7.94643Z" fill="#6A6A6A"/>
</svg>
