<svg width="1096" height="919" viewBox="0 0 1096 919" fill="none" xmlns="http://www.w3.org/2000/svg">
<g clip-path="url(#clip0_2167_15528)">
<path fill-rule="evenodd" clip-rule="evenodd" d="M507.675 59.9766H413.475H330.868H122.008C54.6247 59.9766 0 114.601 0 181.984V201.758C0 258.22 45.7716 303.991 102.234 303.991C167.403 303.991 220.234 356.822 220.234 421.991V430.007C220.234 495.176 167.403 548.007 102.234 548.007C45.7716 548.007 0 593.778 0 650.24V670.014C0 737.397 54.6247 792.022 122.008 792.022H330.868H413.475H507.675H588.325H682.524H765.131H973.992C1041.37 792.022 1096 737.397 1096 670.014V650.24C1096 593.778 1050.23 548.007 993.766 548.007C928.596 548.007 875.766 494.27 875.766 429.101C875.766 363.931 928.596 310.195 993.766 310.195C1050.23 310.195 1096 264.424 1096 207.961V185.086C1096 115.99 1039.99 59.9766 970.89 59.9766H765.131H682.524H588.325H507.675Z" fill="#D9D9D9"/>
<path d="M604.984 473.133C604.984 479.916 602.289 486.421 597.493 491.217C592.697 496.013 586.192 498.708 579.409 498.708H221.362C214.579 498.708 208.074 496.013 203.278 491.217C198.482 486.421 195.787 479.916 195.787 473.133V38.3619C195.787 31.579 198.482 25.074 203.278 20.2778C208.074 15.4816 214.579 12.7871 221.362 12.7871H477.11L604.984 140.661V473.133Z" fill="#E6E6E6"/>
<path d="M598.566 140.661H502.685C495.902 140.661 489.397 137.966 484.601 133.17C479.805 128.374 477.11 121.869 477.11 115.086V19.1562" fill="#E6E6E6"/>
<path d="M221.362 0C211.207 0.0632713 201.487 4.12531 194.306 11.3059C187.125 18.4866 183.063 28.2074 183 38.3622V473.133C183.063 483.288 187.125 493.009 194.306 500.19C201.487 507.37 211.207 511.432 221.362 511.496H579.409C589.564 511.432 599.285 507.37 606.465 500.19C613.646 493.009 617.708 483.288 617.771 473.133V140.661C617.762 137.274 616.408 134.028 614.007 131.638L486.134 3.76384C483.743 1.36348 480.498 0.00980404 477.11 0H221.362ZM221.362 25.5748H464.323V115.087C464.386 125.241 468.448 134.962 475.629 142.143C482.809 149.323 492.53 153.385 502.685 153.449H592.196V473.133C592.196 480.372 586.599 485.921 579.409 485.921H221.362C219.676 485.947 218.001 485.634 216.438 485.001C214.875 484.367 213.455 483.426 212.262 482.234C211.069 481.041 210.129 479.621 209.495 478.058C208.862 476.494 208.549 474.82 208.575 473.133V38.3622C208.575 31.124 214.172 25.5748 221.362 25.5748ZM489.897 43.6701L574.101 127.874H502.685C500.998 127.9 499.324 127.587 497.761 126.954C496.197 126.32 494.777 125.379 493.585 124.187C492.392 122.994 491.451 121.574 490.818 120.011C490.184 118.447 489.871 116.773 489.897 115.087V43.6701ZM291.717 127.874C288.326 127.874 285.073 129.221 282.675 131.619C280.277 134.017 278.93 137.27 278.93 140.661C278.93 144.053 280.277 147.305 282.675 149.703C285.073 152.101 288.326 153.449 291.717 153.449H406.803C410.195 153.449 413.447 152.101 415.846 149.703C418.244 147.305 419.591 144.053 419.591 140.661C419.591 137.27 418.244 134.017 415.846 131.619C413.447 129.221 410.195 127.874 406.803 127.874H291.717ZM291.717 204.598C288.326 204.598 285.073 205.945 282.675 208.344C280.277 210.742 278.93 213.994 278.93 217.386C278.93 220.777 280.277 224.03 282.675 226.428C285.073 228.826 288.326 230.173 291.717 230.173H509.103C512.494 230.173 515.747 228.826 518.145 226.428C520.543 224.03 521.89 220.777 521.89 217.386C521.89 213.994 520.543 210.742 518.145 208.344C515.747 205.945 512.494 204.598 509.103 204.598H291.717ZM291.717 281.323C288.326 281.323 285.073 282.67 282.675 285.068C280.277 287.466 278.93 290.719 278.93 294.11C278.93 297.501 280.277 300.754 282.675 303.152C285.073 305.55 288.326 306.897 291.717 306.897H509.103C512.494 306.897 515.747 305.55 518.145 303.152C520.543 300.754 521.89 297.501 521.89 294.11C521.89 290.719 520.543 287.466 518.145 285.068C515.747 282.67 512.494 281.323 509.103 281.323H291.717ZM291.717 358.047C288.326 358.047 285.073 359.394 282.675 361.792C280.277 364.19 278.93 367.443 278.93 370.834C278.93 374.226 280.277 377.478 282.675 379.876C285.073 382.274 288.326 383.622 291.717 383.622H509.103C512.494 383.622 515.747 382.274 518.145 379.876C520.543 377.478 521.89 374.226 521.89 370.834C521.89 367.443 520.543 364.19 518.145 361.792C515.747 359.394 512.494 358.047 509.103 358.047H291.717Z" fill="#AFAFAF"/>
<path d="M1000.7 844.159C1015.77 859.215 1015.77 883.643 1000.7 898.699C993.165 906.233 983.304 910 973.434 910C963.556 910 953.696 906.233 946.161 898.699L822 774.539C842.282 758.591 860.591 740.282 876.54 720L1000.7 844.159Z" fill="#7C7C7C"/>
<path d="M821.748 665L877 720.252C860.99 740.611 842.611 758.99 822.252 775L767 719.748V719.735C788.01 704.482 806.482 686.01 821.735 665H821.748Z" fill="#7C7C7C"/>
<path d="M857 512.5C857 563.162 840.636 610.083 812.918 648.244C798.517 668.078 781.078 685.517 761.244 699.918C723.083 727.636 676.162 744 625.5 744C497.846 744 394 640.154 394 512.5C394 384.846 497.846 281 625.5 281C753.154 281 857 384.846 857 512.5Z" fill="#D3D3D3"/>
<path d="M1009.98 835.515L838.964 664.494C866.825 622.528 881.5 573.93 881.5 523.25C881.5 381.954 766.546 267 625.25 267C483.954 267 369 381.954 369 523.25C369 664.546 483.954 779.5 625.25 779.5C675.931 779.5 724.529 764.823 766.494 736.965L813.765 784.237L813.786 784.258L937.513 907.985C947.197 917.668 960.065 923 973.748 923C987.435 923 1000.31 917.668 1009.98 907.989C1019.67 898.312 1025 885.443 1025 871.75C1025 858.058 1019.67 845.188 1009.98 835.515ZM787.349 721.579C800.602 710.739 812.739 698.602 823.579 685.349L859.929 721.699C848.869 734.751 836.751 746.869 823.699 757.929L787.349 721.579ZM394.625 523.25C394.625 396.083 498.083 292.625 625.25 292.625C752.417 292.625 855.875 396.083 855.875 523.25C855.875 572.162 840.691 618.917 811.964 658.467C797.62 678.239 780.24 695.619 760.468 709.963L760.465 709.966C720.917 738.691 674.162 753.875 625.25 753.875C498.083 753.875 394.625 650.417 394.625 523.25ZM991.865 889.866C987.022 894.709 980.591 897.375 973.748 897.375C966.913 897.375 960.478 894.709 955.634 889.866L841.866 776.097C854.845 764.958 866.957 752.846 878.095 739.867L991.865 853.639C996.708 858.475 999.378 864.905 999.378 871.75C999.378 878.595 996.708 885.025 991.865 889.866Z" fill="#AFAFAF"/>
<path d="M763.475 460.149C768.947 458.076 771.68 452.024 769.577 446.63C760.436 423.184 744.52 403.137 723.549 388.66C702.078 373.836 676.858 366 650.616 366C644.753 366 640 370.685 640 376.462C640 382.239 644.753 386.923 650.616 386.923C694.243 386.923 734.085 413.933 749.759 454.136C750.529 456.111 751.888 457.809 753.658 459.008C755.427 460.206 757.523 460.848 759.67 460.848C760.972 460.847 762.261 460.61 763.475 460.149ZM767.384 481.077C761.525 481.077 756.77 485.764 756.77 491.538C756.77 497.314 761.525 502 767.384 502C773.244 502 778 497.314 778 491.538C778 485.764 773.244 481.077 767.384 481.077Z" fill="#AFAFAF"/>
<path d="M625.5 592C620.839 592 616.37 590.149 613.075 586.854C609.779 583.56 607.928 579.092 607.928 574.433V555.46C607.754 547.675 610.108 540.043 614.639 533.709C619.169 527.375 625.631 522.679 633.056 520.326C639.675 518.256 645.221 513.678 648.505 507.571C651.789 501.463 652.551 494.313 650.628 487.652C649.397 483.49 647.145 479.702 644.076 476.634C641.006 473.565 637.218 471.314 633.056 470.085C629.042 468.999 624.834 468.846 620.753 469.638C616.672 470.429 612.825 472.145 609.51 474.652C606.315 477.089 603.721 480.223 601.925 483.816C600.127 487.408 599.176 491.365 599.142 495.381C599.142 500.04 597.291 504.509 593.996 507.802C590.701 511.097 586.231 512.948 581.571 512.948C576.91 512.948 572.441 511.097 569.146 507.802C565.851 504.509 564 500.04 564 495.381C564.019 483.983 567.207 472.814 573.208 463.122C579.21 453.43 587.787 445.597 597.983 440.497C608.18 435.397 619.594 433.232 630.951 434.242C642.307 435.253 653.159 439.399 662.295 446.218C671.43 453.037 678.49 462.262 682.685 472.861C686.881 483.459 688.046 495.016 686.052 506.238C684.058 517.461 678.983 527.909 671.393 536.415C663.803 544.92 653.998 551.149 643.071 554.406V574.433C643.071 579.092 641.22 583.56 637.925 586.854C634.629 590.149 630.16 592 625.5 592Z" fill="white"/>
<path d="M626.406 646.811C637.676 646.811 646.812 637.675 646.812 626.405C646.812 615.136 637.676 606 626.406 606C615.136 606 606 615.136 606 626.405C606 637.675 615.136 646.811 626.406 646.811Z" fill="white"/>
<path d="M625.5 725C736.785 725 827 634.785 827 523.5C827 412.215 736.785 322 625.5 322C514.215 322 424 412.215 424 523.5C424 634.785 514.215 725 625.5 725Z" stroke="#AFAFAF" stroke-width="19"/>
</g>
<defs>
<clipPath id="clip0_2167_15528">
<rect width="1096" height="919" fill="white"/>
</clipPath>
</defs>
</svg>
