<svg xmlns="http://www.w3.org/2000/svg" width="24" height="24" viewBox="0 0 24 24" fill="none">
    <g clip-path="url(#clip0_10233_16428)">
        <path d="M9.50101 12H17" stroke="#0B89B7" stroke-width="1.5" stroke-linecap="round" stroke-linejoin="round"/>
        <path d="M9.50101 15.4839H17" stroke="#0B89B7" stroke-width="1.5" stroke-linecap="round" stroke-linejoin="round"/>
        <path d="M9.50101 8.48389H17" stroke="#0B89B7" stroke-width="1.5" stroke-linecap="round" stroke-linejoin="round"/>
        <path d="M7.05 8.43408C7.022 8.43408 7 8.45708 7 8.48508C7 8.51308 7.023 8.53508 7.051 8.53508C7.079 8.53508 7.102 8.51208 7.102 8.48508C7.101 8.45708 7.078 8.43408 7.05 8.43408Z" stroke="#0B89B7" stroke-width="1.5" stroke-linecap="round" stroke-linejoin="round"/>
        <path d="M7.05 11.9492C7.022 11.9492 7 11.9722 7 12.0002C7 12.0282 7.023 12.0512 7.051 12.0512C7.079 12.0512 7.102 12.0282 7.102 12.0002C7.102 11.9722 7.078 11.9492 7.05 11.9492Z" stroke="#0B89B7" stroke-width="1.5" stroke-linecap="round" stroke-linejoin="round"/>
        <path d="M7.05 15.4341C7.022 15.4341 7 15.4571 7 15.4851C7 15.5131 7.023 15.5351 7.051 15.5351C7.079 15.5351 7.102 15.5121 7.102 15.4851C7.101 15.4571 7.078 15.4341 7.05 15.4341Z" stroke="#0B89B7" stroke-width="1.5" stroke-linecap="round" stroke-linejoin="round"/>
        <path d="M21 7V17C21 19.209 19.209 21 17 21H7C4.791 21 3 19.209 3 17V7C3 4.791 4.791 3 7 3H17C19.209 3 21 4.791 21 7Z" stroke="#0B89B7" stroke-width="1.5" stroke-linecap="round" stroke-linejoin="round"/>
    </g>
    <defs>
        <clipPath id="clip0_10233_16428">
            <rect width="24" height="24" fill="white"/>
        </clipPath>
    </defs>
</svg>
