<svg xmlns="http://www.w3.org/2000/svg" width="101" height="48" viewBox="0 0 101 48" fill="none">
    <path d="M47.3678 5.63548L46.8818 7.91918H46.1182L46.6041 5.63548H46.014L46.1529 4.96582H48.0967L47.9579 5.63548H47.3678Z" fill="#0B89B7"/>
    <path d="M49.1899 7.91918L48.7039 6.95762L48.4957 7.91918H47.7667L48.4089 4.96582H49.3461C49.4502 4.96582 49.5197 4.96582 49.5891 4.96582C49.6759 4.96582 49.7626 4.98299 49.8321 4.98299C50.0056 5.01733 50.1445 5.06884 50.2312 5.17187C50.4395 5.36075 50.4916 5.63548 50.4221 5.97889C50.3701 6.21928 50.2659 6.40816 50.0924 6.57987C49.9188 6.75158 49.7106 6.87177 49.4676 6.90611L50.0577 7.91918H49.1899ZM49.5891 5.72133C49.5197 5.65265 49.4155 5.63548 49.2593 5.63548H48.9816L48.8081 6.45967H49.0858C49.4155 6.45967 49.6238 6.32231 49.6759 6.0304C49.6932 5.89304 49.6759 5.79001 49.5891 5.72133Z" fill="#0B89B7"/>
    <path d="M52.1749 7.91918L52.1229 7.48992H51.0815L50.8385 7.91918H50.0228L51.8625 4.96582H52.47L53.0254 7.91918H52.1749ZM51.9493 5.89304L51.4113 6.90611H52.0361L51.9493 5.89304Z" fill="#0B89B7"/>
    <path d="M55.1604 7.91975L54.4141 6.11683H54.3968L54.0323 7.90258H53.3033L53.9455 4.94922H54.605L55.3687 6.80366H55.386L55.7505 4.94922H56.4794L55.8373 7.90258H55.1604V7.91975Z" fill="#0B89B7"/>
    <path d="M58.0588 7.7478C57.8332 7.90234 57.5729 7.97102 57.2605 7.97102C56.9481 7.97102 56.7051 7.88517 56.5489 7.73063C56.3753 7.55892 56.3232 7.3357 56.3927 7.02663L56.41 6.92361H57.1737C57.1563 7.02663 57.1563 7.12965 57.191 7.19834C57.2257 7.28419 57.2952 7.31853 57.3993 7.31853C57.5902 7.31853 57.7117 7.23268 57.7464 7.0438C57.7638 6.95795 57.7464 6.88927 57.6943 6.83775C57.677 6.82058 57.6423 6.80341 57.6076 6.76907L57.5555 6.73473L57.2605 6.59736C57.1563 6.54585 57.0869 6.51151 57.0175 6.46C56.9307 6.40848 56.8786 6.35697 56.8266 6.28829C56.7051 6.13375 56.6704 5.96205 56.7224 5.756C56.7745 5.49844 56.9307 5.27522 57.191 5.12068C57.434 4.96614 57.677 4.89746 57.9547 4.89746C58.1109 4.89746 58.2497 4.9318 58.3712 4.98331C58.5101 5.03483 58.6142 5.12068 58.6836 5.24088C58.7704 5.39541 58.8051 5.58429 58.753 5.82468H58.0068C58.0241 5.6358 57.9547 5.53278 57.7985 5.53278C57.6249 5.53278 57.5208 5.61863 57.4861 5.77317C57.4687 5.82468 57.4687 5.87619 57.4861 5.89336C57.5034 5.94488 57.5902 6.01356 57.7291 6.08224L58.0068 6.21961C58.1109 6.27112 58.1803 6.32263 58.2497 6.35697C58.3192 6.40848 58.3886 6.47717 58.4406 6.52868C58.5448 6.66605 58.5795 6.83775 58.5274 7.06097C58.4406 7.37004 58.2844 7.59326 58.0588 7.7478Z" fill="#0B89B7"/>
    <path d="M59.8979 5.63686L59.7937 6.13481H60.6615L60.5227 6.80447H59.6549L59.4119 7.93774H58.683L59.3251 4.98438H60.9566L60.8177 5.65403H59.8979V5.63686Z" fill="#0B89B7"/>
    <path d="M63.3699 7.54159C63.0054 7.83349 62.5889 7.98803 62.155 7.98803C61.7211 7.98803 61.3913 7.85066 61.1484 7.55876C60.9054 7.26686 60.8186 6.90627 60.9054 6.49418C60.9574 6.27096 61.0442 6.06491 61.1657 5.85886C61.2351 5.75583 61.3219 5.63564 61.426 5.53262C61.8252 5.12052 62.2938 4.93164 62.8145 4.93164C63.2484 4.93164 63.5955 5.08618 63.8385 5.37808C64.0815 5.66998 64.1509 6.03057 64.0641 6.477C63.96 6.87193 63.7344 7.24969 63.3699 7.54159ZM63.2137 5.84169C63.0922 5.66998 62.9186 5.58413 62.6757 5.58413C62.4327 5.58413 62.2244 5.66998 62.0335 5.84169C61.8426 6.0134 61.7385 6.20227 61.6864 6.44266C61.6343 6.68305 61.669 6.8891 61.7732 7.06081C61.8947 7.23252 62.0682 7.31837 62.3112 7.31837C62.5368 7.31837 62.7624 7.23252 62.9534 7.06081C63.1443 6.8891 63.2484 6.70022 63.3005 6.45983C63.3525 6.20227 63.3178 6.0134 63.2137 5.84169Z" fill="#0B89B7"/>
    <path d="M65.5733 7.91918L65.0874 6.95762L64.8791 7.91918H64.1501L64.7923 4.96582H65.7295C65.8337 4.96582 65.9031 4.96582 65.9725 4.96582C66.0593 4.96582 66.1461 4.98299 66.2155 4.98299C66.389 5.01733 66.5279 5.06884 66.6147 5.17187C66.8229 5.36075 66.875 5.63548 66.8056 5.97889C66.7535 6.21928 66.6494 6.40816 66.4758 6.57987C66.3023 6.75158 66.094 6.87177 65.851 6.90611L66.4411 7.91918H65.5733ZM65.9725 5.72133C65.9031 5.65265 65.7989 5.63548 65.6427 5.63548H65.365L65.1915 6.45967H65.4692C65.7989 6.45967 66.0072 6.32231 66.0593 6.0304C66.094 5.89304 66.0593 5.79001 65.9725 5.72133Z" fill="#0B89B7"/>
    <path d="M69.2355 7.91918L69.7388 5.70416L68.628 7.91918H68.1247L67.9512 5.70416H67.9338L67.4826 7.91918H66.7883L67.4305 4.96582H68.4198L68.5933 6.90611L69.6 4.96582H70.5892L69.9471 7.91918H69.2355Z" fill="#0B89B7"/>
    <path d="M70.4854 7.91918L71.1275 4.96582H71.8912L71.249 7.91918H70.4854Z" fill="#0B89B7"/>
    <path d="M73.6264 7.91975L72.8801 6.11683H72.8627L72.4982 7.90258H71.7693L72.4115 4.94922H73.071L73.8346 6.80366H73.852L74.2164 4.94922H74.9454L74.3032 7.90258H73.6264V7.91975Z" fill="#0B89B7"/>
    <path d="M78.2259 6.39131C78.1218 6.83775 77.8962 7.21551 77.5317 7.52458C77.1672 7.83365 76.7507 7.97102 76.2994 7.97102C75.8656 7.97102 75.5184 7.81648 75.2755 7.52458C75.0325 7.23268 74.9631 6.85492 75.0498 6.42566C75.1366 5.99639 75.3796 5.61863 75.7614 5.32673C76.1259 5.03483 76.5424 4.89746 76.9763 4.89746C77.3061 4.89746 77.6011 5.00049 77.8267 5.18936C78.0697 5.39541 78.2086 5.6358 78.2433 5.94487H77.3929C77.3061 5.68731 77.1152 5.56712 76.8201 5.56712C76.5771 5.56712 76.3689 5.65297 76.178 5.82468C75.987 5.99639 75.8829 6.18527 75.8308 6.42566C75.7788 6.68322 75.8135 6.88926 75.9176 7.0438C76.0391 7.21551 76.2127 7.30136 76.4556 7.30136C76.6292 7.30136 76.7854 7.26702 76.9243 7.18117C77.0805 7.09531 77.1846 6.97512 77.2714 6.82058H76.3862L76.5077 6.21961H78.278C78.278 6.23678 78.278 6.27112 78.2606 6.30546L78.2259 6.39131Z" fill="#0B89B7"/>
    <path d="M81.1417 5.63548L80.6558 7.91918H79.8921L80.3781 5.63548H79.788L79.9268 4.96582H81.8707L81.7318 5.63548H81.1417Z" fill="#0B89B7"/>
    <path d="M84.179 7.54159C83.8145 7.83349 83.398 7.98803 82.9641 7.98803C82.5302 7.98803 82.2004 7.85066 81.9574 7.55876C81.7145 7.26686 81.6277 6.90627 81.7145 6.49418C81.7665 6.27096 81.8533 6.06491 81.9748 5.85886C82.0442 5.75583 82.131 5.63564 82.2351 5.53262C82.6343 5.12052 83.1029 4.93164 83.6236 4.93164C84.0575 4.93164 84.4046 5.08618 84.6476 5.37808C84.8906 5.66998 84.96 6.03057 84.8732 6.477C84.7864 6.87193 84.5608 7.24969 84.179 7.54159ZM84.0228 5.84169C83.9013 5.66998 83.7277 5.58413 83.4847 5.58413C83.2418 5.58413 83.0335 5.66998 82.8426 5.84169C82.6517 6.0134 82.5475 6.20227 82.4955 6.44266C82.4434 6.68305 82.4781 6.8891 82.5822 7.06081C82.7037 7.23252 82.8773 7.31837 83.1203 7.31837C83.3459 7.31837 83.5715 7.23252 83.7624 7.06081C83.9533 6.8891 84.0575 6.70022 84.1095 6.45983C84.1616 6.20227 84.1269 6.0134 84.0228 5.84169Z" fill="#0B89B7"/>
    <path d="M88.3443 6.39131C88.2402 6.83775 88.0146 7.21551 87.6501 7.52458C87.2856 7.83365 86.8691 7.97102 86.4179 7.97102C85.984 7.97102 85.6368 7.81648 85.3939 7.52458C85.1509 7.23268 85.0815 6.85492 85.1682 6.42566C85.255 5.99639 85.498 5.61863 85.8798 5.32673C86.2443 5.03483 86.6608 4.89746 87.0947 4.89746C87.4245 4.89746 87.7195 5.00049 87.9452 5.18936C88.1881 5.39541 88.327 5.6358 88.3617 5.94487H87.5113C87.4245 5.68731 87.2336 5.56712 86.9385 5.56712C86.6955 5.56712 86.4873 5.65297 86.2964 5.82468C86.1054 5.99639 86.0013 6.18527 85.9492 6.42566C85.8972 6.68322 85.9319 6.88926 86.036 7.0438C86.1575 7.21551 86.3311 7.30136 86.5741 7.30136C86.7476 7.30136 86.9038 7.26702 87.0427 7.18117C87.1989 7.09531 87.303 6.97512 87.3898 6.82058H86.5046L86.6261 6.21961H88.3964C88.3964 6.23678 88.3964 6.27112 88.379 6.30546L88.3443 6.39131Z" fill="#0B89B7"/>
    <path d="M88.4137 7.91918L89.0558 4.96582H90.722L90.5832 5.63548H89.6459L89.5418 6.09909H90.4443L90.3055 6.76875H89.403L89.2988 7.28387H90.2187L90.0798 7.95353H88.4137V7.91918Z" fill="#0B89B7"/>
    <path d="M92.1628 5.63548L91.6769 7.91918H90.9132L91.3992 5.63548H90.8091L90.9479 4.96582H92.8918L92.7529 5.63548H92.1628Z" fill="#0B89B7"/>
    <path d="M94.2973 7.91918L94.5577 6.7344H93.5858L93.3254 7.91918H92.5618L93.2039 4.96582H93.9676L93.7246 6.08192H94.6965L94.9395 4.96582H95.7032L95.061 7.91918H94.2973Z" fill="#0B89B7"/>
    <path d="M95.5991 7.91918L96.2413 4.96582H97.9074L97.7686 5.63548H96.8487L96.7446 6.09909H97.6471L97.5083 6.76875H96.5884L96.4843 7.28387H97.4041L97.2653 7.95353H95.5991V7.91918Z" fill="#0B89B7"/>
    <path d="M99.1575 7.91918L98.6716 6.95762L98.4633 7.91918H97.7344L98.3765 4.96582H99.3138C99.4179 4.96582 99.4873 4.96582 99.5567 4.96582C99.6435 4.96582 99.7303 4.98299 99.7997 4.98299C99.9733 5.01733 100.112 5.06884 100.199 5.17187C100.407 5.36075 100.459 5.63548 100.39 5.97889C100.338 6.21928 100.234 6.40816 100.06 6.57987C99.8865 6.75158 99.6782 6.87177 99.4352 6.90611L100.025 7.91918H99.1575ZM99.5567 5.72133C99.4873 5.65265 99.3832 5.63548 99.227 5.63548H98.9493L98.7757 6.45967H99.0534C99.3832 6.45967 99.5914 6.32231 99.6435 6.0304C99.6609 5.89304 99.6435 5.79001 99.5567 5.72133Z" fill="#0B89B7"/>
    <path d="M48.1147 24.3364L46.7089 29.5563H41.4327L43.984 20.1639C45.6675 13.8966 49.2602 10.7715 54.7619 10.7715H64.9845L59.9166 29.5563H54.6404L56.0463 24.3364H48.1147ZM56.862 21.1941L58.8405 13.8966H55.2132C52.3495 13.8966 50.3709 15.9914 49.2428 20.1639L48.9478 21.2113H56.862V21.1941Z" fill="#0B89B7"/>
    <path d="M67.8653 10.7715L67.0149 13.8966H72.9505L68.7331 29.5563H73.9919L78.2267 13.8966H81.802C82.6871 12.5744 83.6937 11.5442 84.7698 10.7715H67.8653Z" fill="#0B89B7"/>
    <path d="M87.3732 18.5838H97.1792L96.3288 21.7088H86.5228C86.4013 22.3098 86.3492 22.8249 86.3492 23.3057C86.3492 25.3834 87.3906 26.4136 89.4559 26.4136H96.3809L95.5304 29.5387H87.2865C83.0864 29.5387 80.9863 27.7186 80.9863 24.0612C80.9863 22.9279 81.1946 21.623 81.5938 20.1463C83.2773 13.879 86.8699 10.7539 92.3717 10.7539H100.616L99.7652 13.879H92.8403C90.3064 13.8961 88.4666 15.4587 87.3732 18.5838Z" fill="#0B89B7"/>
    <path d="M35.0803 10.8408H22.3065H22.0983H17.0304L14.67 19.5635L14.6006 19.8039C15.8328 21.2634 17.1866 22.7573 18.6445 24.2511V24.234L21.4214 13.9487H25.7256H25.743H26.6802L26.4893 14.6527C26.5413 14.7042 26.6108 14.7557 26.6628 14.8244C26.6108 14.7729 26.5413 14.7214 26.4893 14.6527L22.8098 28.2691V28.3034C23.2611 28.7155 23.695 29.1105 24.1462 29.5054H27.7215L30.5852 18.9111L30.6026 18.8424L30.8976 17.7434L31.9216 13.9487H32.9109C34.9415 13.9487 35.9655 15.0133 35.9655 17.1596C35.9655 18.001 35.8093 19.0141 35.4969 20.1817L34.9589 22.1735L34.9068 22.3624L34.5944 23.5128L34.4729 23.9592L32.9629 29.5226H37.4754H38.2217L38.4126 28.8529L38.6383 27.9944L38.8812 27.1187L40.7557 20.1817C41.1548 18.7222 41.3458 17.4172 41.3458 16.3011C41.3458 12.6781 39.2631 10.8408 35.0803 10.8408Z" fill="#0B89B7"/>
    <path d="M30.3591 17.9645C17.3944 5.13797 4.15198 -2.55452 0.784971 0.776603C-2.58204 4.10772 5.19333 17.209 18.1581 30.0355C31.1228 42.862 44.3652 50.5545 47.7322 47.2234C51.0992 43.8751 43.3239 30.791 30.3591 17.9645ZM43.2891 42.8277C39.9742 46.1073 28.7971 40.3551 18.3143 29.984C7.8314 19.6129 2.01723 8.55494 5.33217 5.27533C8.64711 1.99572 19.8242 7.74791 30.3071 18.119C40.7899 28.4901 46.5867 39.5481 43.2891 42.8277Z" fill="#0B89B7"/>
</svg>