<svg width="38" height="36" viewBox="0 0 38 36" fill="none" xmlns="http://www.w3.org/2000/svg">
<rect width="38" height="36" fill="white"/>
<path d="M37.6741 35.9835C37.5501 35.9892 37.4278 35.9986 37.3037 35.9986C31.6349 35.9986 25.9641 36.0004 20.2952 35.9986C14.0961 35.9986 7.89696 35.9948 1.69785 35.9929C1.25787 35.9929 0.817899 35.9967 0.379806 35.9967C0.270752 35.9967 0.159819 35.9873 0.0225625 35.9798C0.0131614 35.8369 0 35.7165 0 35.5981C0 24.2189 0.00375991 12.8379 0.00752037 1.45873C0.00752037 1.09961 0.0131612 0.740483 0.0150415 0.379479C0.0582867 0.370078 0.107173 0.370078 0.146658 0.349396C0.460656 0.195217 0.784055 0.146331 1.13002 0.212139C1.27291 0.238462 1.42145 0.234701 1.56811 0.234701C5.1067 0.234701 8.64529 0.238462 12.1839 0.234701C12.6558 0.234701 13.1278 0.200857 13.5997 0.183935C13.6674 0.182055 13.7351 0.189576 13.8009 0.193337C14.0133 0.208379 14.2258 0.236582 14.4402 0.238462C15.3088 0.244103 16.1756 0.229061 17.0443 0.245983C17.9205 0.262905 18.7966 0.178295 19.6728 0.230942C20.1974 0.262905 20.7239 0.214019 21.2541 0.230942C22.7827 0.276067 24.3132 0.21966 25.8438 0.234701C25.9885 0.234701 26.1352 0.210259 26.28 0.200858C26.3928 0.193337 26.5037 0.185815 26.6165 0.191456C26.8854 0.204618 27.1543 0.232822 27.4231 0.240343C28.5024 0.270426 29.5816 0.225301 30.6609 0.227181C31.2212 0.227181 31.7834 0.227181 32.3437 0.247864C33.0751 0.276067 33.8009 0.193337 34.5342 0.227181C35.5796 0.274187 36.6306 0.240342 37.6779 0.242222C37.7024 0.309911 37.7268 0.377599 37.7512 0.443407C37.7625 0.558101 37.8133 0.642712 37.9336 0.672795C37.9393 0.796891 37.9468 0.919106 37.9468 1.0432C37.9468 12.3754 37.9468 23.7056 37.9468 35.0378C37.9468 35.1393 37.9374 35.239 37.9317 35.3405C37.817 35.3536 37.7606 35.4176 37.7475 35.5323C37.7287 35.6827 37.7005 35.8331 37.676 35.9835H37.6741ZM27.3348 20.3738L27.3423 20.3607C27.3536 20.3118 27.363 20.261 27.3743 20.2121C27.3254 19.9846 27.2821 19.7609 27.4325 19.5447C27.4777 19.4807 27.4814 19.3698 27.4664 19.2871C27.4269 19.0708 27.4833 18.8715 27.5435 18.6704C27.5491 18.6008 27.5548 18.5312 27.5604 18.4617C27.5566 18.394 27.5247 18.3112 27.5529 18.2624C27.7465 17.9371 27.6281 17.5573 27.7522 17.2169C27.8462 16.9575 27.8744 16.6736 27.9233 16.399C28.0718 15.5661 28.1771 14.7219 28.3745 13.9002C28.5776 13.0522 28.8709 12.2268 29.1191 11.392C29.1793 11.1889 29.2188 10.9783 29.2676 10.7715L29.5384 10.0984C29.5685 10.0081 29.6004 9.91789 29.6305 9.82764C29.8298 9.38954 30.016 8.94393 30.2341 8.51336C30.6252 7.74246 31.0069 6.96405 31.4431 6.2176C32.0899 5.10826 32.8645 4.08541 33.6956 3.10581C33.8704 2.90087 34.066 2.71285 34.2352 2.50226C34.6733 1.95323 35.1753 1.47377 35.73 1.04696C35.8428 0.960471 35.9312 0.87022 35.9519 0.727322C35.9669 0.697239 35.9819 0.667155 35.997 0.637071C35.9725 0.637071 35.9481 0.637071 35.9255 0.635191C35.8597 0.62767 35.7958 0.620149 35.73 0.612628C35.6999 0.616389 35.6717 0.622029 35.6416 0.62579C35.6021 0.633311 35.5608 0.640831 35.5213 0.648352C35.4498 0.661514 35.3803 0.676556 35.3088 0.689718C35.2186 0.697238 35.1283 0.704759 35.0381 0.71228C34.9027 0.702879 34.7673 0.695358 34.6319 0.685957C34.5567 0.682197 34.4834 0.678436 34.4082 0.674675C33.8987 0.539299 33.5358 0.738603 33.2142 1.13157C32.9755 1.42677 32.6746 1.6712 32.4001 1.93819C32.1895 2.14126 31.9677 2.33492 31.7702 2.54927C30.9448 3.44237 30.172 4.37685 29.482 5.37901C28.6509 6.58612 27.9496 7.86468 27.3479 9.19776C27.316 9.26921 27.2972 9.3463 27.2727 9.41963C26.8252 10.3861 26.4529 11.3807 26.1784 12.4111C26.0957 12.7251 25.9754 13.0278 25.9002 13.3437C25.7328 14.0506 25.5636 14.7595 25.4339 15.474C25.2571 16.4517 25.1199 17.4369 24.9619 18.4184C24.9488 18.5049 24.9112 18.5895 24.8848 18.6741C24.8736 18.7136 24.8623 18.7531 24.8491 18.7926C24.8529 18.9486 24.8566 19.1047 24.8604 19.2608C24.8529 19.2871 24.8472 19.3134 24.8397 19.3378C24.7062 19.5296 24.7645 19.7365 24.7852 19.9414C24.7814 20.0128 24.7758 20.0824 24.772 20.1539C24.7288 20.2892 24.6836 20.4227 24.6404 20.5581C24.646 20.669 24.6498 20.7819 24.6554 20.8928C24.6235 21.047 24.569 21.1993 24.5652 21.3535C24.5614 21.5998 24.5915 21.8442 24.443 22.0698C24.3997 22.1356 24.4261 22.2447 24.4223 22.333C24.4185 22.4327 24.4279 22.5342 24.4129 22.632C24.3508 23.0739 24.2813 23.5138 24.2173 23.9557C24.1722 24.264 24.1478 24.578 24.0895 24.8845C24.0199 25.2568 23.894 25.6197 23.8526 25.9939C23.7642 26.7854 23.5612 27.5488 23.3581 28.3141C23.2697 28.6487 23.1475 28.9759 23.0723 29.3143C22.9313 29.9536 22.6944 30.5609 22.4405 31.157C22.0682 32.0219 21.632 32.8605 21.2221 33.7084C21.1808 33.7592 21.1338 33.8043 21.1018 33.8607C20.8254 34.3139 20.5923 34.799 20.1749 35.1543C20.1185 35.2032 20.0996 35.2972 20.0301 35.4345C20.2444 35.4345 20.3948 35.4364 20.5453 35.4383C20.5772 35.4326 20.6111 35.4289 20.643 35.4232C21.1056 35.4345 21.5681 35.4289 22.0269 35.4627C22.2939 35.4834 22.4894 35.4138 22.6398 35.1995C23.1024 34.5414 23.6552 33.9416 23.9598 33.1801C23.9955 33.0898 24.0651 33.0109 24.1158 32.9263C24.2399 32.7176 24.3621 32.5089 24.4862 32.3002C24.5502 32.1573 24.616 32.0144 24.678 31.8715C24.9074 31.3488 25.1857 30.8467 25.3455 30.2921C25.5786 29.4836 25.8832 28.6957 26.0938 27.8816C26.3288 26.9697 26.4981 26.0409 26.688 25.1177C26.7162 24.9767 26.6974 24.8262 26.7181 24.6815C26.735 24.563 26.7745 24.4464 26.8027 24.3299C26.8139 24.2434 26.8271 24.1569 26.8384 24.0704C26.8384 24.0253 26.8384 23.982 26.8384 23.9369C26.8384 23.9124 26.8403 23.8861 26.8422 23.8617C26.8666 23.6417 26.8892 23.4217 26.9211 23.2017C26.9343 23.1039 26.9719 23.0118 26.9982 22.9159C27.1016 22.8106 27.1054 22.7016 27.0208 22.5831C27.0189 22.4628 26.9662 22.3048 27.0227 22.2278C27.1731 22.0228 27.1336 21.8103 27.1392 21.5904C27.1411 21.4738 27.1956 21.3572 27.2257 21.2425C27.237 21.1974 27.2483 21.1541 27.2577 21.109C27.2633 20.9041 27.2708 20.6991 27.2765 20.4923C27.299 20.4528 27.3216 20.4115 27.3461 20.372L27.3348 20.3738ZM21.9178 13.0673V13.0767C21.8934 13.1406 21.8708 13.2045 21.8483 13.2703C21.7768 13.5787 21.7054 13.8889 21.6358 14.1973C21.617 14.2481 21.5982 14.2988 21.5813 14.3496C21.4854 14.7858 21.382 15.2183 21.2974 15.6564C21.2221 16.0399 21.1676 16.4272 21.1075 16.8146C21.0567 17.1436 21.0191 17.4745 20.9646 17.8036C20.9006 18.1871 20.8254 18.5688 20.754 18.9505C20.7502 18.9919 20.7464 19.0351 20.7427 19.0765C20.7013 19.4826 20.6637 19.8888 20.6186 20.293C20.613 20.3456 20.5791 20.3945 20.5565 20.4472C20.4437 20.6108 20.4889 20.7875 20.5171 20.9624C20.4494 21.3948 20.3798 21.8254 20.3121 22.2578C20.3065 22.4346 20.3008 22.6113 20.2952 22.7881C20.2613 22.9178 20.2294 23.0475 20.1955 23.1792L20.1899 23.275C20.1899 23.3352 20.1899 23.3954 20.1899 23.4555C20.188 23.4856 20.1861 23.5157 20.1843 23.5477C20.1391 23.8354 20.0978 24.123 20.047 24.4088C19.953 24.9334 19.8496 25.4561 19.7518 25.9788C19.6578 26.494 19.5901 27.0148 19.4679 27.5225C19.3024 28.2088 19.0956 28.8857 18.9057 29.5663C18.5579 30.8035 18.0427 31.9749 17.473 33.1218C17.2342 33.6031 16.9277 34.0525 16.6381 34.5057C16.5065 34.7125 16.3392 34.8967 16.1907 35.0923C16.1211 35.1844 16.0572 35.2784 15.9631 35.4119C16.1267 35.4326 16.2245 35.4552 16.3223 35.4571C16.8393 35.4646 17.3564 35.4608 17.8735 35.4759C18.0728 35.4815 18.2232 35.4213 18.3398 35.2634C18.5955 34.9212 18.8719 34.594 19.1069 34.2368C19.968 32.9281 20.6806 31.5499 21.1996 30.0627C21.4891 29.2335 21.6903 28.3836 21.9442 27.545C22.0325 27.2555 22.0965 26.9584 22.1566 26.6613C22.2657 26.1104 22.3766 25.5614 22.4631 25.0067C22.5176 24.6551 22.5308 24.296 22.5609 23.9406C22.5609 23.9162 22.5627 23.8899 22.5646 23.8654C22.5966 23.7714 22.6511 23.6755 22.653 23.5815C22.6568 23.3145 22.685 23.0569 22.7809 22.8069C22.7959 22.7674 22.7884 22.7185 22.7809 22.6734C22.715 22.2127 22.9914 21.7953 22.9538 21.3384C22.9538 21.3196 22.9764 21.2989 22.9802 21.2782C23.0008 21.1466 23.0215 21.015 23.0366 20.8834C23.0535 20.7292 23.061 20.5732 23.0723 20.4171C23.0855 20.2855 23.1005 20.1539 23.1137 20.0204C23.1475 19.8869 23.1832 19.7534 23.2171 19.6199C23.2246 19.5522 23.2302 19.4826 23.2378 19.4149C23.202 19.2382 23.1889 19.0709 23.281 18.8941C23.3336 18.7926 23.3186 18.6572 23.3336 18.535C23.3524 18.3808 23.36 18.2266 23.3863 18.0743C23.4371 17.7791 23.4972 17.4877 23.5518 17.1925C23.5555 17.1624 23.5593 17.1323 23.563 17.1022C23.6082 16.8033 23.6495 16.5043 23.7003 16.2073C23.7943 15.6601 23.8488 15.1092 24.0105 14.5715C24.191 13.9735 24.2869 13.3493 24.4561 12.7476C24.6742 11.973 24.9281 11.2096 25.165 10.4425C25.4188 9.84644 25.6463 9.23537 25.9321 8.65625C26.3796 7.75186 26.829 6.84559 27.3442 5.97881C28.3181 4.34113 29.5666 2.90651 30.8376 1.49446C30.9937 1.32147 31.193 1.1861 31.3679 1.02816C31.4487 0.95483 31.522 0.8721 31.5972 0.79313C31.6587 0.719174 31.6555 0.665901 31.5878 0.633311L31.3904 0.614508C31.3622 0.620149 31.3321 0.625789 31.3039 0.63143C31.2644 0.638951 31.225 0.648352 31.1855 0.655873L31.1084 0.676556V0.699119C30.9975 0.697238 30.8884 0.695358 30.7812 0.693478C30.753 0.693478 30.7248 0.693478 30.6966 0.693478C30.6534 0.700999 30.6082 0.70852 30.565 0.714161C30.4315 0.700999 30.2961 0.669035 30.1626 0.678436C29.9351 0.695358 29.6851 0.659634 29.5008 0.842016C28.7863 1.54334 28.0474 2.22211 27.3686 2.95539C26.4981 3.89739 25.7046 4.90895 25.0108 5.99009C24.5859 6.65193 24.176 7.32505 23.8112 8.02074C23.4935 8.62617 23.2603 9.27297 22.9689 9.89157C22.5721 10.7395 22.3146 11.6308 22.0664 12.5276C22.057 12.5803 22.0457 12.6311 22.0363 12.6837C22.0175 12.7439 21.9987 12.804 21.9799 12.8661C21.963 12.8755 21.9592 12.8887 21.9705 12.9056C21.9517 12.9601 21.9348 13.0146 21.916 13.0692L21.9178 13.0673ZM37.3056 1.26319C37.3113 1.2331 37.3169 1.20114 37.3244 1.17106C37.3244 1.0526 37.3752 0.911585 37.2022 0.864579C37.0687 0.828855 37.0405 0.95671 36.9747 1.0244C36.8111 1.19362 36.6551 1.37036 36.4877 1.5377C35.9744 2.05664 35.4348 2.55491 34.9478 3.09829C34.4984 3.60031 34.0923 4.13994 33.6881 4.67957C33.3177 5.17407 32.9623 5.67985 32.6276 6.19879C32.3775 6.58424 32.1707 6.99601 31.9451 7.3965C31.8924 7.48299 31.8323 7.56572 31.7909 7.65597C31.4299 8.44003 31.0783 9.22784 30.7135 10.01C30.3375 10.8166 30.0667 11.6609 29.8486 12.5164C29.5873 13.5392 29.2376 14.5433 29.1266 15.6037C29.0796 16.055 28.9593 16.4987 28.8841 16.9481C28.8258 17.2997 28.7882 17.6569 28.7374 18.0104C28.6961 18.2962 28.6509 18.582 28.6058 18.8697C28.5832 18.9261 28.5588 18.9825 28.5362 19.037C28.5362 19.0539 28.5325 19.0727 28.5268 19.0897C28.5193 19.2438 28.5118 19.3999 28.5043 19.5541C28.493 19.6199 28.4817 19.6857 28.4723 19.7515C28.4573 19.8399 28.4403 19.9282 28.4253 20.0166L28.4366 20.2065L28.414 20.5562L28.3727 20.6164C28.3614 20.6314 28.352 20.6446 28.3407 20.6596C28.3351 20.6766 28.3275 20.6935 28.32 20.7085C28.2335 20.8138 28.258 20.921 28.32 21.0263C28.3012 21.1635 28.2805 21.2989 28.2617 21.4362C28.2486 21.5471 28.2373 21.6562 28.2241 21.7671C28.226 21.8085 28.2298 21.8498 28.2316 21.8912C28.226 21.9645 28.2204 22.0379 28.2128 22.1112C28.1846 22.177 28.1583 22.2447 28.1301 22.3105C27.9985 22.4891 28.0662 22.6753 28.1075 22.8614C28.0699 23.087 28.0342 23.3145 27.9929 23.5402C27.974 23.6473 27.9496 23.7545 27.927 23.8617C27.8406 23.9895 27.8424 24.1249 27.9026 24.2622C27.8255 24.6345 27.7447 25.0086 27.6713 25.3809C27.4758 26.3718 27.3404 27.3777 27.0734 28.3479C26.8121 29.2955 26.5658 30.2563 26.1408 31.1551C25.7573 31.9655 25.4658 32.821 24.9713 33.5787C24.6216 34.1146 24.3302 34.688 23.8639 35.1431C23.8075 35.1976 23.783 35.286 23.7266 35.3931C23.8695 35.4176 23.9673 35.4477 24.0651 35.4477C24.8754 35.4477 25.6858 35.4439 26.4943 35.4439C29.9972 35.4439 33.4982 35.4477 37.001 35.4495C37.2661 35.4495 37.268 35.4477 37.3282 35.1393C37.3338 35.1299 37.3432 35.1186 37.3414 35.1111C37.3357 35.0923 37.3263 35.0754 37.3169 35.0566C37.3075 34.6749 37.2906 34.2951 37.2906 33.9134C37.2906 23.6417 37.2925 13.37 37.2906 3.09829C37.2906 2.59251 37.2661 2.08861 37.253 1.58283C37.2643 1.5659 37.2718 1.54898 37.2737 1.5283C37.2812 1.52078 37.2943 1.51138 37.2943 1.50386C37.2925 1.48317 37.2831 1.46437 37.2774 1.44557C37.2718 1.40421 37.2661 1.36472 37.2624 1.32335C37.2755 1.30267 37.2887 1.28011 37.3019 1.25943L37.3056 1.26319ZM6.21604 35.4213C6.66729 35.4345 7.12043 35.4477 7.57168 35.4608C7.85184 35.5172 7.97405 35.3085 8.10755 35.1337C8.77879 34.2499 9.41807 33.3456 9.91257 32.3472C9.99906 32.1723 10.0291 31.9692 10.0855 31.7793C10.1269 31.7474 10.1833 31.7229 10.2059 31.6797C10.3112 31.4691 10.4127 31.2566 10.503 31.0404C10.9147 30.0439 11.2287 29.0154 11.4826 27.9719C11.7984 26.6707 12.073 25.3583 12.1726 24.0177C12.1801 23.92 12.2271 23.826 12.2553 23.7301C12.3475 23.6248 12.3418 23.512 12.2854 23.3935C12.2779 23.3164 12.2384 23.2224 12.2685 23.1641C12.4039 22.8877 12.3663 22.5963 12.37 22.3067C12.37 22.2108 12.4208 22.1149 12.4415 22.0191C12.4716 21.8799 12.5016 21.7408 12.5223 21.5998C12.5505 21.4155 12.5731 21.2294 12.5957 21.0432C12.6445 20.6371 12.7273 20.231 12.7292 19.8229C12.7292 19.5879 12.7009 19.3604 12.7912 19.1367C12.8119 19.0859 12.825 19.0238 12.8138 18.9712C12.7555 18.6948 12.8213 18.4429 12.936 18.1947C12.9435 18.189 12.9567 18.1815 12.9567 18.1759C12.9548 18.1589 12.9473 18.1439 12.9416 18.127C12.9473 18.016 12.9548 17.9051 12.9604 17.7942C12.9698 17.7716 12.9773 17.7472 12.9867 17.7246C13.0131 17.4783 13.0356 17.2301 13.0657 16.9838C13.0714 16.9311 13.1033 16.8823 13.1221 16.8315C13.1296 16.792 13.1353 16.7525 13.1428 16.7149C13.2048 16.2637 13.265 15.8124 13.3327 15.3612C13.3684 15.1299 13.4211 14.9005 13.47 14.6692C13.5696 14.1992 13.6599 13.7254 13.7746 13.2591C13.8836 12.8134 14.0058 12.3697 14.1431 11.9316C14.3706 11.2058 14.5248 10.4575 14.8651 9.76747C14.9478 9.60013 14.9685 9.40459 15.0193 9.2222C15.1471 8.94769 15.2806 8.67506 15.401 8.39678C16.0891 6.80047 16.9879 5.32637 18.0051 3.92371C18.4338 3.33332 18.8963 2.76549 19.3795 2.22022C19.7725 1.77649 20.2237 1.3854 20.6393 0.96047C20.7164 0.881501 20.7446 0.749885 20.7935 0.644592C20.7859 0.638951 20.7784 0.63331 20.7709 0.62767C20.6825 0.623909 20.5942 0.622029 20.5058 0.618269C20.4776 0.623909 20.4494 0.62955 20.423 0.635191C20.4042 0.640831 20.3836 0.646472 20.3648 0.648352C20.3159 0.661514 20.267 0.674676 20.2181 0.685957C19.953 0.687837 19.6898 0.691598 19.4246 0.693478C19.3927 0.691598 19.3607 0.689717 19.3269 0.687837C19.2817 0.684076 19.2366 0.684076 19.1915 0.674675C18.8531 0.595706 18.5879 0.691597 18.3398 0.943548C17.8659 1.42489 17.3658 1.8799 16.8788 2.3462C15.9631 3.22239 15.2054 4.23019 14.4646 5.24928C13.7501 6.23452 13.156 7.29309 12.637 8.3949C12.5317 8.61677 12.4471 8.84804 12.355 9.07555C12.1388 9.60389 11.9094 10.1247 11.7119 10.6606C11.3378 11.6703 11.0313 12.7006 10.8226 13.7573C10.7192 14.2725 10.6026 14.7858 10.4898 15.301C10.4842 15.3668 10.4785 15.4326 10.4729 15.5003C10.4334 15.7071 10.392 15.9139 10.3525 16.1208C10.3469 16.2054 10.3413 16.29 10.3356 16.3746C10.3093 16.6867 10.2811 16.9988 10.2548 17.311C10.2472 17.341 10.2416 17.3711 10.2341 17.4012C10.2002 17.5103 10.1664 17.6212 10.1344 17.7302C10.1269 17.8731 10.1175 18.0142 10.11 18.1571C10.0799 18.3977 10.0348 18.6384 10.0254 18.8809C10.0066 19.3115 9.8806 19.7365 9.94829 20.1708C9.95393 20.2009 9.94453 20.2404 9.92949 20.2686C9.78283 20.513 9.80727 20.78 9.81291 21.0489C9.8148 21.1899 9.76779 21.3309 9.74335 21.4738C9.59481 21.6994 9.67378 21.9382 9.7001 22.1751C9.66626 22.3124 9.63241 22.4496 9.59857 22.5869C9.59293 22.6771 9.58917 22.7674 9.58353 22.8558C9.55532 23.1227 9.52524 23.3897 9.49704 23.6567C9.49704 23.7056 9.49516 23.7526 9.49328 23.8015C9.49328 23.9369 9.49328 24.0704 9.49328 24.2058C9.48764 24.2264 9.48387 24.2471 9.47823 24.2697L9.39926 24.892C9.3861 24.9071 9.3861 24.9202 9.39926 24.9353C9.37482 25.0067 9.35038 25.0782 9.32782 25.1496C9.31277 25.176 9.29961 25.2004 9.28457 25.2267C9.20748 25.928 9.16048 26.635 8.97245 27.3194C8.95553 27.3833 8.95365 27.4529 8.94049 27.5187C8.84272 28.0019 8.76375 28.4889 8.64153 28.9665C8.52684 29.4121 8.38206 29.8483 8.22788 30.2827C7.92517 31.1269 7.64689 31.9824 7.28401 32.8003C6.96625 33.5148 6.5432 34.1841 6.16527 34.8742C6.00733 35.0171 5.81367 35.1337 5.77982 35.3856C5.934 35.4627 6.0769 35.4965 6.2292 35.4251L6.21604 35.4213ZM1.26727 35.4383C1.2936 35.4289 1.31992 35.4213 1.34624 35.4119C1.38197 35.3856 1.42333 35.363 1.45342 35.3311C2.21867 34.5094 2.76958 33.543 3.33177 32.5841C3.55175 32.082 3.77362 31.5819 3.98797 31.078C4.12522 30.7584 4.26436 30.4406 4.38093 30.1134C4.49751 29.7863 4.5934 29.4516 4.68553 29.1188C4.79834 28.7108 4.898 28.299 4.99953 27.8891C5.01269 27.8365 4.99389 27.7763 4.99953 27.7218C5.00705 27.6466 5.01269 27.5657 5.04089 27.498C5.20447 27.1239 5.29096 26.7328 5.30789 26.3267C5.31353 26.2063 5.31729 26.0879 5.32293 25.9675C5.38122 25.6498 5.44514 25.332 5.49779 25.0143C5.54103 24.7604 5.573 24.5047 5.60872 24.2509C5.63317 24.0854 5.65761 23.9218 5.67829 23.7564C5.70273 23.5684 5.72342 23.3803 5.74598 23.1923C5.82119 23.0833 5.84751 22.9704 5.76854 22.852C5.7629 22.7655 5.75914 22.679 5.7535 22.5925C5.75914 22.5624 5.76478 22.5324 5.7723 22.5004C5.80991 22.3725 5.8682 22.2447 5.8776 22.1149C5.91144 21.6411 5.92272 21.1654 5.9528 20.6897C5.96033 20.56 6.00169 20.4321 6.02801 20.3043C6.0581 20.1633 6.09946 20.0222 6.1145 19.8794C6.14083 19.6124 6.15023 19.3454 6.16715 19.0784C6.16715 18.9881 6.17091 18.8979 6.17279 18.8095C6.19912 18.6234 6.22356 18.4372 6.25176 18.2529C6.27997 18.0668 6.31381 17.8807 6.34013 17.6945C6.35329 17.5949 6.34013 17.4896 6.36646 17.3937C6.45859 17.0609 6.35329 16.6961 6.54508 16.3784C6.57892 16.322 6.54508 16.2242 6.54884 16.1452C6.5526 16.0211 6.5432 15.897 6.56576 15.7767C6.65789 15.2577 6.7519 14.7407 6.86096 14.2255C7.00197 13.5618 7.16931 12.9037 7.33101 12.2437C7.64313 10.9802 8.06994 9.76183 8.5682 8.566C8.74871 8.13167 8.94049 7.70298 9.12663 7.2724C9.19808 7.12575 9.26201 6.97533 9.34098 6.83431C9.55344 6.4545 9.75839 6.06906 9.98966 5.70053C10.3901 5.06313 10.785 4.42009 11.2287 3.8109C11.6856 3.18478 12.1839 2.58875 12.6859 1.99648C12.983 1.64675 13.3252 1.33464 13.6429 1.00184C13.7182 0.922866 13.7764 0.825094 13.8422 0.736723C13.8328 0.70664 13.8234 0.674675 13.8122 0.644592C13.7407 0.638951 13.6711 0.63331 13.5997 0.62767C13.5696 0.63331 13.5395 0.638951 13.5094 0.644592C13.4718 0.653993 13.4342 0.663394 13.3948 0.672795C13.3195 0.685957 13.2443 0.699118 13.1691 0.71228C12.998 0.70852 12.825 0.70476 12.6539 0.700999C12.6201 0.699119 12.5863 0.695358 12.5524 0.693478C11.4844 0.689718 10.4165 0.684077 9.34662 0.682196C6.61465 0.678436 3.88079 0.676556 1.14882 0.674675C1.07361 0.685957 0.998401 0.695358 0.925072 0.70664C0.838582 0.717921 0.752091 0.727322 0.652439 0.740484C0.652439 1.13533 0.652439 1.51514 0.652439 1.89495C0.652439 12.742 0.652439 23.589 0.652439 34.4361C0.652439 34.5602 0.661841 34.6824 0.667481 34.8065C0.646799 35.002 0.627996 35.1995 0.601673 35.4439H1.26163L1.26727 35.4383ZM26.2405 0.669035L26.2348 0.691597C26.0769 0.699118 25.919 0.704759 25.7629 0.71228L25.5072 0.699119C25.479 0.699119 25.4508 0.699119 25.4226 0.699119C25.3831 0.699119 25.3436 0.699119 25.3041 0.699119C25.2496 0.691598 25.1951 0.684077 25.1424 0.676556C24.8623 0.595706 24.6404 0.676556 24.4561 0.902184C24.364 1.01312 24.2418 1.09961 24.1384 1.20302C23.469 1.86674 22.794 2.5267 22.1341 3.19982C21.852 3.4875 21.5737 3.78646 21.335 4.11174C20.8085 4.82622 20.2726 5.53507 19.8082 6.28904C19.3156 7.09002 18.8794 7.9286 18.462 8.77283C18.1762 9.35382 17.9656 9.97242 17.7212 10.5741C17.6986 10.6117 17.6666 10.6474 17.6554 10.6888C17.4053 11.501 17.127 12.3077 16.9164 13.1312C16.6946 13.998 16.5366 14.8798 16.3486 15.756C16.3411 15.7861 16.3335 15.8181 16.326 15.8481C16.2922 16.0738 16.2583 16.2994 16.2264 16.5269C16.2151 16.6134 16.2038 16.698 16.1925 16.7845C16.1305 17.1887 16.0684 17.593 16.0045 17.9972C16.0008 18.0687 15.9989 18.1383 15.9951 18.2097C16.0026 18.6102 15.7864 18.9844 15.8635 19.3924C15.8673 19.4131 15.8541 19.4356 15.8466 19.4563C15.6905 19.917 15.7413 20.4021 15.6886 20.874C15.6623 21.1203 15.651 21.3572 15.5363 21.5791C15.4536 21.69 15.4686 21.8009 15.5363 21.9119C15.5326 22.0003 15.5457 22.0943 15.5213 22.177C15.3728 22.6865 15.4085 23.2168 15.3295 23.7338C15.3295 23.7658 15.3257 23.7977 15.3239 23.8297C15.1941 24.6307 15.0644 25.4317 14.9347 26.2326C14.929 26.3003 14.9253 26.3661 14.9196 26.4338C14.835 26.8155 14.7504 27.1972 14.6639 27.5789C14.5398 28.1242 14.4402 28.6769 14.2841 29.2128C13.9682 30.2996 13.5922 31.3657 13.1221 32.396C12.951 32.7721 12.7743 33.1481 12.5731 33.5091C12.2177 34.1447 11.8548 34.7745 11.381 35.3348C11.3923 35.3612 11.4036 35.3875 11.413 35.4138C11.9357 35.4289 12.4584 35.4458 12.9811 35.4608C13.1917 35.5153 13.3271 35.3912 13.4418 35.2521C13.6975 34.94 13.9551 34.6279 14.192 34.3026C14.9046 33.3305 15.4348 32.2569 15.9293 31.1645C16.0478 30.9013 16.1324 30.6211 16.2339 30.3504C16.5366 29.5813 16.8036 28.8029 16.9691 27.9907C17.0386 27.6503 17.1665 27.3232 17.2323 26.9829C17.4184 26.0164 17.5914 25.0462 17.7606 24.076C17.8265 23.6925 17.8885 23.307 17.9186 22.9216C17.9468 22.57 18.0916 22.2296 18.0201 21.8668C18.0107 21.8179 18.0502 21.7615 18.069 21.7069C18.1856 21.3478 18.0916 20.9511 18.2664 20.5995C18.2758 20.5826 18.2739 20.5506 18.2627 20.5337C18.1122 20.3156 18.2495 20.1369 18.3379 19.9508C18.3454 19.8605 18.3529 19.7684 18.3586 19.6782C18.3529 19.5691 18.3454 19.4601 18.3398 19.3491C18.3604 19.3059 18.3792 19.2608 18.3999 19.2175C18.4093 19.1968 18.415 19.1761 18.4187 19.1555C18.4281 19.1291 18.4375 19.1047 18.445 19.0784C18.4808 18.8076 18.3736 18.5162 18.5485 18.2624C18.556 18.2567 18.5691 18.2529 18.5691 18.2473C18.5691 18.2323 18.5654 18.2172 18.5616 18.2022C18.5767 18.0236 18.5804 17.8412 18.6105 17.6663C18.7534 16.8597 18.9151 16.0568 19.0486 15.2502C19.2329 14.1428 19.5205 13.0616 19.8327 11.9861C20.1805 10.7866 20.6205 9.62081 21.1545 8.48891C21.2334 8.31969 21.2654 8.12791 21.3199 7.94741C21.3857 7.86468 21.4647 7.78759 21.5136 7.69734C21.6734 7.40214 21.8107 7.0919 21.9799 6.80235C22.653 5.65917 23.3694 4.54607 24.1986 3.5063C24.8303 2.71285 25.5072 1.96451 26.2198 1.24439C26.3909 1.0714 26.5639 0.896543 26.735 0.723562C26.7293 0.699119 26.7256 0.672795 26.7199 0.648352C26.6541 0.637071 26.5864 0.623909 26.5206 0.612628C26.4905 0.618269 26.4623 0.622029 26.4323 0.62767C26.3928 0.63519 26.3514 0.642712 26.3119 0.650233C26.2875 0.655874 26.263 0.663394 26.2386 0.669035H26.2405Z" fill="#0B89B7"/>
<path d="M37.6738 35.9848C37.6983 35.8344 37.7265 35.684 37.7453 35.5336C37.7584 35.4189 37.813 35.3531 37.9295 35.3418V35.9848H37.6757H37.6738Z" fill="#0B89B7"/>
<path d="M25.7608 0.712089C25.9187 0.704568 26.0767 0.698927 26.2327 0.691406C25.9808 0.971561 25.7476 1.26864 25.4844 1.54127C24.988 2.05645 24.5462 2.62428 24.0874 3.17707C23.843 3.47039 23.6042 3.76746 23.3785 4.07582C23.1792 4.34657 23.0025 4.63237 22.8182 4.91252C22.5362 5.3431 22.2448 5.76803 21.9759 6.20612C21.7879 6.5126 21.628 6.83412 21.4607 7.15188C21.3366 7.38879 21.22 7.63134 21.0997 7.87013C20.891 8.04123 20.8872 8.3101 20.7876 8.53197C20.4604 9.25773 20.1408 9.98726 19.8249 10.7187C19.7779 10.8296 19.7685 10.9575 19.7478 11.0797C19.7328 11.168 19.7422 11.2639 19.7121 11.3448C19.5034 11.9013 19.2796 12.4504 19.1668 13.0408C19.0822 13.4901 18.9262 13.9263 18.8171 14.3738C18.7532 14.6352 18.7137 14.9022 18.6667 15.1673C18.5651 15.7408 18.4674 16.3161 18.364 16.8896C18.3358 17.0438 18.2831 17.1942 18.2624 17.3484C18.1797 17.9801 18.1026 18.6119 18.0293 19.2436C18.0048 19.4542 18.033 19.6798 17.971 19.8773C17.877 20.1743 17.8055 20.462 17.798 20.7817C17.7886 21.1934 17.704 21.6033 17.6476 22.0132C17.5855 22.4795 17.5291 22.9477 17.4558 23.4121C17.3731 23.9329 17.2659 24.4481 17.1851 24.9689C17.0986 25.5217 17.0346 26.0783 16.9519 26.6311C16.9331 26.7627 16.8823 26.8905 16.8447 27.0203C16.7959 27.1933 16.7432 27.3644 16.6943 27.5355C16.5044 28.2029 16.4424 28.9024 16.1397 29.5417C16.0212 29.7917 15.9761 30.0775 15.8971 30.3464C15.7975 30.5946 15.7072 30.8465 15.5981 31.091C15.4741 31.3655 15.3349 31.6325 15.2014 31.9032C14.9758 32.3639 14.752 32.8245 14.5227 33.2833C14.2557 33.8192 13.8439 34.2554 13.5073 34.7424C13.3832 34.9229 13.2103 35.0489 12.9809 35.0695C12.7214 35.0319 12.46 34.9943 12.1348 34.9473C12.3303 34.5995 12.4694 34.2911 12.6612 34.0222C13.0899 33.4225 13.3249 32.723 13.701 32.0988C13.7405 32.033 13.7518 31.9502 13.7743 31.875C13.8345 31.6832 13.8702 31.4783 13.9605 31.2997C14.25 30.7337 14.4061 30.1283 14.5339 29.5135C14.5565 29.4082 14.6261 29.3142 14.6712 29.2126C14.7163 29.1111 14.7708 29.0114 14.7953 28.9043C14.9025 28.4004 14.9946 27.8946 15.1055 27.3907C15.1751 27.0748 15.318 26.774 15.286 26.4374C15.2823 26.3942 15.303 26.349 15.3124 26.3058C15.3894 25.9222 15.4816 25.5424 15.5399 25.1551C15.6038 24.7226 15.6583 24.2864 15.6752 23.8502C15.6922 23.4177 15.9723 23.0173 15.8294 22.5679C15.8238 22.5491 15.8369 22.5246 15.8407 22.5021C15.9215 22.0659 16.0193 21.6315 16.0776 21.1916C16.1265 20.8249 16.1472 20.4545 16.1528 20.0841C16.1585 19.6723 16.369 19.2775 16.2468 18.8563C16.2449 18.8469 16.2487 18.8337 16.2543 18.8243C16.4217 18.4652 16.2731 18.0309 16.5251 17.6924C16.542 17.6699 16.5401 17.6266 16.5383 17.5947C16.5025 17.0287 16.6135 16.4797 16.7244 15.9288C16.7959 15.5772 16.8579 15.2237 16.9275 14.8721C16.9613 14.6991 17.0008 14.5261 17.0365 14.3532C17.0591 14.2441 17.0779 14.1332 17.0986 14.0241C17.123 13.8925 17.1493 13.7609 17.1738 13.6312C17.2001 13.4995 17.217 13.366 17.2527 13.2382C17.3712 12.8057 17.4972 12.3752 17.6213 11.9446C17.6758 11.7509 17.7266 11.5554 17.7886 11.3636C17.8732 11.0966 17.9635 10.8334 18.0518 10.5683C18.1365 10.3614 18.2267 10.1565 18.3057 9.9459C18.4335 9.6131 18.552 9.27654 18.678 8.94374C18.693 8.90237 18.725 8.86853 18.7475 8.82904C18.9092 8.53385 19.0747 8.24053 19.2326 7.94345C19.5071 7.42827 19.7553 6.89805 20.0581 6.39791C20.3363 5.93725 20.656 5.50104 20.9812 5.07234C21.4212 4.49135 21.8555 3.89908 22.3463 3.36133C22.9668 2.68257 23.6361 2.04705 24.298 1.40401C24.5762 1.13326 24.894 0.917034 25.3189 0.980962C25.3735 0.988483 25.4317 0.980962 25.4882 0.977201C25.663 0.973441 25.7627 0.890711 25.7589 0.706448L25.7608 0.712089Z" fill="white"/>
<path d="M30.5674 0.712089C30.6107 0.704568 30.6558 0.697047 30.6991 0.691406C30.7273 0.691406 30.7555 0.691406 30.7837 0.691406C30.8927 0.693286 30.9999 0.695167 31.109 0.697047C30.7555 1.11446 30.3982 1.53187 30.0466 1.95116C29.6875 2.37985 29.3303 2.81231 28.973 3.24288C28.9091 3.31997 28.847 3.40082 28.785 3.47979C28.4785 3.86524 28.1551 4.2394 27.8674 4.63801C27.5403 5.09115 27.2413 5.56496 26.9348 6.03314C26.8183 6.21176 26.6961 6.3885 26.602 6.57841C26.211 7.36998 25.8161 8.16156 25.4476 8.96254C25.237 9.41944 25.0734 9.89701 24.8892 10.3652C24.8139 10.5137 24.7143 10.6566 24.6654 10.8127C24.4548 11.4764 24.2593 12.1439 24.0562 12.8095C23.902 13.3134 23.7591 13.8173 23.6802 14.3419C23.5636 15.1053 23.3699 15.8573 23.2571 16.6226C23.1105 17.6041 22.7983 18.5611 22.8453 19.5689C22.8453 19.5915 22.8359 19.6122 22.8322 19.6347C22.7495 20.1292 22.6686 20.6256 22.5859 21.1201C22.5746 21.1859 22.5577 21.2517 22.5464 21.3175C22.4919 21.6485 22.3809 21.9831 22.3979 22.3122C22.4373 23.0661 22.176 23.7731 22.1177 24.5102C22.0876 24.8768 21.9673 25.2341 21.9184 25.6007C21.8507 26.1084 21.6514 26.5953 21.6664 27.118C21.6664 27.1613 21.6401 27.2027 21.6288 27.2459C21.5235 27.637 21.4333 28.03 21.313 28.4173C21.0685 29.2107 20.8542 30.0192 20.5402 30.7845C20.2393 31.5178 19.9479 32.2624 19.5023 32.9336C19.1751 33.4281 18.895 33.9546 18.5716 34.4528C18.4456 34.6484 18.2651 34.8101 18.0996 34.9774C17.9718 35.1071 17.8233 35.1335 17.6352 35.0695C17.4942 35.0207 17.3306 35.0376 17.1746 35.0338C17.0975 35.0319 17.0185 35.0583 16.9414 35.0526C16.8117 35.0432 16.7609 34.9624 16.8042 34.842C16.8305 34.7687 16.8794 34.7048 16.9207 34.6371C17.1445 34.2761 17.387 33.9226 17.5901 33.5503C18.0113 32.7832 18.4005 31.9991 18.6976 31.1737C18.7577 31.0064 18.8574 30.8541 18.9401 30.6961C18.9758 30.6266 19.0228 30.5607 19.0454 30.4874C19.1921 30.0286 19.3274 29.5661 19.4797 29.1092C19.6734 28.5339 19.7317 27.9284 19.9216 27.3512C20.0852 26.8529 20.1886 26.3265 20.2412 25.8038C20.2807 25.4221 20.2901 25.046 20.4142 24.6737C20.4875 24.4556 20.4631 24.2074 20.4951 23.9743C20.5101 23.8671 20.5364 23.7506 20.5947 23.6622C20.6887 23.5155 20.6812 23.3726 20.668 23.2109C20.6361 22.8198 20.6568 22.4287 20.7846 22.0527C20.8467 21.8684 20.8993 21.6955 20.8523 21.4962C20.8297 21.3946 20.873 21.278 20.8899 21.169C20.9106 21.0487 20.952 20.9283 20.9576 20.808C20.9783 20.3605 20.999 19.913 21.1381 19.4805C21.1644 19.3978 21.155 19.3019 21.1644 19.2136C21.1851 19.0349 21.2058 18.8582 21.2283 18.6814C21.2509 18.4934 21.2697 18.3035 21.2998 18.1155C21.343 17.8391 21.3957 17.5646 21.4446 17.2901C21.4559 17.2243 21.4841 17.1603 21.4935 17.0945C21.5687 16.6226 21.5179 16.1281 21.7492 15.6825C21.783 15.6186 21.7755 15.5264 21.7699 15.4493C21.7454 15.0263 21.7905 14.6183 22.0143 14.246C22.0368 14.2084 22.05 14.1633 22.0575 14.1181C22.1628 13.5578 22.2531 12.9938 22.4449 12.4522C22.6066 11.9521 22.7701 11.452 22.9281 10.9518C22.992 10.7488 23.0221 10.5325 23.1123 10.3407C23.4395 9.64506 23.7892 8.9569 24.0337 8.22549C24.0468 8.18412 24.0713 8.14276 24.0938 8.10516C24.4529 7.49596 24.8045 6.883 25.1731 6.28133C25.3066 6.06134 25.4965 5.87708 25.6262 5.65521C25.9289 5.14191 26.2862 4.67373 26.6566 4.20556C27.1605 3.57004 27.7339 3.00409 28.2849 2.41746C28.5537 2.13166 28.8771 1.89851 29.1441 1.61084C29.4713 1.25736 29.8342 1.00541 30.3287 0.975321C30.496 0.96592 30.5656 0.864388 30.5637 0.706448L30.5674 0.712089Z" fill="white"/>
<path d="M37.2588 1.58789C37.272 2.09367 37.2964 2.59757 37.2964 3.10336C37.2964 13.3751 37.2964 23.6468 37.2964 33.9184C37.2964 34.3001 37.3133 34.6799 37.3227 35.0616C37.3171 35.071 37.3077 35.0823 37.3096 35.088C37.3152 35.1068 37.3246 35.1237 37.334 35.1425C37.2738 35.4508 37.272 35.4527 37.0068 35.4527C33.504 35.4527 30.003 35.449 26.5001 35.4471C25.6897 35.4471 24.8794 35.4527 24.0709 35.4508C23.9731 35.4508 23.8753 35.4208 23.7324 35.3963C23.7888 35.291 23.8133 35.2026 23.8697 35.1462C24.336 34.6912 24.6274 34.1159 24.9771 33.5819C25.4716 32.8242 25.7631 31.9705 26.1466 31.1583C26.5716 30.2595 26.816 29.2987 27.0792 28.3511C27.3462 27.3809 27.4816 26.375 27.6771 25.3841C27.7505 25.0099 27.8313 24.6376 27.9084 24.2653C27.9159 24.1319 27.9253 23.9984 27.9329 23.8649C27.9554 23.7577 27.9799 23.6505 27.9987 23.5433C28.0381 23.3177 28.0739 23.0902 28.1115 22.8646C28.119 22.6803 28.1265 22.4979 28.134 22.3137C28.1622 22.2479 28.1886 22.1802 28.2168 22.1144C28.2224 22.041 28.2281 21.9677 28.2356 21.8944C28.2337 21.853 28.2299 21.8116 28.2281 21.7703C28.2412 21.6593 28.2525 21.5503 28.2657 21.4394C28.2845 21.3021 28.3051 21.1667 28.3239 21.0295C28.3239 20.9242 28.3239 20.817 28.3239 20.7117C28.3315 20.6948 28.339 20.6797 28.3446 20.6628C28.3709 20.6591 28.3822 20.644 28.3766 20.6196C28.3898 20.5989 28.4029 20.5801 28.418 20.5594C28.512 20.4485 28.5007 20.33 28.4405 20.2097C28.4368 20.1458 28.433 20.0837 28.4292 20.0198C28.4443 19.9314 28.4612 19.843 28.4762 19.7547C28.4875 19.6889 28.4988 19.6231 28.5082 19.5573C28.5157 19.4031 28.5232 19.247 28.5308 19.0928C28.5364 19.0759 28.5383 19.059 28.5402 19.0402C28.5627 18.9838 28.5872 18.9274 28.6116 18.8728C28.6549 18.5871 28.7019 18.3013 28.7432 18.0136C28.794 17.6601 28.8316 17.3047 28.8899 16.9513C28.9651 16.5019 29.0854 16.0581 29.1324 15.6069C29.2434 14.5464 29.5931 13.5424 29.8544 12.5195C30.0726 11.664 30.3433 10.8198 30.7194 10.0132C31.0841 9.23103 31.4357 8.44321 31.7967 7.65915C31.8381 7.5689 31.8983 7.48617 31.9509 7.39968C32.0355 7.39968 32.1201 7.39968 32.2047 7.39968C32.1859 7.5313 32.1935 7.67419 32.1446 7.79265C32.0412 8.03896 31.9114 8.27399 31.7836 8.50902C31.667 8.72524 31.5185 8.92455 31.4207 9.1483C31.2364 9.56759 31.0916 10.0038 30.9093 10.4231C30.5915 11.1545 30.5031 11.9555 30.191 12.6888C30.1816 12.7095 30.1835 12.7339 30.1797 12.7546C30.0669 13.2453 29.9541 13.7361 29.8432 14.2268C29.7698 14.554 29.7003 14.8849 29.6269 15.212C29.5593 15.5148 29.5743 15.8419 29.3581 16.1051C29.3129 16.1616 29.3317 16.2744 29.3299 16.3609C29.3242 16.5827 29.3393 16.8084 29.3148 17.0283C29.2772 17.3611 29.2095 17.6902 29.1569 18.0211C29.1136 18.2975 29.0779 18.5758 29.0309 18.8503C28.967 19.2226 28.8937 19.593 28.8278 19.9653C28.8222 19.9972 28.8222 20.0348 28.8316 20.0649C28.9049 20.3018 28.8485 20.5293 28.7921 20.7606C28.7301 21.0107 28.6191 21.2739 28.653 21.5165C28.7075 21.9094 28.559 22.2648 28.5515 22.6389C28.5496 22.7612 28.5345 22.8853 28.5101 23.0056C28.4424 23.3346 28.3521 23.658 28.2976 23.989C28.2168 24.4628 28.166 24.9422 28.087 25.4179C27.9817 26.0478 27.867 26.6758 27.7448 27.3019C27.6978 27.5426 27.5568 27.7795 27.5643 28.0145C27.585 28.6331 27.1657 29.1295 27.1356 29.7255C27.1356 29.7462 27.1187 29.7669 27.1093 29.7876C26.8216 30.5058 26.5358 31.226 26.2425 31.9442C26.1448 32.183 26.0451 32.4218 25.9191 32.6455C25.7179 33.0047 25.4942 33.3525 25.278 33.7041C25.0542 34.067 24.8267 34.428 24.603 34.7909C24.5766 34.8341 24.5616 34.8849 24.5259 34.9676C24.9809 35.0033 25.4021 35.0635 25.8251 35.0654C29.3205 35.0729 32.8139 35.0691 36.3093 35.0654C36.4428 35.0654 36.5782 35.0428 36.7098 35.0165C36.8602 34.9845 36.9335 34.883 36.9392 34.7251C36.9598 34.2776 36.9974 33.8282 37.0031 33.3807C37.0144 32.6154 37.0068 31.8521 37.005 31.0868C37.005 30.9627 36.9956 30.8405 36.9918 30.7164C36.9824 30.3611 36.9448 30.0038 36.9674 29.6503C37.0144 28.9434 37.0294 28.2383 36.9542 27.5313C36.9279 27.2756 36.9204 27.0124 36.9542 26.7567C37.0219 26.217 37.0275 25.683 36.9523 25.1453C36.9279 24.9686 36.941 24.7862 36.9504 24.6057C36.9636 24.2917 37.0012 23.9796 37.0031 23.6656C37.0106 22.6089 37.0125 21.5503 37.0031 20.4936C36.9993 19.9784 36.9617 19.4614 36.9467 18.9462C36.9429 18.8014 36.9542 18.6547 36.9655 18.51C36.9768 18.3539 37.0012 18.1978 37.0068 18.0418C37.035 17.1111 36.9467 16.1822 37.0068 15.2515C37.0162 15.118 36.9899 14.9827 36.9824 14.8492C36.9711 14.6254 36.9467 14.4017 36.9523 14.1779C36.9636 13.6514 36.9918 13.1269 37.0087 12.6004C37.0557 11.2542 36.9429 9.90791 37.0031 8.56166C37.035 7.83213 37.0144 7.09884 37.0068 6.36932C37.0031 6.00079 36.9674 5.63039 36.9636 5.26186C36.9617 5.03811 37.0106 4.81437 37.0068 4.59062C36.9918 3.74827 36.9655 2.90781 36.9429 2.06547C36.9429 2.03163 36.9392 1.99778 36.9373 1.96394C36.9298 1.83608 36.8639 1.75523 36.738 1.72515C36.879 1.53524 37.0877 1.61233 37.2701 1.58789H37.2588Z" fill="white"/>
<path d="M22.4498 12.4581C22.258 12.9997 22.1678 13.5637 22.0625 14.124C22.055 14.1673 22.0418 14.2143 22.0193 14.2519C21.7955 14.6242 21.7504 15.0322 21.7748 15.4552C21.7786 15.5323 21.7861 15.6245 21.7541 15.6884C21.5229 16.134 21.5736 16.6285 21.4984 17.1004C21.4871 17.1662 21.4608 17.2302 21.4495 17.296C21.3988 17.5705 21.348 17.845 21.3048 18.1214C21.2747 18.3094 21.2559 18.4993 21.2333 18.6874C21.2108 18.8641 21.1901 19.0427 21.1694 19.2195C21.16 19.3078 21.1694 19.4037 21.1431 19.4864C21.0039 19.9189 20.9832 20.3664 20.9626 20.8139C20.9569 20.9342 20.9156 21.0546 20.8949 21.1749C20.8761 21.284 20.8328 21.4005 20.8573 21.5021C20.9043 21.7032 20.8516 21.8762 20.7896 22.0586C20.6636 22.4347 20.641 22.8257 20.673 23.2168C20.6862 23.3785 20.6937 23.5214 20.5997 23.6681C20.5414 23.7583 20.5151 23.873 20.5 23.9802C20.4681 24.2134 20.4925 24.4615 20.4192 24.6796C20.2951 25.0519 20.2857 25.428 20.2462 25.8097C20.1917 26.3324 20.0901 26.8588 19.9266 27.3571C19.7367 27.9362 19.6784 28.5416 19.4847 29.1151C19.3305 29.572 19.197 30.0345 19.0504 30.4933C19.0259 30.5666 18.9808 30.6325 18.9451 30.702C18.8623 30.8618 18.7627 31.0141 18.7025 31.1796C18.4055 32.005 18.0162 32.7891 17.5951 33.5562C17.3901 33.9285 17.1495 34.282 16.9257 34.643C16.8843 34.7088 16.8355 34.7746 16.8091 34.8479C16.7659 34.9683 16.8185 35.0491 16.9464 35.0585C17.0235 35.0642 17.1025 35.0378 17.1795 35.0397C17.3337 35.0435 17.4973 35.0266 17.6402 35.0754C17.8263 35.1394 17.9749 35.113 18.1046 34.9833C18.2701 34.816 18.4506 34.6543 18.5766 34.4587C18.9 33.9605 19.1782 33.434 19.5073 32.9395C19.9529 32.2683 20.2443 31.5237 20.5452 30.7904C20.8592 30.0233 21.0716 29.2166 21.3179 28.4232C21.4364 28.0377 21.5285 27.6429 21.6338 27.2518C21.6451 27.2086 21.6733 27.1653 21.6714 27.1239C21.6564 26.6012 21.8557 26.1161 21.9234 25.6066C21.9722 25.24 22.0945 24.8827 22.1227 24.5161C22.181 23.779 22.4404 23.0721 22.4028 22.3181C22.3859 21.9909 22.4968 21.6562 22.5514 21.3234C22.5626 21.2576 22.5796 21.1918 22.5908 21.126C22.6736 20.6315 22.7544 20.1351 22.8372 19.6406C22.8409 19.6181 22.8522 19.5955 22.8503 19.5748C22.8033 18.567 23.1154 17.6081 23.2621 16.6285C23.3768 15.8651 23.5686 15.1112 23.6851 14.3478C23.766 13.8232 23.907 13.3193 24.0612 12.8154C24.2642 12.1498 24.4598 11.4823 24.6704 10.8186C24.7211 10.6607 24.8189 10.5196 24.8941 10.3711C24.9863 10.3955 25.0784 10.42 25.1686 10.4444C24.9298 11.2134 24.676 11.9768 24.4598 12.7496C24.2906 13.3513 24.1947 13.9755 24.0142 14.5734C23.8525 15.1112 23.7961 15.6621 23.7039 16.2092C23.6532 16.5063 23.6118 16.8052 23.5667 17.1042C23.5629 17.1343 23.5592 17.1644 23.5554 17.1944C23.499 17.4878 23.4407 17.7811 23.3899 18.0763C23.3636 18.2286 23.3542 18.3846 23.3373 18.5369C23.3241 18.6573 23.3373 18.7945 23.2846 18.8961C23.1925 19.0709 23.2057 19.2383 23.2414 19.4169C23.2339 19.4846 23.2282 19.5541 23.2207 19.6218C23.1869 19.7553 23.1512 19.8888 23.1173 20.0223C23.1041 20.1539 23.0891 20.2874 23.0759 20.419C23.0647 20.5751 23.0553 20.7312 23.0402 20.8853C23.0271 21.017 23.0045 21.1486 22.9838 21.2802C22.9801 21.3009 22.9556 21.3216 22.9575 21.3404C22.9951 21.7973 22.7206 22.2147 22.7845 22.6753C22.7901 22.7186 22.7977 22.7693 22.7845 22.8088C22.6886 23.0589 22.6604 23.3165 22.6567 23.5835C22.6567 23.6794 22.6002 23.7734 22.5683 23.8674C22.5608 23.8749 22.5438 23.8824 22.5457 23.8881C22.5495 23.9069 22.5589 23.9238 22.5645 23.9426C22.5326 24.298 22.5213 24.6571 22.4667 25.0087C22.3803 25.5634 22.2693 26.1124 22.1603 26.6633C22.1001 26.9604 22.0362 27.2574 21.9478 27.547C21.694 28.3837 21.4928 29.2336 21.2032 30.0646C20.6843 31.5519 19.9717 32.9301 19.1105 34.2387C18.8755 34.5941 18.5991 34.9231 18.3434 35.2653C18.225 35.4233 18.0764 35.4834 17.8771 35.4778C17.36 35.4628 16.843 35.4665 16.3259 35.459C16.2281 35.459 16.1304 35.4346 15.9668 35.4139C16.0627 35.2804 16.1266 35.1845 16.1943 35.0942C16.3428 34.8987 16.5102 34.7144 16.6418 34.5076C16.9314 34.0526 17.2378 33.6051 17.4766 33.1238C18.0444 31.9768 18.5615 30.8054 18.9094 29.5682C19.1011 28.8876 19.3061 28.2107 19.4715 27.5244C19.5938 27.0168 19.6596 26.4941 19.7555 25.9808C19.8513 25.4562 19.9548 24.9354 20.0507 24.4108C20.1014 24.125 20.1428 23.8373 20.1879 23.5496C20.1898 23.5195 20.1917 23.4895 20.1936 23.4575C20.1936 23.3973 20.1936 23.3372 20.1936 23.277C20.1936 23.245 20.1973 23.2131 20.1992 23.1811C20.233 23.0514 20.265 22.9216 20.2988 22.79C20.406 22.617 20.3628 22.4384 20.3158 22.2598C20.3835 21.8273 20.453 21.3968 20.5207 20.9643C20.5339 20.7932 20.547 20.6221 20.5602 20.4491C20.5809 20.3984 20.6166 20.3476 20.6222 20.2949C20.6674 19.8888 20.7069 19.4846 20.7463 19.0784C20.7501 19.0371 20.7539 18.9938 20.7576 18.9525C20.8291 18.5708 20.9043 18.1891 20.9682 17.8055C21.0227 17.4765 21.0603 17.1456 21.1111 16.8165C21.1713 16.4292 21.2258 16.0437 21.301 15.6583C21.3856 15.2202 21.489 14.7878 21.5849 14.3515C21.6037 14.3008 21.6225 14.25 21.6394 14.1992C21.7109 13.8909 21.7823 13.5806 21.8519 13.2723C21.8745 13.2084 21.897 13.1444 21.9196 13.0786L21.9215 13.0692C21.9403 13.0147 21.9572 12.9602 21.976 12.9056C21.9647 12.8887 21.9685 12.8756 21.9854 12.8662C22.0042 12.806 22.023 12.7458 22.0418 12.6838C22.0512 12.6311 22.0625 12.5804 22.0719 12.5277C22.1998 12.5052 22.3257 12.4826 22.4536 12.46L22.4498 12.4581Z" fill="white"/>
<path d="M0.673245 34.7998C0.667604 34.6757 0.658203 34.5535 0.658203 34.4294C0.658203 23.5823 0.658203 12.7353 0.658203 1.88824C0.658203 1.50843 0.658203 1.12862 0.658203 0.733777C0.757855 0.720615 0.844345 0.711214 0.930836 0.699932C1.00793 0.711214 1.10006 0.816507 1.15458 0.667969C3.88656 0.669849 6.62041 0.671729 9.35238 0.675489C10.4204 0.675489 11.4883 0.68301 12.5582 0.686771C12.592 0.688651 12.6259 0.692412 12.6597 0.694292C12.8308 0.698052 13.0038 0.701812 13.1749 0.705573C13.2012 0.714974 13.2275 0.726255 13.2557 0.735656C13.1843 0.840949 13.1147 0.948123 13.0433 1.05342C12.7387 1.05718 12.4341 1.06282 12.1314 1.06658C11.9979 1.06658 11.8644 1.07222 11.7309 1.06282C10.9449 1.01581 10.159 0.9312 9.37307 0.923679C7.37814 0.902997 5.38134 0.904877 3.38642 0.923679C2.67945 0.92932 1.97436 1.01017 1.26928 1.0553C1.10758 1.06658 1.01921 1.14743 1.01357 1.30913C1.00793 1.46707 1.00793 1.62313 1.00793 1.78106C1.00793 8.98987 1.00793 16.1968 1.00793 23.4056C1.00793 26.4516 1.00793 29.4975 1.00793 32.5416C1.00793 33.3182 1.00416 34.0947 1.00228 34.8694C0.893231 34.8449 0.782298 34.8205 0.673245 34.796V34.7998Z" fill="white"/>
<path d="M9.4878 23.6534C9.516 23.3864 9.54608 23.1194 9.57429 22.8524C9.57993 22.7622 9.58369 22.6719 9.58933 22.5835C9.62317 22.4463 9.65702 22.309 9.69086 22.1718C9.7059 21.9386 9.71907 21.7055 9.73411 21.4704C9.75855 21.3294 9.80556 21.1865 9.80368 21.0455C9.79804 20.7766 9.77359 20.5096 9.92025 20.2652C9.93717 20.2389 9.94469 20.1994 9.93905 20.1674C9.87136 19.7312 9.99734 19.3082 10.0161 18.8776C10.0274 18.635 10.0725 18.3963 10.1008 18.1537C10.1083 18.0108 10.1177 17.8698 10.1252 17.7269C10.159 17.6178 10.1929 17.5069 10.2248 17.3979C10.2324 17.3678 10.238 17.3377 10.2455 17.3076C10.2719 16.9955 10.3001 16.6834 10.3264 16.3712C10.332 16.2866 10.3377 16.202 10.3433 16.1155C10.3828 15.9087 10.4242 15.7019 10.4636 15.4951C10.4693 15.4293 10.4749 15.3634 10.4806 15.2958C10.5915 14.7825 10.7099 14.2692 10.8134 13.7521C11.0239 12.6954 11.3304 11.665 11.7027 10.6553C11.9001 10.1214 12.1314 9.59866 12.3457 9.07031C12.4435 9.07219 12.5413 9.07595 12.6372 9.07783C12.6297 9.13236 12.6334 9.19441 12.6109 9.24329C12.3645 9.78668 12.1859 10.3508 12.0299 10.9261C11.9283 11.3021 11.714 11.6443 11.6745 12.043C11.667 12.1182 11.6143 12.1877 11.5899 12.2611C11.5372 12.4209 11.4771 12.5788 11.4414 12.7424C11.3097 13.3666 11.1894 13.9928 11.0615 14.617C11.0484 14.6828 11.0051 14.7411 10.9901 14.805C10.9506 14.9667 10.9074 15.1284 10.8867 15.2939C10.8472 15.6173 10.8792 15.9614 10.7758 16.2603C10.6084 16.7473 10.7062 17.2606 10.5539 17.7438C10.49 17.9431 10.4674 18.1575 10.4411 18.3681C10.426 18.4884 10.4242 18.6162 10.4467 18.7328C10.4937 18.9641 10.4787 19.1841 10.3659 19.3871C10.2831 19.5357 10.2925 19.6786 10.3076 19.8403C10.3264 20.0245 10.2907 20.2144 10.2794 20.4025C10.2681 20.566 10.2531 20.7315 10.2418 20.8951C10.2324 21.0267 10.2719 21.1828 10.2136 21.2843C10.0801 21.5137 10.0707 21.7506 10.0688 21.9988C10.0669 22.1887 10.0368 22.3786 10.0237 22.5685C10.0161 22.6907 9.99358 22.8204 10.0199 22.937C10.0688 23.157 10.0763 23.3544 9.92025 23.5406C9.87701 23.5932 9.8676 23.691 9.87136 23.7662C9.89581 24.146 9.72283 24.522 9.8488 24.9037C9.85632 24.9244 9.85068 24.9489 9.84692 24.9695C9.76419 25.2948 9.68146 25.6182 9.60061 25.9435C9.57429 26.0526 9.54796 26.1616 9.53292 26.2707C9.4972 26.5151 9.47464 26.7614 9.43327 27.004C9.35806 27.4345 9.27721 27.8651 9.18508 28.2938C9.11739 28.6116 9.06663 28.9425 8.93501 29.232C8.83912 29.4407 8.77707 29.6476 8.72818 29.8638C8.6887 30.0386 8.64921 30.2135 8.59093 30.3827C8.36906 31.0295 8.13027 31.6707 7.91405 32.3194C7.81063 32.6315 7.6715 32.9192 7.49099 33.1956C7.24656 33.5697 7.00966 33.9552 6.81787 34.3594C6.70694 34.5926 6.59036 34.7919 6.37226 34.9272C6.29893 34.9047 6.2256 34.8821 6.15039 34.8596C6.52644 34.1695 6.94949 33.5001 7.26913 32.7857C7.63389 31.9678 7.91217 31.1123 8.213 30.268C8.36718 29.8356 8.51384 29.3975 8.62665 28.9519C8.74887 28.4743 8.82972 27.9873 8.92561 27.5041C8.93877 27.4383 8.94065 27.3687 8.95757 27.3048C9.1456 26.6204 9.1926 25.9134 9.26969 25.2121C9.28473 25.1858 9.29789 25.1613 9.31294 25.135C9.33738 25.0636 9.36182 24.9921 9.38438 24.9207C9.39003 24.9169 9.39755 24.915 9.40319 24.9113C9.39755 24.9 9.39191 24.8887 9.38627 24.8774C9.41259 24.6706 9.43891 24.4619 9.46523 24.2551C9.47087 24.2344 9.47464 24.2137 9.48028 24.1911C9.48028 24.0558 9.48028 23.9223 9.48028 23.7869C9.48028 23.738 9.48216 23.691 9.48404 23.6421L9.4878 23.6534Z" fill="white"/>
<path d="M18.0558 10.5703C17.9674 10.8354 17.8753 11.1005 17.7926 11.3656C17.7324 11.5574 17.6817 11.753 17.6252 11.9466C17.5012 12.3772 17.3771 12.8078 17.2567 13.2402C17.221 13.3681 17.2041 13.5016 17.1778 13.6332C17.1514 13.7648 17.127 13.8964 17.1025 14.0262C17.0819 14.1352 17.0631 14.2462 17.0405 14.3552C17.0048 14.5282 16.9653 14.7012 16.9314 14.8742C16.8619 15.2258 16.7998 15.5792 16.7284 15.9308C16.6174 16.4799 16.5065 17.0308 16.5422 17.5967C16.5441 17.6306 16.5479 17.6719 16.5291 17.6945C16.2771 18.0348 16.4257 18.4692 16.2583 18.8264C16.2546 18.8358 16.2489 18.849 16.2508 18.8584C16.373 19.2795 16.1605 19.6744 16.1568 20.0862C16.153 20.4547 16.1323 20.827 16.0816 21.1936C16.0214 21.6336 15.9255 22.0679 15.8447 22.5041C15.8409 22.5267 15.8277 22.5511 15.8334 22.5699C15.9763 23.0193 15.6961 23.4198 15.6792 23.8523C15.6623 24.2885 15.6078 24.7247 15.5438 25.1571C15.4874 25.5426 15.3934 25.9243 15.3163 26.3078C15.3069 26.3511 15.2862 26.3962 15.29 26.4395C15.322 26.776 15.1791 27.0769 15.1095 27.3927C14.9986 27.8948 14.9064 28.4024 14.7993 28.9063C14.7767 29.0135 14.7203 29.1131 14.6752 29.2147C14.63 29.3162 14.5605 29.4102 14.5379 29.5155C14.4101 30.1322 14.254 30.7358 13.9644 31.3017C13.8742 31.4785 13.8385 31.6834 13.7783 31.8771C13.7539 31.9523 13.7445 32.035 13.705 32.1008C13.327 32.7251 13.092 33.4245 12.6652 34.0243C12.4734 34.2932 12.3343 34.5997 12.1387 34.9494C12.464 34.9964 12.7235 35.034 12.9848 35.0716C12.9848 35.1995 12.9848 35.3292 12.9848 35.457C12.4621 35.442 11.9394 35.4251 11.4167 35.41C11.4054 35.3837 11.3942 35.3574 11.3848 35.3311C11.8586 34.7726 12.2215 34.1409 12.5768 33.5054C12.778 33.1444 12.9548 32.7683 13.1259 32.3923C13.5959 31.3619 13.9738 30.2939 14.2878 29.209C14.4439 28.6732 14.5436 28.1204 14.6676 27.5751C14.7541 27.1934 14.8369 26.8117 14.9234 26.4301C14.929 26.3624 14.9328 26.2966 14.9384 26.2289C15.0681 25.4279 15.1979 24.6269 15.3276 23.8259C15.3276 23.794 15.3314 23.762 15.3332 23.73C15.4122 23.213 15.3765 22.6828 15.525 22.1732C15.5495 22.0905 15.5363 21.9965 15.5401 21.9081C15.5401 21.7972 15.5401 21.6862 15.5401 21.5753C15.6548 21.3534 15.6642 21.1146 15.6924 20.8702C15.745 20.3983 15.6924 19.9132 15.8503 19.4525C15.8578 19.4318 15.871 19.4074 15.8672 19.3886C15.7901 18.9806 16.0064 18.6045 15.9988 18.2059C16.0026 18.1345 16.0045 18.0649 16.0082 17.9935C16.0703 17.5892 16.1323 17.185 16.1963 16.7807C16.2076 16.6942 16.2188 16.6096 16.2301 16.5231C16.264 16.2975 16.2978 16.0719 16.3298 15.8444C16.3373 15.8143 16.3448 15.7823 16.3523 15.7522C16.5385 14.876 16.6964 13.9942 16.9202 13.1274C17.1307 12.3039 17.409 11.4973 17.6591 10.685C17.6723 10.6436 17.7023 10.6079 17.7249 10.5703C17.8358 10.5703 17.9486 10.5703 18.0596 10.5703H18.0558Z" fill="white"/>
<path d="M9.1292 7.2652C8.94305 7.69577 8.75127 8.12635 8.57077 8.5588C8.07251 9.75651 7.6457 10.9749 7.33358 12.2365C7.17 12.8965 7.00454 13.5546 6.86352 14.2183C6.75447 14.7335 6.66046 15.2524 6.56833 15.7695C6.54764 15.8898 6.55516 16.0158 6.5514 16.138C6.54952 16.217 6.58337 16.3129 6.54764 16.3712C6.35586 16.6889 6.45927 17.0537 6.36902 17.3865C6.3427 17.4824 6.35774 17.5877 6.3427 17.6873C6.31637 17.8735 6.28253 18.0596 6.25433 18.2457C6.22612 18.4319 6.20168 18.6162 6.17536 18.8023C6.17536 18.8925 6.1716 18.9828 6.16972 19.0712C6.15279 19.3382 6.14339 19.6052 6.11707 19.8721C6.10203 20.015 6.06066 20.1561 6.03058 20.2971C6.00426 20.4249 5.96289 20.5528 5.95537 20.6825C5.92529 21.1563 5.91401 21.6339 5.88016 22.1077C5.87076 22.2375 5.81059 22.3653 5.77487 22.4932C5.76923 22.5233 5.76359 22.5534 5.75607 22.5853C5.76171 22.6718 5.76547 22.7583 5.77111 22.8448C5.76359 22.9576 5.75607 23.0723 5.74855 23.1851C5.72598 23.3731 5.7053 23.5612 5.68086 23.7492C5.66018 23.9146 5.63385 24.0782 5.61129 24.2437C5.57556 24.4975 5.5436 24.7532 5.50036 25.0071C5.44583 25.3248 5.38378 25.6426 5.32549 25.9603C5.31985 26.0807 5.31609 26.1991 5.31045 26.3195C5.29353 26.7256 5.20892 27.1167 5.04346 27.4908C5.01338 27.5585 5.00962 27.6394 5.00209 27.7146C4.99645 27.7691 5.01526 27.8293 5.00209 27.8819C4.90056 28.2937 4.80091 28.7036 4.6881 29.1116C4.59597 29.4463 4.50007 29.781 4.3835 30.1062C4.26692 30.4334 4.12779 30.7512 3.99053 31.0708C3.77431 31.5747 3.55244 32.0748 3.33433 32.5769C3.23656 32.5505 3.13879 32.5261 3.04102 32.4998C3.16323 32.1877 3.28168 31.8737 3.40766 31.5615C3.59004 31.1159 3.80815 30.6816 3.95293 30.2247C4.15975 29.5741 4.32521 28.9085 4.49255 28.2467C4.63169 27.6939 4.76331 27.1374 4.86672 26.5752C4.96261 26.06 5.00962 25.5354 5.08859 25.0183C5.20516 24.255 5.33114 23.4916 5.34618 22.7169C5.34618 22.6286 5.38002 22.5421 5.39318 22.4537C5.42139 22.2657 5.47967 22.0777 5.46839 21.8915C5.44395 21.444 5.6771 21.0153 5.56052 20.5622C5.55864 20.5528 5.56428 20.5396 5.56616 20.5283C5.71282 19.9135 5.7147 19.2855 5.74855 18.6594C5.75607 18.5297 5.80307 18.4018 5.83504 18.2739C5.87076 18.1367 5.92153 18.0013 5.94409 17.8603C5.97229 17.6836 5.97229 17.5031 5.99486 17.3263C6.04186 16.971 6.13399 16.6193 6.13963 16.264C6.1528 15.4254 6.42355 14.6301 6.51004 13.8046C6.51756 13.7407 6.56645 13.6824 6.58713 13.6185C6.64542 13.438 6.7037 13.2575 6.75259 13.0751C6.77891 12.9792 6.77703 12.8739 6.79959 12.7762C6.92369 12.276 7.04966 11.7778 7.17752 11.2776C7.19068 11.225 7.22265 11.1761 7.24145 11.1234C7.29974 10.9655 7.35614 10.8094 7.41067 10.6496C7.48588 10.4259 7.5216 10.1852 7.63442 9.98213C7.83184 9.62865 7.78483 9.18116 8.08567 8.87468C8.09883 8.86152 8.09695 8.83143 8.10259 8.81075C8.25113 8.16771 8.61025 7.62056 8.92049 7.05273C8.99006 7.12042 9.05775 7.18999 9.12732 7.25768L9.1292 7.2652Z" fill="white"/>
<path d="M21.2146 33.7126C21.6245 32.8628 22.0626 32.0261 22.433 31.1612C22.6887 30.567 22.9238 29.9578 23.0648 29.3185C23.14 28.9801 23.2622 28.6529 23.3506 28.3183C23.5536 27.553 23.7567 26.7896 23.8451 25.9981C23.8864 25.6239 24.0143 25.261 24.082 24.8887C24.1384 24.5822 24.1647 24.2701 24.2098 23.9599C24.2738 23.518 24.3433 23.0781 24.4054 22.6362C24.4185 22.5384 24.411 22.4369 24.4148 22.3373C24.4185 22.2489 24.3941 22.1379 24.4355 22.074C24.584 21.8484 24.5539 21.604 24.5577 21.3577C24.5596 21.2035 24.616 21.0512 24.6479 20.897C24.6423 20.7861 24.6385 20.6732 24.6329 20.5623C24.6761 20.4269 24.7213 20.2934 24.7645 20.1581C24.7683 20.0866 24.7739 20.017 24.7777 19.9456C24.757 19.7407 24.6987 19.5319 24.8322 19.342C24.8397 19.3157 24.8453 19.2894 24.8529 19.265C24.8491 19.1089 24.8453 18.9528 24.8416 18.7968C24.8529 18.7573 24.8642 18.7178 24.8773 18.6783C24.9036 18.5937 24.9412 18.5091 24.9544 18.4226C25.1123 17.4411 25.2515 16.4559 25.4263 15.4782C25.5561 14.7637 25.7253 14.0548 25.8926 13.3479C25.966 13.032 26.0863 12.7293 26.1709 12.4153C26.4454 11.3849 26.8177 10.3903 27.2652 9.42383C27.3743 9.42383 27.4833 9.42383 27.5924 9.42383C27.5642 9.56485 27.5548 9.71338 27.504 9.845C27.4288 10.0424 27.3066 10.221 27.2351 10.4204C26.9775 11.1367 26.7331 11.8587 26.483 12.5789C26.4717 12.6108 26.4642 12.6447 26.4567 12.6766C26.3702 13.0358 26.2743 13.393 26.1991 13.754C26.0261 14.5888 25.8588 15.4236 25.6952 16.2603C25.6332 16.5781 25.5899 16.9015 25.5354 17.2211C25.5015 17.4186 25.4414 17.6122 25.4301 17.8115C25.4075 18.1669 25.4715 18.5335 25.2665 18.8607C25.2383 18.9058 25.2421 18.9698 25.2289 19.0243C25.1105 19.5263 25.1593 20.0453 25.0428 20.5548C24.9262 21.0606 24.9939 21.604 24.8284 22.1135C24.8115 22.1643 24.8153 22.2263 24.819 22.2808C24.8397 22.6155 24.663 22.9314 24.725 23.2717C24.7325 23.3112 24.6987 23.3563 24.6912 23.4015C24.663 23.5669 24.6385 23.7324 24.6122 23.8978C24.5934 24.0069 24.5727 24.1178 24.552 24.2269C24.5295 24.3472 24.4994 24.4657 24.4806 24.586C24.4561 24.7402 24.4373 24.8962 24.4185 25.0523C24.3941 25.2516 24.3678 25.4528 24.3452 25.6521C24.3339 25.7518 24.3621 25.8702 24.3189 25.9511C24.1572 26.2594 24.1497 26.5979 24.0989 26.9288C24.0011 27.5831 23.7398 28.196 23.6194 28.8466C23.5367 29.2941 23.3618 29.7266 23.2095 30.1609C23.0685 30.5614 22.9144 30.96 22.7489 31.3511C22.5533 31.8136 22.3409 32.2686 22.1284 32.7255C22.0156 32.9681 21.9028 33.2125 21.7674 33.4438C21.6772 33.5961 21.5474 33.722 21.4346 33.8612C21.3594 33.8142 21.2842 33.7653 21.209 33.7183L21.2146 33.7126Z" fill="white"/>
<path d="M12.2514 23.7302C12.2232 23.8261 12.1743 23.9201 12.1687 24.0179C12.069 25.3585 11.7945 26.6709 11.4786 27.972C11.2248 29.0156 10.9127 30.0459 10.499 31.0406C10.4088 31.2587 10.3072 31.4693 10.2019 31.6798C10.1813 31.7212 10.123 31.7457 10.0816 31.7795C10.0102 31.7513 9.93871 31.7231 9.86914 31.6949C9.88418 31.6065 9.88794 31.5144 9.91803 31.4335C10.1719 30.7416 10.4332 30.0516 10.6908 29.3615C10.7622 29.1716 10.8506 28.9874 10.8976 28.7937C11.0631 28.0848 11.221 27.3722 11.3696 26.6596C11.4542 26.2535 11.5162 25.8436 11.5914 25.4356C11.6253 25.2495 11.6742 25.0652 11.6986 24.8772C11.7381 24.5763 11.755 24.2755 11.7926 23.9747C11.8453 23.5573 11.9111 23.1398 11.9656 22.7224C12.0032 22.4329 12.0276 22.1433 12.0671 21.8538C12.1179 21.4871 12.1893 21.1224 12.2307 20.7557C12.3116 20.0318 12.3774 19.3079 12.4507 18.584C12.4751 18.3396 12.4845 18.0895 12.5334 17.8489C12.6068 17.4916 12.5842 17.1081 12.8117 16.7847C12.8512 16.7301 12.8286 16.6324 12.8324 16.5553C12.8549 16.2225 12.823 15.8728 12.9114 15.5588C13.0486 15.0624 12.979 14.5227 13.2329 14.0527C13.2573 14.0076 13.2404 13.9418 13.2517 13.8872C13.2912 13.6785 13.3288 13.4698 13.3795 13.2649C13.4153 13.1239 13.4717 12.9885 13.5187 12.8512C13.671 12.3962 13.6954 11.9149 13.8891 11.4599C14.1448 10.8544 14.2407 10.1851 14.5735 9.60218C14.6336 9.49689 14.6468 9.36528 14.6994 9.25434C14.7408 9.16785 14.8104 9.09452 14.8668 9.01367C14.9157 9.08512 14.9646 9.15469 15.0134 9.22614C14.9646 9.40852 14.942 9.60595 14.8593 9.77141C14.5189 10.4615 14.3648 11.2098 14.1373 11.9355C14 12.3736 13.8778 12.8174 13.7687 13.263C13.654 13.7293 13.5638 14.2031 13.4641 14.6732C13.4153 14.9026 13.3626 15.1319 13.3269 15.3651C13.2573 15.8145 13.199 16.2676 13.137 16.7189C13.1295 16.7583 13.1238 16.7978 13.1163 16.8354C13.0975 16.8862 13.0655 16.9351 13.0599 16.9877C13.0298 17.234 13.0054 17.4822 12.9809 17.7285C12.9715 17.7511 12.964 17.7755 12.9546 17.7981C12.949 17.909 12.9414 18.02 12.9358 18.1309C12.9339 18.1535 12.932 18.176 12.9302 18.1986C12.8136 18.4449 12.7478 18.6987 12.8079 18.9751C12.8192 19.0259 12.8061 19.0898 12.7854 19.1406C12.6951 19.3643 12.7233 19.5918 12.7233 19.8269C12.7233 20.233 12.6406 20.6391 12.5898 21.0471C12.5673 21.2333 12.5447 21.4194 12.5165 21.6037C12.4939 21.7447 12.4657 21.8838 12.4357 22.023C12.415 22.1208 12.3642 22.2148 12.3642 22.3107C12.3604 22.6002 12.3999 22.8898 12.2627 23.168C12.2326 23.2282 12.2721 23.3203 12.2796 23.3974C12.2702 23.5102 12.2589 23.6231 12.2495 23.734L12.2514 23.7302Z" fill="white"/>
<path d="M15.8964 30.3493C15.9754 30.0805 16.0205 29.7947 16.139 29.5446C16.4417 28.9053 16.5018 28.2059 16.6936 27.5384C16.7425 27.3654 16.7952 27.1943 16.844 27.0232C16.8817 26.8935 16.9324 26.7656 16.9512 26.634C17.0339 26.0812 17.0979 25.5247 17.1844 24.9719C17.2652 24.451 17.3724 23.9359 17.4551 23.415C17.5285 22.9506 17.5849 22.4824 17.6469 22.0161C17.7014 21.6063 17.7879 21.1964 17.7973 20.7846C17.8048 20.465 17.8763 20.1792 17.9703 19.8802C18.0324 19.6828 18.0041 19.4571 18.0286 19.2466C18.1019 18.6148 18.179 17.9812 18.2617 17.3513C18.2824 17.1971 18.3351 17.0467 18.3633 16.8925C18.4667 16.319 18.5645 15.7437 18.666 15.1702C18.713 14.9051 18.7525 14.6381 18.8164 14.3768C18.9273 13.9312 19.0815 13.4949 19.1661 13.0437C19.2789 12.4533 19.5027 11.9061 19.7114 11.3477C19.7415 11.2669 19.7321 11.171 19.7471 11.0826C19.7678 10.9623 19.7753 10.8325 19.8242 10.7216C20.1401 9.99019 20.4597 9.26066 20.7869 8.53489C20.8865 8.31302 20.8922 8.04415 21.099 7.87305C21.1723 7.89937 21.2457 7.92381 21.319 7.95014C21.2645 8.13064 21.2325 8.32242 21.1535 8.49164C20.6195 9.62166 20.1796 10.7874 19.8317 11.9889C19.5196 13.0644 19.2319 14.1455 19.0477 15.253C18.9142 16.0596 18.7506 16.8624 18.6096 17.669C18.5776 17.8458 18.5757 18.0263 18.5607 18.2049C18.5569 18.2256 18.5513 18.2444 18.5475 18.2651C18.3746 18.5189 18.4817 18.8085 18.4441 19.0811C18.4347 19.1074 18.4253 19.1319 18.4178 19.1582C18.414 19.1808 18.4065 19.2014 18.399 19.2202C18.3783 19.2635 18.3595 19.3086 18.3388 19.3519C18.3445 19.4609 18.352 19.57 18.3576 19.6809C18.3501 19.7711 18.3426 19.8633 18.3369 19.9554C18.2486 20.1416 18.1113 20.3202 18.2617 20.5383C18.273 20.5533 18.2749 20.5872 18.2655 20.6041C18.0906 20.9538 18.1865 21.3505 18.0681 21.7115C18.0512 21.7642 18.0098 21.8225 18.0192 21.8714C18.0906 22.2342 17.9459 22.5746 17.9177 22.9262C17.8876 23.3135 17.8274 23.6989 17.7597 24.0806C17.5905 25.0508 17.4175 26.021 17.2314 26.9875C17.1656 27.3278 17.0377 27.655 16.9681 27.9953C16.8027 28.8075 16.5357 29.5859 16.233 30.355C16.1202 30.355 16.0073 30.355 15.8945 30.355L15.8964 30.3493Z" fill="white"/>
<path d="M26.8289 23.9387C26.8289 23.9838 26.8289 24.027 26.8289 24.0722C26.8176 24.1586 26.8045 24.2451 26.7932 24.3316C26.7631 24.4482 26.7236 24.5648 26.7086 24.6832C26.6898 24.828 26.7086 24.9784 26.6785 25.1194C26.4886 26.0426 26.3212 26.9715 26.0843 27.8834C25.8737 28.6975 25.5691 29.4853 25.336 30.2938C25.1762 30.8504 24.8979 31.3505 24.6685 31.8732C24.6065 32.0161 24.5407 32.159 24.4767 32.3019C24.3432 32.3019 24.2116 32.3019 24.0781 32.3019C24.1627 32.144 24.2699 31.9936 24.3263 31.8281C24.5726 31.0854 24.9919 30.4029 25.1085 29.6132C25.1141 29.57 25.1329 29.5267 25.1517 29.4853C25.3623 29.0623 25.5033 28.6186 25.6011 28.1541C25.7703 27.355 26.0204 26.5785 26.1332 25.7625C26.2441 24.9653 26.4867 24.1869 26.451 23.369C26.4491 23.3031 26.4792 23.2373 26.4905 23.1715C26.5205 22.9741 26.5525 22.7767 26.5769 22.5774C26.592 22.4664 26.5657 22.3405 26.6089 22.2465C26.7104 22.034 26.6653 21.799 26.7255 21.5921C26.8571 21.1334 26.8533 20.6689 26.8909 20.2026C26.9229 19.804 27 19.4073 27.0583 19.0106C27.0959 18.7567 27.0959 18.486 27.1899 18.2547C27.2783 18.0385 27.3178 17.8317 27.3234 17.606C27.3272 17.4161 27.3441 17.2244 27.3742 17.0382C27.4437 16.5964 27.5171 16.1526 27.5998 15.7127C27.7126 15.1185 27.8198 14.5225 27.9589 13.934C28.0755 13.447 28.2259 12.9675 28.3782 12.4881C28.5606 11.9127 28.758 11.343 28.9479 10.7695C29.0513 10.7695 29.1566 10.7695 29.26 10.7695C29.2112 10.9764 29.1717 11.1869 29.1115 11.39C28.8633 12.2267 28.57 13.0521 28.3669 13.8982C28.1695 14.7199 28.0642 15.5641 27.9157 16.3971C27.8668 16.6716 27.8405 16.9555 27.7446 17.215C27.6205 17.5553 27.7389 17.9351 27.5453 18.2604C27.5171 18.3074 27.549 18.392 27.5528 18.4597C27.5471 18.5292 27.5415 18.5988 27.5359 18.6684C27.4776 18.8696 27.4212 19.0689 27.4588 19.2851C27.4738 19.3678 27.4701 19.4769 27.4249 19.5427C27.2745 19.7608 27.3178 19.9827 27.3666 20.2102C27.3554 20.2591 27.346 20.3098 27.3347 20.3587L27.3272 20.3719C27.3046 20.4114 27.282 20.4527 27.2576 20.4922C27.2519 20.6971 27.2444 20.9021 27.2388 21.1089C27.2275 21.154 27.2162 21.1973 27.2068 21.2424C27.1767 21.359 27.1222 21.4737 27.1203 21.5903C27.1147 21.8102 27.1561 22.0227 27.0038 22.2277C26.9474 22.3047 26.9981 22.4627 27.0019 22.583C26.9944 22.694 26.9868 22.8049 26.9793 22.9158C26.953 23.0117 26.9173 23.1038 26.9022 23.2016C26.8703 23.4197 26.8496 23.6416 26.8233 23.8616C26.8157 23.8691 26.8026 23.8766 26.8026 23.8841C26.8045 23.9029 26.8139 23.9199 26.8195 23.9387H26.8289Z" fill="white"/>
<path d="M15.0156 9.22488C14.9667 9.15343 14.9179 9.08387 14.869 9.01242C14.9667 8.73978 15.0438 8.45587 15.1679 8.1964C15.5252 7.45747 15.873 6.71289 16.2829 6.00217C16.6627 5.34221 17.0952 4.71045 17.5445 4.09561C18.0202 3.44317 18.5373 2.82082 19.0468 2.19658C19.2743 1.91831 19.5357 1.66824 19.767 1.39372C19.8234 1.32603 19.8704 1.19818 19.8441 1.12673C19.8177 1.05904 19.6936 0.998874 19.6053 0.991353C19.1333 0.949988 18.6746 0.974431 18.3493 1.39748C18.3286 1.42381 18.3023 1.44637 18.2741 1.46329C17.6442 1.83746 17.2174 2.43537 16.7003 2.93175C16.2585 3.35856 15.8975 3.86811 15.5101 4.35133C15.3277 4.57883 15.1943 4.84959 14.9968 5.05829C14.5512 5.53023 14.2259 6.0849 13.9025 6.63392C13.5284 7.27132 13.22 7.94633 12.8834 8.60441C12.8026 8.76423 12.7199 8.92216 12.6371 9.08198C12.5394 9.0801 12.4416 9.07634 12.3457 9.07446C12.4397 8.84696 12.5243 8.61569 12.6277 8.39382C13.1467 7.29389 13.7427 6.23344 14.4553 5.24819C15.1943 4.22911 15.9539 3.22131 16.8695 2.34512C17.3565 1.87882 17.8567 1.42381 18.3305 0.942467C18.5787 0.692397 18.8438 0.594625 19.1822 0.673594C19.2255 0.682995 19.2725 0.682995 19.3176 0.686756C19.3496 0.688636 19.3815 0.690516 19.4154 0.692396C19.6805 0.690516 19.9437 0.686756 20.2088 0.684876C20.2577 0.671714 20.3066 0.658553 20.3555 0.647271C20.3762 0.645391 20.395 0.63975 20.4138 0.63411C20.442 0.628469 20.4702 0.622828 20.4965 0.617188C20.5849 0.620948 20.6732 0.622828 20.7616 0.626589L20.7654 0.645391L20.7842 0.64163C20.7334 0.748803 20.7071 0.878539 20.63 0.957509C20.2145 1.38244 19.7632 1.77353 19.3702 2.21726C18.887 2.76253 18.4245 3.33224 17.9958 3.92075C16.9786 5.3234 16.0798 6.79751 15.3917 8.39382C15.2713 8.67209 15.1378 8.94473 15.01 9.21924L15.0156 9.22488Z" fill="white"/>
<path d="M22.45 12.459C22.3222 12.4816 22.1962 12.5041 22.0684 12.5267C22.3165 11.6298 22.5741 10.7367 22.9709 9.89062C23.2604 9.27202 23.4955 8.62334 23.8132 8.01979C24.178 7.3241 24.5879 6.65098 25.0128 5.98914C25.7066 4.908 26.5001 3.89832 27.3706 2.95444C28.0494 2.21927 28.7883 1.54239 29.5028 0.841065C29.6889 0.658683 29.9371 0.694407 30.1646 0.677485C30.2981 0.668084 30.4335 0.700048 30.567 0.713209C30.567 0.873029 30.4993 0.972681 30.332 0.982082C29.8375 1.01217 29.4746 1.26412 29.1474 1.6176C28.8823 1.90528 28.557 2.13842 28.2882 2.42422C27.7373 3.01273 27.1638 3.5768 26.6599 4.21232C26.2895 4.6805 25.9322 5.14867 25.6295 5.66198C25.4998 5.88196 25.3099 6.06811 25.1764 6.28809C24.8079 6.89165 24.4562 7.5046 24.0971 8.11192C24.0746 8.1514 24.052 8.19089 24.037 8.23225C23.7925 8.96554 23.4428 9.65183 23.1156 10.3475C23.0254 10.5374 22.9953 10.7555 22.9314 10.9586C22.7716 11.4587 22.6099 11.9589 22.4482 12.459H22.45Z" fill="white"/>
<path d="M18.0554 10.5707C17.9445 10.5707 17.8316 10.5707 17.7207 10.5707C17.9651 9.96903 18.1738 9.35043 18.4615 8.76944C18.877 7.92522 19.3151 7.08663 19.8078 6.28566C20.2722 5.53168 20.808 4.82284 21.3345 4.10835C21.5733 3.78495 21.8516 3.48599 22.1336 3.19644C22.7936 2.52331 23.4686 1.86335 24.1379 1.19963C24.2413 1.09622 24.3636 1.00973 24.4557 0.898794C24.6399 0.673167 24.8618 0.592317 25.142 0.673167C25.1965 0.680687 25.251 0.688208 25.3037 0.695729C25.3432 0.695729 25.3826 0.695729 25.4221 0.695729C25.4503 0.695729 25.4785 0.695729 25.5067 0.695729C25.5913 0.69949 25.6778 0.70513 25.7624 0.708891C25.7662 0.893153 25.6684 0.974004 25.4917 0.979644C25.4353 0.979644 25.377 0.990926 25.3225 0.983405C24.8957 0.921357 24.5798 1.1357 24.3015 1.40646C23.6415 2.0495 22.9722 2.68501 22.3498 3.36378C21.8591 3.90152 21.4248 4.49191 20.9848 5.07479C20.6595 5.50348 20.3399 5.93969 20.0616 6.40035C19.7608 6.89861 19.5107 7.43071 19.2362 7.9459C19.0782 8.24297 18.9128 8.53629 18.7511 8.83149C18.7285 8.87097 18.6965 8.90481 18.6815 8.94618C18.5555 9.27898 18.4371 9.61554 18.3092 9.94834C18.2302 10.157 18.14 10.362 18.0554 10.5707Z" fill="white"/>
<path d="M27.5947 9.42223C27.4857 9.42223 27.3766 9.42223 27.2676 9.42223C27.292 9.3489 27.3108 9.27182 27.3428 9.20037C27.9445 7.86728 28.6458 6.58873 29.4768 5.38162C30.1669 4.37946 30.9397 3.44498 31.7651 2.55187C31.9625 2.33753 32.1844 2.14574 32.395 1.9408C32.6695 1.67381 32.9703 1.42938 33.2091 1.13418C33.5287 0.739331 33.8935 0.541907 34.403 0.677283C34.403 0.697966 34.4106 0.713007 34.4256 0.726169C34.4952 0.726169 34.5647 0.726169 34.6343 0.726169C34.6437 0.711127 34.64 0.697966 34.6268 0.686684C34.7622 0.696085 34.8975 0.703606 35.0329 0.713007C35.1025 0.760013 35.1721 0.807019 35.2416 0.854024C35.1984 0.919833 35.157 0.987521 35.1138 1.05333C35.0047 1.03641 34.8975 1.00444 34.7885 1.00256C34.5441 0.996922 34.2978 0.998803 34.0533 1.01384C33.948 1.02137 33.8277 1.04393 33.7468 1.1041C33.5494 1.25075 33.3633 1.41621 33.1865 1.58919C32.6657 2.10062 32.1449 2.61204 31.6353 3.13474C31.3853 3.39234 31.1446 3.66309 30.9227 3.94512C30.5693 4.3945 30.2327 4.85892 29.8905 5.31769C29.804 5.43427 29.7175 5.5546 29.6423 5.6787C29.2869 6.26533 28.9241 6.84632 28.5856 7.44235C28.3261 7.89925 28.0968 8.37495 27.8561 8.84312C27.8354 8.88261 27.8298 8.92961 27.811 8.9691C27.7414 9.1214 27.6681 9.27182 27.5966 9.42223H27.5947Z" fill="white"/>
<path d="M25.1651 10.4394C25.073 10.4149 24.9809 10.3905 24.8906 10.366C25.0749 9.89786 25.2385 9.42028 25.4491 8.96338C25.8176 8.16053 26.2124 7.37083 26.6035 6.57925C26.6975 6.38935 26.8179 6.21073 26.9363 6.03398C27.2428 5.56581 27.5417 5.09199 27.8689 4.63885C28.1566 4.24025 28.4781 3.86608 28.7865 3.48063C28.8485 3.40166 28.9106 3.32269 28.9745 3.24372C29.3317 2.81315 29.689 2.3807 30.0481 1.95201C30.3997 1.53271 30.7569 1.1153 31.1104 0.697892L31.1123 0.675328C31.1386 0.667808 31.1631 0.662167 31.1894 0.654647C31.2289 0.647126 31.2684 0.637724 31.3078 0.630203C31.3361 0.624563 31.3661 0.618922 31.3943 0.613281C31.4601 0.618922 31.526 0.626443 31.5918 0.632083C31.5955 0.68473 31.5974 0.737377 31.6012 0.791903C31.5241 0.870873 31.4526 0.953603 31.3718 1.02693C31.1969 1.18487 30.9976 1.32025 30.8415 1.49323C29.5705 2.90528 28.322 4.33802 27.3481 5.97758C26.8329 6.84436 26.3816 7.75064 25.936 8.65503C25.6502 9.23602 25.4227 9.84521 25.1689 10.4412L25.1651 10.4394Z" fill="white"/>
<path d="M35.1124 1.05521C35.1557 0.9894 35.197 0.921712 35.2403 0.855904C35.2873 0.812659 35.3362 0.769414 35.3832 0.728049C35.4264 0.701725 35.4697 0.677282 35.5148 0.650959C35.5543 0.643438 35.5957 0.635917 35.6351 0.628396C35.6652 0.624635 35.6934 0.618995 35.7235 0.615234C35.7893 0.622755 35.8532 0.630277 35.9191 0.637798C35.9285 0.667881 35.9379 0.699845 35.9454 0.729929C35.9247 0.872826 35.8363 0.963077 35.7235 1.04957C35.1688 1.47638 34.6649 1.95584 34.2287 2.50487C34.0614 2.71545 33.864 2.90348 33.6891 3.10842C32.858 4.08802 32.0834 5.11086 31.4366 6.2202C31.0004 6.96665 30.6187 7.74507 30.2276 8.51596C30.0095 8.94654 29.8252 9.39215 29.6241 9.83024C29.5319 9.80768 29.4398 9.78512 29.3477 9.76256C29.4022 9.59334 29.4473 9.42223 29.515 9.25865C29.5789 9.10448 29.6673 8.9597 29.7406 8.80928C29.8722 8.53853 29.9945 8.26213 30.1317 7.99326C30.3141 7.63601 30.5021 7.28065 30.692 6.92717C30.8556 6.62257 31.0041 6.31045 31.1922 6.02278C31.5776 5.43427 31.9706 4.84763 32.3899 4.28356C32.7716 3.77214 33.189 3.28704 33.5951 2.79442C33.8019 2.54435 34.0144 2.29804 34.2287 2.05361C34.4055 1.85243 34.5879 1.65876 34.7665 1.46134C34.8831 1.32972 34.9959 1.19435 35.1106 1.05897L35.1124 1.05521Z" fill="white"/>
<path d="M21.3215 7.94806C21.2482 7.92174 21.1749 7.8973 21.1016 7.87097C21.2219 7.6303 21.3385 7.38963 21.4626 7.15272C21.6299 6.83496 21.7897 6.51344 21.9777 6.20697C22.2466 5.76887 22.5362 5.34206 22.8201 4.91337C23.0044 4.63321 23.183 4.34742 23.3804 4.07667C23.606 3.77019 23.8448 3.47123 24.0892 3.17792C24.548 2.62701 24.9899 2.0573 25.4863 1.54211C25.7495 1.2676 25.9826 0.972405 26.2346 0.692251L26.2402 0.669688C26.2647 0.664047 26.2891 0.656527 26.3136 0.650886C26.353 0.643365 26.3944 0.635844 26.4339 0.628323C26.464 0.622682 26.4922 0.618922 26.5223 0.613281C26.5881 0.624563 26.6558 0.637724 26.7216 0.649005C26.7272 0.673448 26.731 0.699772 26.7366 0.724215C26.5655 0.897196 26.3925 1.07206 26.2214 1.24504C25.5088 1.96517 24.8319 2.7135 24.2002 3.50696C23.371 4.54672 22.6546 5.65982 21.9815 6.803C21.8104 7.09256 21.675 7.40279 21.5152 7.69799C21.4663 7.79012 21.3874 7.86533 21.3215 7.94806Z" fill="white"/>
<path d="M37.2588 1.58771C37.0765 1.61215 36.8659 1.53506 36.7267 1.72497C36.6196 1.83966 36.5312 1.9788 36.4052 2.06717C35.6569 2.58987 35.1567 3.34761 34.5532 4.00569C34.3031 4.27832 34.0982 4.59044 33.8763 4.88939C33.4683 5.43842 33.0866 6.00625 32.7651 6.61357C32.6147 6.8956 32.389 7.14003 32.1991 7.40138C32.1145 7.40138 32.0299 7.40138 31.9453 7.40138C32.1709 7.00089 32.3778 6.58912 32.6278 6.20368C32.9625 5.68473 33.3198 5.17895 33.6883 4.68445C34.0925 4.14482 34.4987 3.60332 34.948 3.10318C35.435 2.55979 35.9746 2.06153 36.4879 1.54258C36.6534 1.37524 36.8113 1.1985 36.9749 1.02928C37.0407 0.961594 37.0671 0.833738 37.2024 0.869463C37.3735 0.916468 37.3228 1.05749 37.3246 1.17594C37.3058 1.16842 37.287 1.16654 37.2682 1.1703C37.2607 1.16278 37.2551 1.1515 37.2476 1.14774C37.24 1.14586 37.2306 1.1515 37.2212 1.15338C37.2363 1.21166 37.2513 1.27183 37.2664 1.33012C37.272 1.37148 37.2776 1.41097 37.2814 1.45233C37.2814 1.48054 37.2795 1.50686 37.2776 1.53506C37.2776 1.55575 37.2682 1.57267 37.257 1.58959L37.2588 1.58771Z" fill="white"/>
<path d="M9.1287 7.2659C9.05913 7.19821 8.99144 7.12864 8.92188 7.06096C8.97452 6.92558 9.01213 6.78268 9.08357 6.65859C9.35621 6.18289 9.61756 5.69967 9.92028 5.24465C10.4204 4.4888 10.93 3.73671 11.4733 3.01094C11.9096 2.42995 12.4041 1.89408 12.8685 1.33377C12.938 1.24916 12.9851 1.14951 13.0433 1.0555C13.1148 0.950207 13.1844 0.843034 13.2558 0.737741C13.3047 0.715178 13.3517 0.690735 13.4006 0.668173C13.4382 0.658772 13.4758 0.64937 13.5153 0.639969C13.5454 0.634328 13.5754 0.628688 13.6055 0.623047C13.677 0.628688 13.7465 0.634328 13.818 0.639969C13.8274 0.670053 13.8368 0.702017 13.8481 0.732101C13.7823 0.820471 13.724 0.916363 13.6488 0.997213C13.331 1.33001 12.9888 1.64213 12.6917 1.99185C12.1897 2.58225 11.6896 3.18016 11.2346 3.80628C10.7927 4.41359 10.3979 5.05851 9.99549 5.69591C9.76422 6.06443 9.55739 6.448 9.34681 6.82969C9.26784 6.97071 9.20391 7.12112 9.13246 7.26778L9.1287 7.2659Z" fill="white"/>
<path d="M24.081 32.3046C24.2145 32.3046 24.3461 32.3046 24.4796 32.3046C24.3555 32.5133 24.2333 32.722 24.1092 32.9307C24.0584 33.0153 23.9888 33.0943 23.9531 33.1846C23.6485 33.9461 23.0957 34.5459 22.6332 35.2039C22.4828 35.4183 22.2872 35.4878 22.0202 35.4672C21.5596 35.4333 21.097 35.439 20.6364 35.4277C20.6044 35.4333 20.5706 35.4371 20.5386 35.4427C20.3882 35.4427 20.2378 35.4408 20.0234 35.439C20.0911 35.3017 20.1099 35.2077 20.1682 35.1588C20.5856 34.8034 20.8169 34.3183 21.0952 33.8652C21.129 33.8107 21.176 33.7637 21.2155 33.7129C21.2907 33.7599 21.3659 33.8088 21.4411 33.8558C21.2569 34.2187 20.9786 34.5346 20.8489 34.9821C21.0162 34.9915 21.1347 34.9971 21.255 35.0065C21.3885 35.0178 21.537 35.0009 21.6536 35.0535C22.0202 35.2209 22.2985 35.0742 22.526 34.8166C22.7573 34.5571 22.9641 34.2751 23.1597 33.9874C23.3044 33.7768 23.4154 33.5437 23.5413 33.3199C23.7933 33.2222 23.908 33.0266 23.9381 32.769C23.9851 32.613 24.034 32.4588 24.081 32.3027V32.3046Z" fill="white"/>
<path d="M15.8968 30.3496C16.0096 30.3496 16.1224 30.3496 16.2352 30.3496C16.1356 30.6222 16.051 30.9005 15.9306 31.1637C15.4361 32.2562 14.9059 33.3298 14.1933 34.3019C13.9545 34.6271 13.6988 34.9393 13.4431 35.2514C13.3284 35.3924 13.193 35.5146 12.9824 35.4601C12.9824 35.3322 12.9824 35.2025 12.9824 35.0746C13.2118 35.0521 13.3848 34.9261 13.5089 34.7475C13.8454 34.2605 14.2553 33.8224 14.5242 33.2884C14.7536 32.8296 14.9773 32.369 15.203 31.9083C15.3365 31.6376 15.4756 31.3706 15.5997 31.0961C15.7088 30.8516 15.799 30.5997 15.8987 30.3515L15.8968 30.3496Z" fill="white"/>
<path d="M3.04058 32.5077C3.13836 32.5341 3.23613 32.5585 3.3339 32.5848C2.77171 33.5437 2.2208 34.5121 1.45555 35.3318C1.42547 35.3638 1.3841 35.3864 1.35026 35.4127C1.32394 35.4221 1.29761 35.4296 1.27129 35.439H0.611328C0.635771 35.1927 0.656453 34.9972 0.677136 34.8016C0.786189 34.8261 0.897123 34.8505 1.00618 34.8731C1.06258 35.0103 1.16976 35.0216 1.28069 34.9633C1.36906 34.9182 1.45367 34.858 1.51948 34.7847C1.67554 34.6098 1.83912 34.4387 1.96509 34.2413C2.33362 33.6697 2.68334 33.085 3.04246 32.5059L3.04058 32.5077Z" fill="white"/>
<path d="M9.86976 31.6953C9.94121 31.7235 10.0127 31.7517 10.0822 31.7799C10.0258 31.9698 9.99574 32.1729 9.90924 32.3478C9.41662 33.3443 8.77735 34.2505 8.10422 35.1343C7.97073 35.3091 7.84851 35.5197 7.56836 35.4614C7.56836 35.3336 7.56836 35.2038 7.56836 35.076C7.88424 34.9556 8.11551 34.7375 8.28473 34.448C8.35806 34.3239 8.44643 34.2073 8.52728 34.0851C8.74914 33.7504 8.98981 33.427 9.18348 33.0773C9.43167 32.6279 9.64037 32.156 9.866 31.6953H9.86976Z" fill="white"/>
<path d="M7.57244 35.0752C7.57244 35.203 7.57244 35.3328 7.57244 35.4606C7.12119 35.4475 6.66805 35.4343 6.2168 35.4211C6.27132 35.2989 6.32585 35.1767 6.38038 35.0526C6.77899 34.9868 7.17759 35.0112 7.57432 35.0752H7.57244Z" fill="white"/>
<path d="M6.38053 35.0535C6.32601 35.1757 6.27148 35.2979 6.21695 35.422C6.06277 35.4934 5.92176 35.4596 5.76758 35.3825C5.80142 35.1306 5.99509 35.014 6.15303 34.8711C6.22635 34.8937 6.29968 34.9162 6.37301 34.9388C6.37489 34.9764 6.37677 35.0159 6.38053 35.0535Z" fill="white"/>
<path d="M29.2633 10.7726C29.1599 10.7726 29.0546 10.7726 28.9512 10.7726C29.0395 10.547 29.126 10.3213 29.2144 10.0957C29.3216 10.0957 29.4269 10.0976 29.534 10.0995L29.2633 10.7726Z" fill="white"/>
<path d="M29.5325 10.0982C29.4254 10.0982 29.3201 10.0963 29.2129 10.0944C29.258 9.98351 29.3031 9.8707 29.3464 9.75977C29.4385 9.78233 29.5306 9.80489 29.6228 9.82745C29.5927 9.91771 29.5607 10.008 29.5306 10.0982H29.5325Z" fill="white"/>
<path d="M9.73433 21.4727C9.71929 21.7058 9.70613 21.939 9.69109 22.174C9.66476 21.9371 9.58579 21.6983 9.73433 21.4727Z" fill="white"/>
<path d="M20.5544 20.4453C20.5412 20.6164 20.5281 20.7875 20.5149 20.9605C20.4886 20.7856 20.4416 20.6089 20.5544 20.4453Z" fill="white"/>
<path d="M20.3079 22.252C20.3549 22.4306 20.3982 22.6092 20.291 22.7822C20.2967 22.6054 20.3023 22.4287 20.3079 22.252Z" fill="white"/>
<path d="M28.1299 22.3184C28.1224 22.5026 28.1149 22.685 28.1074 22.8693C28.066 22.6831 27.9983 22.497 28.1299 22.3184Z" fill="#0B89B7"/>
<path d="M35.3848 0.72713C35.3378 0.770376 35.2889 0.813621 35.2419 0.854986C35.1723 0.80798 35.1028 0.760975 35.0332 0.713969C35.1235 0.706448 35.2137 0.698927 35.304 0.691406C35.3303 0.702688 35.3585 0.713969 35.3848 0.72525V0.72713Z" fill="white"/>
<path d="M27.9289 23.8672C27.9214 24.0007 27.912 24.1342 27.9044 24.2677C27.8443 24.1304 27.8424 23.9969 27.9289 23.8672Z" fill="white"/>
<path d="M28.2603 21.4453C28.2471 21.5562 28.2358 21.6672 28.2227 21.7762C28.2358 21.6653 28.2471 21.5544 28.2603 21.4453Z" fill="white"/>
<path d="M28.4366 20.2129C28.4968 20.3332 28.5081 20.4517 28.4141 20.5626C28.4216 20.446 28.4291 20.3295 28.4366 20.2129Z" fill="white"/>
<path d="M12.252 23.7311C12.2614 23.6183 12.2726 23.5055 12.282 23.3945C12.3384 23.513 12.3441 23.6258 12.252 23.7311Z" fill="#0B89B7"/>
<path d="M15.5395 21.5762C15.5395 21.6871 15.5395 21.798 15.5395 21.909C15.4737 21.798 15.4587 21.6852 15.5395 21.5762Z" fill="white"/>
<path d="M5.75 23.1919C5.75752 23.0791 5.76504 22.9644 5.77256 22.8516C5.85153 22.97 5.82521 23.0828 5.75 23.1919Z" fill="#0B89B7"/>
<path d="M26.9863 22.9187C26.9938 22.8078 27.0014 22.6969 27.0089 22.5859C27.0935 22.7025 27.0916 22.8134 26.9863 22.9187Z" fill="white"/>
<path d="M24.6328 20.5625C24.6385 20.6734 24.6422 20.7862 24.6479 20.8972C24.6422 20.7844 24.6385 20.6734 24.6328 20.5625Z" fill="white"/>
<path d="M28.3223 20.7168C28.3223 20.8221 28.3223 20.9293 28.3223 21.0346C28.2621 20.9274 28.2376 20.8221 28.3223 20.7168Z" fill="#0B89B7"/>
<path d="M5.31055 26.3259C5.31619 26.2056 5.31995 26.0853 5.32559 25.9668C5.31995 26.0871 5.31619 26.2075 5.31055 26.3259Z" fill="white"/>
<path d="M1.15539 0.669922C1.10086 0.81846 1.00873 0.713168 0.931641 0.701886C1.00685 0.690605 1.08206 0.681203 1.15539 0.669922Z" fill="white"/>
<path d="M9.58926 22.584C9.58362 22.6742 9.57986 22.7645 9.57422 22.8529C9.57986 22.7626 9.58362 22.6724 9.58926 22.584Z" fill="#0B89B7"/>
<path d="M18.3379 19.9522C18.3454 19.8601 18.3529 19.7699 18.3586 19.6777C18.3511 19.7699 18.3435 19.8601 18.3379 19.9522Z" fill="#0B89B7"/>
<path d="M35.9462 0.72885C35.9368 0.698767 35.9274 0.666802 35.9199 0.636719C35.9444 0.636719 35.9688 0.636719 35.9914 0.638599C35.9763 0.668683 35.9613 0.698767 35.9462 0.72885Z" fill="#0B89B7"/>
<path d="M10.345 16.1191C10.3394 16.2038 10.3338 16.2884 10.3281 16.3749C10.3338 16.2902 10.3394 16.2056 10.345 16.1191Z" fill="#0B89B7"/>
<path d="M37.2658 1.32795C37.2508 1.26967 37.2357 1.2095 37.2207 1.15121C37.2301 1.14933 37.2395 1.14181 37.247 1.14557C37.2564 1.14933 37.2621 1.16061 37.2677 1.16813C37.2809 1.2001 37.294 1.23206 37.3053 1.26402C37.2922 1.28471 37.279 1.30727 37.2658 1.32795Z" fill="white"/>
<path d="M6.17188 19.0755C6.17188 18.9853 6.17564 18.895 6.17752 18.8066C6.17752 18.8969 6.17376 18.9871 6.17188 19.0755Z" fill="white"/>
<path d="M13.3995 0.667969C13.3506 0.690532 13.3036 0.714974 13.2547 0.737537C13.2284 0.728136 13.202 0.716855 13.1738 0.707453C13.249 0.694292 13.3242 0.68113 13.3995 0.667969Z" fill="white"/>
<path d="M10.4818 15.3008C10.4761 15.3666 10.4705 15.4324 10.4648 15.5001C10.4705 15.4343 10.4761 15.3685 10.4818 15.3008Z" fill="white"/>
<path d="M34.4249 0.72662C34.4099 0.713458 34.4023 0.696537 34.4023 0.677734C34.4776 0.681495 34.5509 0.685255 34.6261 0.689015C34.6411 0.700297 34.643 0.713459 34.6336 0.728501C34.564 0.728501 34.4945 0.728501 34.4249 0.728501V0.72662Z" fill="#0B89B7"/>
<path d="M21.9153 13.0781C21.8928 13.1421 21.8702 13.206 21.8477 13.2718C21.8702 13.2079 21.8928 13.1439 21.9153 13.0781Z" fill="white"/>
<path d="M28.2317 21.9004C28.2261 21.9737 28.2204 22.047 28.2129 22.1204C28.2185 22.047 28.2242 21.9737 28.2317 21.9004Z" fill="white"/>
<path d="M35.3836 0.725599C35.3573 0.714318 35.3291 0.703037 35.3027 0.691755C35.3742 0.678594 35.4437 0.663552 35.5152 0.650391C35.472 0.676714 35.4287 0.701157 35.3836 0.72748V0.725599Z" fill="#0B89B7"/>
<path d="M31.5992 0.790679C31.5955 0.738032 31.5936 0.685386 31.5898 0.630859C31.6575 0.66345 31.6607 0.716723 31.5992 0.790679Z" fill="#0B89B7"/>
<path d="M28.6066 18.875C28.5822 18.9314 28.5596 18.9878 28.5352 19.0423C28.5596 18.9859 28.5822 18.9295 28.6066 18.875Z" fill="#0B89B7"/>
<path d="M13.1191 16.8334C13.1267 16.7939 13.1323 16.7544 13.1398 16.7168C13.1323 16.7563 13.1267 16.7958 13.1191 16.8334Z" fill="#0B89B7"/>
<path d="M24.8795 18.6758C24.8682 18.7153 24.8569 18.7548 24.8438 18.7942C24.855 18.7548 24.8663 18.7153 24.8795 18.6758Z" fill="white"/>
<path d="M27.2148 21.2448C27.2261 21.1997 27.2374 21.1565 27.2468 21.1113C27.2355 21.1565 27.2242 21.1997 27.2148 21.2448Z" fill="white"/>
<path d="M20.3595 0.650391C20.3107 0.663552 20.2618 0.676713 20.2129 0.687995C20.2618 0.674833 20.3107 0.661672 20.3595 0.650391Z" fill="#0B89B7"/>
<path d="M25.3043 0.698345C25.2498 0.690824 25.1952 0.683302 25.1426 0.675781C25.1971 0.683302 25.2516 0.690824 25.3043 0.698345Z" fill="#0B89B7"/>
<path d="M21.6346 14.1973C21.6158 14.248 21.597 14.2988 21.5801 14.3496C21.5989 14.2988 21.6177 14.248 21.6346 14.1973Z" fill="white"/>
<path d="M22.0388 12.6855C22.02 12.7457 22.0012 12.8059 21.9824 12.8679C22.0012 12.8078 22.02 12.7476 22.0388 12.6855Z" fill="white"/>
<path d="M9.48814 23.6543C9.48814 23.7032 9.48626 23.7502 9.48438 23.7991C9.48438 23.7502 9.48626 23.7032 9.48814 23.6543Z" fill="white"/>
<path d="M27.2656 20.4953C27.2882 20.4558 27.3107 20.4145 27.3352 20.375C27.3126 20.4145 27.2901 20.4558 27.2656 20.4953Z" fill="#0B89B7"/>
<path d="M28.3712 20.623C28.3767 20.6489 28.3657 20.6636 28.3398 20.6655C28.3509 20.6507 28.3601 20.636 28.3712 20.623Z" fill="#0B89B7"/>
<path d="M24.8527 19.2656C24.8452 19.2919 24.8396 19.3183 24.832 19.3427C24.8396 19.3164 24.8452 19.2901 24.8527 19.2656Z" fill="white"/>
<path d="M18.418 19.1552C18.4274 19.1289 18.4368 19.1044 18.4443 19.0781C18.4349 19.1044 18.4255 19.1289 18.418 19.1552Z" fill="white"/>
<path d="M18.5508 18.2633C18.5545 18.2426 18.5602 18.2238 18.5639 18.2031C18.5658 18.2182 18.5715 18.2332 18.5715 18.2501C18.5715 18.2558 18.5583 18.2595 18.5508 18.2652V18.2633Z" fill="white"/>
<path d="M12.9316 18.1966C12.9335 18.174 12.9354 18.1515 12.9373 18.1289C12.9429 18.1458 12.9504 18.1609 12.9523 18.1778C12.9523 18.1834 12.9392 18.1891 12.9316 18.1966Z" fill="white"/>
<path d="M5.75586 22.5902C5.7615 22.5601 5.76714 22.53 5.77466 22.498C5.76902 22.5281 5.76338 22.5582 5.75586 22.5902Z" fill="#0B89B7"/>
<path d="M20.1931 23.1719C20.1931 23.2038 20.1894 23.2358 20.1875 23.2678C20.1875 23.2358 20.1913 23.2038 20.1931 23.1719Z" fill="white"/>
<path d="M20.1873 23.4512C20.1854 23.4813 20.1835 23.5113 20.1816 23.5433C20.1835 23.5132 20.1854 23.4831 20.1873 23.4512Z" fill="white"/>
<path d="M15.3318 23.7324C15.3318 23.7644 15.3281 23.7964 15.3262 23.8283C15.3262 23.7964 15.3299 23.7644 15.3318 23.7324Z" fill="white"/>
<path d="M22.5618 23.9385C22.5543 23.9197 22.5448 23.9028 22.543 23.884C22.543 23.8783 22.558 23.8708 22.5655 23.8633C22.5655 23.8877 22.5637 23.914 22.5618 23.9385Z" fill="white"/>
<path d="M26.8294 23.9404C26.8238 23.9216 26.8144 23.9046 26.8125 23.8858C26.8125 23.8802 26.8257 23.8708 26.8332 23.8633C26.8332 23.8896 26.8313 23.914 26.8294 23.9385V23.9404Z" fill="white"/>
<path d="M37.2773 1.5339C37.2773 1.5057 37.2792 1.47938 37.2811 1.45117C37.2867 1.46997 37.2961 1.48878 37.298 1.50946C37.298 1.51698 37.2849 1.52638 37.2773 1.5339Z" fill="#0B89B7"/>
<path d="M37.3052 1.26582C37.292 1.23385 37.2789 1.20189 37.2676 1.16993C37.2864 1.16616 37.3052 1.16804 37.324 1.17369C37.3183 1.20377 37.3127 1.23573 37.3052 1.26582Z" fill="#0B89B7"/>
<path d="M9.48379 24.2031C9.47815 24.2238 9.47439 24.2445 9.46875 24.2671C9.47439 24.2464 9.47815 24.2257 9.48379 24.2031Z" fill="white"/>
<path d="M9.38905 24.8887C9.39458 24.8997 9.40011 24.9108 9.40564 24.9219C9.40011 24.9255 9.39273 24.9274 9.3872 24.9311C9.37614 24.9163 9.37614 24.9016 9.3872 24.8887H9.38905Z" fill="white"/>
<path d="M9.31668 25.1465C9.30164 25.1728 9.2866 25.1973 9.27344 25.2236C9.28848 25.1973 9.30352 25.1728 9.31668 25.1465Z" fill="white"/>
<path d="M19.4181 0.697047C19.3861 0.695167 19.3542 0.693286 19.3203 0.691406C19.3523 0.693286 19.3842 0.695167 19.4181 0.697047Z" fill="#0B89B7"/>
<path d="M13.8445 0.730803C13.8351 0.70072 13.8257 0.668756 13.8145 0.638672C13.8239 0.668756 13.8333 0.70072 13.8445 0.730803Z" fill="white"/>
<path d="M20.7656 0.628906C20.7656 0.628906 20.7802 0.639862 20.7875 0.64534L20.7693 0.648992L20.7656 0.630733V0.628906Z" fill="#0B89B7"/>
<path d="M37.3313 35.1433C37.3238 35.1245 37.3125 35.1076 37.3069 35.0888C37.305 35.0813 37.3144 35.07 37.32 35.0625C37.3276 35.0813 37.3388 35.0982 37.3445 35.117C37.3464 35.1245 37.337 35.1358 37.3313 35.1452V35.1433Z" fill="#0B89B7"/>
<path d="M11.3828 35.334C11.3941 35.3603 11.4054 35.3866 11.4148 35.413C11.4035 35.3866 11.3922 35.3603 11.3828 35.334Z" fill="#0B89B7"/>
<path d="M20.5007 0.621094C20.4725 0.626734 20.4443 0.632375 20.418 0.638016C20.4462 0.632375 20.4744 0.626734 20.5007 0.621094Z" fill="#0B89B7"/>
<path d="M32.1982 7.40103C32.39 7.13967 32.6156 6.89712 32.7641 6.61321C33.0856 6.00589 33.4654 5.43994 33.8753 4.88904C34.0972 4.59196 34.3021 4.27796 34.5522 4.00533C35.1558 3.34725 35.654 2.58952 36.4042 2.06681C36.5302 1.97844 36.6205 1.8393 36.7258 1.72461C36.8517 1.75469 36.9175 1.83554 36.9251 1.9634C36.9269 1.99724 36.9288 2.03109 36.9307 2.06493C36.9533 2.90727 36.9815 3.74774 36.9946 4.59008C36.9984 4.81383 36.9495 5.03758 36.9514 5.26132C36.9551 5.62985 36.9909 6.00025 36.9946 6.36878C37.0022 7.10019 37.0247 7.8316 36.9909 8.56113C36.9307 9.90925 37.0435 11.2536 36.9965 12.5999C36.9777 13.1263 36.9514 13.6509 36.9401 14.1774C36.9345 14.4011 36.9589 14.6249 36.9702 14.8486C36.9777 14.9821 37.0022 15.1175 36.9946 15.251C36.9345 16.1817 37.0228 17.1124 36.9946 18.0412C36.9909 18.1973 36.9646 18.3534 36.9533 18.5094C36.9439 18.6542 36.9307 18.8009 36.9345 18.9456C36.9514 19.4608 36.9871 19.9779 36.9909 20.4931C37.0003 21.5498 36.9984 22.6083 36.9909 23.665C36.989 23.979 36.9514 24.2911 36.9382 24.6051C36.9307 24.7838 36.9157 24.968 36.9401 25.1448C37.0153 25.6825 37.0116 26.2165 36.942 26.7561C36.91 27.0099 36.9157 27.2751 36.942 27.5308C37.0172 28.2377 37.0003 28.9409 36.9552 29.6498C36.9326 30.0033 36.9683 30.3605 36.9796 30.7159C36.9834 30.84 36.9909 30.9622 36.9928 31.0863C36.9928 31.8515 37.0003 32.6168 36.9909 33.3802C36.9852 33.8277 36.9458 34.277 36.9269 34.7245C36.9194 34.8806 36.848 34.984 36.6976 35.016C36.5659 35.0423 36.4306 35.0649 36.2971 35.0649C32.8017 35.0667 29.3083 35.0705 25.8129 35.0649C25.3917 35.0649 24.9687 35.0028 24.5137 34.9671C24.5494 34.8843 24.5626 34.8336 24.5908 34.7903C24.8145 34.4275 25.042 34.0664 25.2658 33.7036C25.482 33.352 25.7057 33.006 25.9069 32.645C26.0329 32.4213 26.1326 32.1806 26.2303 31.9437C26.5236 31.2273 26.8076 30.5072 27.0971 29.787C27.1046 29.7664 27.1216 29.7457 27.1234 29.725C27.1535 29.129 27.5747 28.6326 27.5521 28.014C27.5446 27.779 27.6856 27.5421 27.7326 27.3014C27.8548 26.6753 27.9695 26.0473 28.0748 25.4174C28.1538 24.9436 28.2046 24.4641 28.2854 23.9884C28.3418 23.6575 28.4302 23.3341 28.4979 23.0051C28.5223 22.8847 28.5374 22.7606 28.5392 22.6384C28.5468 22.2624 28.6953 21.907 28.6408 21.5159C28.6069 21.2752 28.7179 21.0101 28.7799 20.7601C28.8382 20.5288 28.8927 20.3013 28.8194 20.0644C28.81 20.0324 28.81 19.9967 28.8156 19.9647C28.8833 19.5924 28.9548 19.222 29.0187 18.8497C29.0657 18.5734 29.1014 18.297 29.1447 18.0206C29.1973 17.6896 29.265 17.3606 29.3026 17.0278C29.3271 16.8078 29.312 16.5822 29.3177 16.3603C29.3195 16.2738 29.3007 16.161 29.3459 16.1046C29.5621 15.8395 29.5452 15.5142 29.6147 15.2115C29.6881 14.8825 29.7576 14.5534 29.831 14.2263C29.9419 13.7355 30.0566 13.2448 30.1675 12.754C30.1732 12.7315 30.1713 12.707 30.1788 12.6882C30.489 11.9549 30.5793 11.154 30.8971 10.4226C31.0794 10.0033 31.2261 9.56705 31.4085 9.14776C31.5062 8.92401 31.6548 8.72471 31.7714 8.50848C31.8992 8.27345 32.029 8.03654 32.1324 7.79211C32.1831 7.67366 32.1756 7.53076 32.1925 7.39914L32.1982 7.40103Z" fill="white"/>
<path d="M3.04019 32.5073C2.68295 33.0865 2.33135 33.6693 1.96282 34.2428C1.83685 34.4383 1.67327 34.6113 1.51721 34.7862C1.4514 34.8595 1.36491 34.9197 1.27842 34.9648C1.16749 35.0231 1.06031 35.0118 1.00391 34.8746C1.00579 34.098 1.00955 33.3215 1.00955 32.5468C1.00955 29.5009 1.00955 26.4549 1.00955 23.4108C1.00955 16.202 1.00955 8.99506 1.00955 1.78626C1.00955 1.62832 1.00955 1.47038 1.01519 1.31432C1.02083 1.15262 1.1092 1.0699 1.2709 1.06049C1.97598 1.01537 2.68295 0.934518 3.38804 0.928878C5.38296 0.910075 7.37976 0.908195 9.37469 0.928878C10.1606 0.936399 10.9466 1.02101 11.7325 1.06801C11.866 1.07554 11.9995 1.07177 12.133 1.07177C12.4376 1.06801 12.7422 1.06425 13.0449 1.05861C12.9866 1.15262 12.9396 1.25416 12.87 1.33689C12.4056 1.8972 11.9111 2.43306 11.4749 3.01405C10.9315 3.73982 10.422 4.49191 9.92183 5.24777C9.61912 5.70466 9.35589 6.186 9.08513 6.6617C9.01368 6.78579 8.97608 6.92869 8.92343 7.06407C8.61319 7.63378 8.25407 8.17905 8.10553 8.82208C8.09989 8.84465 8.10177 8.87285 8.08861 8.88601C7.78777 9.19249 7.83478 9.63998 7.63735 9.99347C7.52454 10.1947 7.48882 10.4372 7.41361 10.6609C7.36096 10.8189 7.30267 10.9768 7.24439 11.1348C7.22559 11.1874 7.19362 11.2363 7.18046 11.2889C7.0526 11.7872 6.92475 12.2873 6.80253 12.7875C6.77809 12.8853 6.77997 12.9887 6.75553 13.0864C6.70664 13.2688 6.64835 13.4493 6.59007 13.6298C6.56938 13.6938 6.5205 13.752 6.51298 13.816C6.42461 14.6414 6.15573 15.4367 6.14257 16.2753C6.13693 16.6307 6.0448 16.9823 5.9978 17.3376C5.97523 17.5144 5.97523 17.6949 5.94703 17.8716C5.92447 18.0108 5.8737 18.1461 5.83798 18.2853C5.80601 18.4131 5.75901 18.541 5.75148 18.6707C5.71764 19.2968 5.71576 19.9248 5.5691 20.5397C5.56722 20.551 5.56158 20.5622 5.56346 20.5735C5.68004 21.0267 5.44689 21.4535 5.47133 21.9028C5.48073 22.089 5.42432 22.2789 5.39612 22.465C5.38296 22.5534 5.34912 22.6399 5.34912 22.7283C5.33407 23.5029 5.2081 24.2663 5.09153 25.0297C5.01256 25.5486 4.96555 26.0713 4.86966 26.5865C4.76625 27.1468 4.63463 27.7034 4.49549 28.258C4.33003 28.9217 4.16457 29.5855 3.95587 30.236C3.80921 30.6929 3.5911 31.1273 3.4106 31.5729C3.28462 31.8831 3.16617 32.199 3.04395 32.5111L3.04019 32.5073Z" fill="white"/>
<path d="M6.38057 35.0534C6.37869 35.0158 6.37493 34.9763 6.37305 34.9387C6.59303 34.8033 6.70961 34.6021 6.81866 34.3709C7.01045 33.9666 7.24735 33.583 7.49178 33.207C7.67228 32.9306 7.80954 32.6429 7.91483 32.3308C8.13106 31.6821 8.36985 31.041 8.59172 30.3942C8.65 30.225 8.68761 30.0501 8.72897 29.8752C8.77974 29.6571 8.84179 29.4522 8.9358 29.2435C9.06929 28.9539 9.11818 28.623 9.18587 28.3052C9.278 27.8765 9.35885 27.446 9.43406 27.0154C9.4773 26.7728 9.49799 26.5265 9.53371 26.2821C9.55063 26.1712 9.57508 26.0621 9.6014 25.9549C9.68225 25.6297 9.76686 25.3063 9.84771 24.981C9.85335 24.9603 9.85711 24.934 9.84959 24.9152C9.72173 24.5335 9.8966 24.1574 9.87215 23.7776C9.86651 23.7024 9.87591 23.6047 9.92104 23.552C10.0771 23.3659 10.0696 23.1684 10.0207 22.9485C9.99437 22.8319 10.0169 22.7021 10.0245 22.5799C10.0376 22.39 10.0677 22.2001 10.0696 22.0102C10.0715 21.762 10.0827 21.5251 10.2144 21.2957C10.2726 21.1942 10.235 21.0381 10.2426 20.9065C10.2538 20.7411 10.2689 20.5775 10.2802 20.4139C10.2933 20.2259 10.3272 20.036 10.3084 19.8517C10.2914 19.69 10.2839 19.5471 10.3667 19.3986C10.4795 19.1955 10.4945 18.9737 10.4475 18.7443C10.4231 18.6258 10.4268 18.4998 10.4419 18.3795C10.4682 18.1689 10.4926 17.9564 10.5547 17.7553C10.707 17.272 10.6092 16.7587 10.7765 16.2718C10.88 15.9728 10.8461 15.6287 10.8875 15.3053C10.9082 15.1399 10.9514 14.9782 10.9909 14.8165C11.0059 14.7525 11.0492 14.6924 11.0623 14.6284C11.1902 14.0042 11.3124 13.3781 11.4421 12.7539C11.476 12.5903 11.538 12.4323 11.5907 12.2725C11.6151 12.1973 11.6678 12.1277 11.6753 12.0544C11.7148 11.6558 11.9291 11.3136 12.0307 10.9375C12.1867 10.3622 12.3653 9.79813 12.6116 9.25474C12.6342 9.20586 12.6304 9.14569 12.638 9.08928C12.7207 8.92946 12.8034 8.77152 12.8843 8.6117C13.2208 7.95362 13.5292 7.27862 13.9034 6.64122C14.2268 6.0922 14.5502 5.53565 14.9977 5.06559C15.197 4.855 15.3286 4.58613 15.511 4.35862C15.8983 3.87728 16.2593 3.36586 16.7011 2.93905C17.2163 2.44267 17.6431 1.84476 18.2749 1.47059C18.3031 1.45367 18.3313 1.4311 18.3501 1.40478C18.6754 0.981729 19.1323 0.957286 19.6061 0.998652C19.6926 1.00617 19.8186 1.06634 19.8449 1.13403C19.8712 1.2036 19.8242 1.33333 19.7678 1.40102C19.5347 1.67553 19.2733 1.9256 19.0477 2.20388C18.5381 2.83 18.0211 3.45235 17.5454 4.10291C17.096 4.71775 16.6635 5.3495 16.2837 6.00947C15.8738 6.71831 15.5279 7.46476 15.1688 8.20369C15.0428 8.46317 14.9676 8.74708 14.8698 9.01971C14.8134 9.09868 14.7438 9.17201 14.7025 9.26038C14.6498 9.37132 14.6367 9.50293 14.5765 9.60823C14.2437 10.1911 14.1478 10.8605 13.8921 11.4659C13.7003 11.9209 13.674 12.4022 13.5217 12.8573C13.4747 12.9964 13.4183 13.1299 13.3825 13.2709C13.3318 13.4759 13.2942 13.6864 13.2547 13.8933C13.2434 13.9478 13.2603 14.0136 13.2359 14.0587C12.9821 14.5288 13.0516 15.0665 12.9144 15.5648C12.826 15.8807 12.858 16.2285 12.8354 16.5613C12.8298 16.6384 12.8523 16.7362 12.8147 16.7907C12.5872 17.1122 12.6098 17.4958 12.5364 17.8549C12.4876 18.0956 12.4782 18.3438 12.4537 18.5901C12.3804 19.314 12.3146 20.0397 12.2337 20.7617C12.1924 21.1284 12.1209 21.4932 12.0701 21.8598C12.0307 22.1494 12.0062 22.4389 11.9686 22.7285C11.9141 23.1459 11.8483 23.5633 11.7956 23.9807C11.758 24.2815 11.7392 24.5843 11.7016 24.8832C11.6772 25.0712 11.6283 25.2555 11.5944 25.4416C11.5192 25.8497 11.4591 26.2595 11.3726 26.6657C11.224 27.3783 11.0661 28.0909 10.9006 28.7997C10.8555 28.9953 10.7653 29.1795 10.6938 29.3676C10.4362 30.0576 10.1768 30.7477 9.92104 31.4396C9.89096 31.5223 9.8872 31.6144 9.87215 31.7009C9.64653 32.1635 9.43782 32.6335 9.18963 33.0829C8.99597 33.4326 8.75342 33.756 8.53343 34.0907C8.45258 34.211 8.36421 34.3276 8.29088 34.4536C8.11978 34.7431 7.89039 34.9612 7.57451 35.0816C7.17778 35.0177 6.78106 34.9932 6.38057 35.059V35.0534Z" fill="white"/>
<path d="M29.3482 9.76096C29.3031 9.8719 29.258 9.98471 29.2148 10.0956C29.1264 10.3213 29.0399 10.5469 28.9515 10.7725C28.7616 11.3441 28.5623 11.9157 28.3818 12.4911C28.2314 12.9686 28.0791 13.45 27.9625 13.937C27.8234 14.5255 27.7162 15.1215 27.6034 15.7157C27.5207 16.1556 27.4473 16.5975 27.3778 17.0412C27.3477 17.2292 27.3308 17.4191 27.327 17.609C27.3214 17.8347 27.2819 18.0415 27.1935 18.2577C27.0995 18.489 27.0995 18.7597 27.0619 19.0136C27.0036 19.4103 26.9265 19.807 26.8945 20.2056C26.8569 20.6701 26.8607 21.1364 26.7291 21.5951C26.6689 21.802 26.714 22.037 26.6125 22.2495C26.5674 22.3435 26.5937 22.4694 26.5806 22.5804C26.5542 22.7778 26.5241 22.9771 26.4941 23.1745C26.4847 23.2403 26.4527 23.3061 26.4546 23.372C26.4884 24.1899 26.2459 24.9683 26.1368 25.7655C26.024 26.5796 25.7739 27.358 25.6047 28.1571C25.5069 28.6216 25.3659 29.0653 25.1553 29.4883C25.1347 29.5278 25.1177 29.5711 25.1121 29.6162C24.9955 30.4059 24.5762 31.0884 24.3299 31.8311C24.2754 31.9984 24.1663 32.1489 24.0817 32.3049C24.0347 32.461 23.9858 32.6152 23.9388 32.7712C23.6662 32.854 23.5853 33.0739 23.5421 33.3221C23.4161 33.5459 23.3052 33.779 23.1604 33.9896C22.963 34.2773 22.7562 34.5593 22.5268 34.8188C22.2974 35.0764 22.021 35.2212 21.6544 35.0557C21.5378 35.0031 21.3911 35.02 21.2557 35.0087C21.1373 34.9993 21.0169 34.9937 20.8496 34.9843C20.9793 34.5368 21.2576 34.2209 21.4419 33.858C21.5547 33.7189 21.6863 33.5929 21.7747 33.4406C21.9101 33.2112 22.0229 32.9649 22.1357 32.7223C22.3463 32.2654 22.5587 31.8104 22.7562 31.3479C22.9216 30.9568 23.0758 30.5582 23.2168 30.1577C23.3691 29.7252 23.544 29.2928 23.6267 28.8434C23.747 28.1929 24.0084 27.5799 24.1062 26.9256C24.1551 26.5947 24.1645 26.2562 24.3262 25.9479C24.3694 25.8651 24.3412 25.7486 24.3525 25.6489C24.375 25.4477 24.3995 25.2484 24.4258 25.0491C24.4446 24.8931 24.4634 24.7389 24.4879 24.5828C24.5067 24.4625 24.5367 24.344 24.5593 24.2237C24.58 24.1146 24.6007 24.0056 24.6195 23.8947C24.6477 23.7292 24.6702 23.5637 24.6984 23.3983C24.706 23.355 24.7398 23.308 24.7323 23.2685C24.6702 22.9282 24.847 22.6123 24.8263 22.2777C24.8225 22.2213 24.8188 22.1611 24.8357 22.1103C25.0012 21.6027 24.9335 21.0593 25.05 20.5516C25.1666 20.0421 25.1177 19.5231 25.2362 19.0211C25.2493 18.9666 25.2456 18.9026 25.2738 18.8575C25.4787 18.5285 25.4148 18.1637 25.4374 17.8084C25.4505 17.6109 25.5107 17.4154 25.5427 17.218C25.5972 16.8983 25.6404 16.5768 25.7025 16.2572C25.8661 15.4205 26.0334 14.5856 26.2064 13.7508C26.2816 13.3898 26.3775 13.0326 26.464 12.6734C26.4715 12.6415 26.479 12.6076 26.4903 12.5757C26.7385 11.8555 26.9848 11.1335 27.2424 10.4172C27.3138 10.2197 27.4361 10.0392 27.5113 9.84181C27.562 9.70832 27.5714 9.56166 27.5996 9.42064C27.6711 9.27023 27.7444 9.11981 27.814 8.96751C27.8328 8.92614 27.8384 8.88102 27.8591 8.84153C28.0998 8.37335 28.3292 7.89766 28.5886 7.44076C28.9271 6.84473 29.29 6.26374 29.6453 5.6771C29.7205 5.55301 29.8051 5.43267 29.8935 5.3161C30.2357 4.85732 30.5723 4.39291 30.9258 3.94353C31.1476 3.6615 31.3864 3.39074 31.6384 3.13315C32.1479 2.61045 32.6687 2.09903 33.1896 1.5876C33.3663 1.41462 33.5524 1.24916 33.7499 1.1025C33.8307 1.04234 33.951 1.01977 34.0563 1.01225C34.3008 0.997211 34.5471 0.995331 34.7915 1.00097C34.9006 1.00285 35.0077 1.03294 35.1168 1.05174C35.0021 1.18523 34.8912 1.32249 34.7727 1.45411C34.596 1.65341 34.4117 1.84708 34.235 2.04638C34.0206 2.29081 33.8082 2.53524 33.6013 2.78719C33.1952 3.27981 32.7759 3.76491 32.3961 4.27633C31.9768 4.8404 31.5838 5.42703 31.1984 6.01555C31.0104 6.30322 30.86 6.61534 30.6983 6.91994C30.5083 7.27342 30.3203 7.62878 30.1379 7.98603C30.0007 8.2549 29.8785 8.53129 29.7469 8.80205C29.6735 8.95247 29.5833 9.09724 29.5212 9.25142C29.4535 9.415 29.4084 9.58798 29.3539 9.75532L29.3482 9.76096Z" fill="white"/>
<path d="M23.541 33.3224C23.5843 33.0761 23.6651 32.8542 23.9377 32.7715C23.9077 33.0291 23.793 33.2246 23.541 33.3224Z" fill="white"/>
<rect width="38" height="0.8" fill="#0B89B7"/>
<rect x="38" width="36" height="0.8" transform="rotate(90 38 0)" fill="#0B89B7"/>
<rect x="38" y="36" width="38" height="0.8" transform="rotate(-180 38 36)" fill="#0B89B7"/>
<rect x="0.800781" width="36" height="0.8" transform="rotate(90 0.800781 0)" fill="#0B89B7"/>
</svg>
